<svg width="100%" height="96" viewBox="0 0 960 96" xmlns="http://www.w3.org/2000/svg">
  <rect width="960" height="96" fill="#0d1117"/>
  <style>
    @keyframes p0 {
      0% { opacity: 1; }
      4% { opacity: 0; }
      100% { opacity: 1; }
    }
    .p0 { animation: p0 7.5s steps(1) infinite; opacity: 1; }
    @keyframes p1 {
      0% { opacity: 1; }
      12% { opacity: 0; }
      100% { opacity: 1; }
    }
    .p1 { animation: p1 7.5s steps(1) infinite; opacity: 1; }
    @keyframes p2 {
      0% { opacity: 1; }
    }
    .p2 { animation: p2 7.5s steps(1) infinite; opacity: 1; }
    @keyframes p3 {
      0% { opacity: 1; }
      4% { opacity: 0; }
      8% { opacity: 1; }
      12% { opacity: 0; }
      100% { opacity: 1; }
    }
    .p3 { animation: p3 7.5s steps(1) infinite; opacity: 1; }
    @keyframes p4 {
      0% { opacity: 1; }
      8% { opacity: 0; }
      100% { opacity: 1; }
    }
    .p4 { animation: p4 7.5s steps(1) infinite; opacity: 1; }
    @keyframes p5 {
      0% { opacity: 1; }
      4% { opacity: 0; }
      12% { opacity: 1; }
    }
    .p5 { animation: p5 7.5s steps(1) infinite; opacity: 1; }
    @keyframes p6 {
      0% { opacity: 1; }
      16% { opacity: 0; }
      100% { opacity: 1; }
    }
    .p6 { animation: p6 7.5s steps(1) infinite; opacity: 1; }
    @keyframes p7 {
      0% { opacity: 1; }
      4% { opacity: 0; }
      8% { opacity: 1; }
    }
    .p7 { animation: p7 7.5s steps(1) infinite; opacity: 1; }
    @keyframes p8 {
      0% { opacity: 1; }
      4% { opacity: 0; }
      8% { opacity: 1; }
      16% { opacity: 0; }
      100% { opacity: 1; }
    }
    .p8 { animation: p8 7.5s steps(1) infinite; opacity: 1; }
    @keyframes p9 {
      0% { opacity: 1; }
      8% { opacity: 0; }
      16% { opacity: 1; }
    }
    .p9 { animation: p9 7.5s steps(1) infinite; opacity: 1; }
    @keyframes p10 {
      0% { opacity: 1; }
      4% { opacity: 0; }
      8% { opacity: 1; }
      12% { opacity: 0; }
      16% { opacity: 1; }
      20% { opacity: 0; }
      24% { opacity: 1; }
      28% { opacity: 0; }
      32% { opacity: 1; }
      36% { opacity: 0; }
      40% { opacity: 1; }
      44% { opacity: 0; }
      48% { opacity: 1; }
      52% { opacity: 0; }
      56% { opacity: 1; }
      60% { opacity: 0; }
      64% { opacity: 1; }
      68% { opacity: 0; }
      72% { opacity: 1; }
      76% { opacity: 0; }
      80% { opacity: 1; }
      84% { opacity: 0; }
      88% { opacity: 1; }
      92% { opacity: 0; }
      96% { opacity: 1; }
    }
    .p10 { animation: p10 7.5s steps(1) infinite; opacity: 1; }
    @keyframes p11 {
      0% { opacity: 1; }
      8% { opacity: 0; }
      12% { opacity: 1; }
      16% { opacity: 0; }
      100% { opacity: 1; }
    }
    .p11 { animation: p11 7.5s steps(1) infinite; opacity: 1; }
    @keyframes p12 {
      0% { opacity: 0; }
      4% { opacity: 1; }
      100% { opacity: 0; }
    }
    .p12 { animation: p12 7.5s steps(1) infinite; opacity: 0; }
    @keyframes p13 {
      0% { opacity: 0; }
      4% { opacity: 1; }
      8% { opacity: 0; }
    }
    .p13 { animation: p13 7.5s steps(1) infinite; opacity: 0; }
    @keyframes p14 {
      0% { opacity: 0; }
      4% { opacity: 1; }
      8% { opacity: 0; }
      16% { opacity: 1; }
      100% { opacity: 0; }
    }
    .p14 { animation: p14 7.5s steps(1) infinite; opacity: 0; }
    @keyframes p15 {
      0% { opacity: 0; }
      4% { opacity: 1; }
      12% { opacity: 0; }
    }
    .p15 { animation: p15 7.5s steps(1) infinite; opacity: 0; }
    @keyframes p16 {
      0% { opacity: 0; }
      4% { opacity: 1; }
      16% { opacity: 0; }
    }
    .p16 { animation: p16 7.5s steps(1) infinite; opacity: 0; }
    @keyframes p17 {
      0% { opacity: 0; }
      4% { opacity: 1; }
      8% { opacity: 0; }
      12% { opacity: 1; }
      16% { opacity: 0; }
      20% { opacity: 1; }
      24% { opacity: 0; }
      28% { opacity: 1; }
      32% { opacity: 0; }
      36% { opacity: 1; }
      40% { opacity: 0; }
      44% { opacity: 1; }
      48% { opacity: 0; }
      52% { opacity: 1; }
      56% { opacity: 0; }
      60% { opacity: 1; }
      64% { opacity: 0; }
      68% { opacity: 1; }
      72% { opacity: 0; }
      76% { opacity: 1; }
      80% { opacity: 0; }
      84% { opacity: 1; }
      88% { opacity: 0; }
      92% { opacity: 1; }
      96% { opacity: 0; }
    }
    .p17 { animation: p17 7.5s steps(1) infinite; opacity: 0; }
    @keyframes p18 {
      0% { opacity: 0; }
      8% { opacity: 1; }
      100% { opacity: 0; }
    }
    .p18 { animation: p18 7.5s steps(1) infinite; opacity: 0; }
    @keyframes p19 {
      0% { opacity: 0; }
      8% { opacity: 1; }
      12% { opacity: 0; }
    }
    .p19 { animation: p19 7.5s steps(1) infinite; opacity: 0; }
    @keyframes p20 {
      0% { opacity: 0; }
      12% { opacity: 1; }
      16% { opacity: 0; }
    }
    .p20 { animation: p20 7.5s steps(1) infinite; opacity: 0; }
    @keyframes p21 {
      0% { opacity: 0; }
      12% { opacity: 1; }
      100% { opacity: 0; }
    }
    .p21 { animation: p21 7.5s steps(1) infinite; opacity: 0; }
    @keyframes p22 {
      0% { opacity: 0; }
      16% { opacity: 1; }
      100% { opacity: 0; }
    }
    .p22 { animation: p22 7.5s steps(1) infinite; opacity: 0; }
  </style>
  <rect class="p0" x="24" y="0" width="7" height="7" rx="2" fill="#238636" opacity="0.7"/>
  <rect class="p0" x="392" y="0" width="7" height="7" rx="2" fill="#238636" opacity="0.7"/>
  <rect class="p0" x="440" y="0" width="7" height="7" rx="2" fill="#238636" opacity="0.7"/>
  <rect class="p0" x="480" y="0" width="7" height="7" rx="2" fill="#238636" opacity="0.7"/>
  <rect class="p0" x="528" y="0" width="7" height="7" rx="2" fill="#238636" opacity="0.7"/>
  <rect class="p0" x="584" y="0" width="7" height="7" rx="2" fill="#238636" opacity="0.7"/>
  <rect class="p0" x="736" y="0" width="7" height="7" rx="2" fill="#238636" opacity="0.7"/>
  <rect class="p0" x="16" y="8" width="7" height="7" rx="2" fill="#238636" opacity="0.7"/>
  <rect class="p0" x="72" y="8" width="7" height="7" rx="2" fill="#238636" opacity="0.7"/>
  <rect class="p0" x="200" y="8" width="7" height="7" rx="2" fill="#238636" opacity="0.7"/>
  <rect class="p0" x="224" y="8" width="7" height="7" rx="2" fill="#238636" opacity="0.7"/>
  <rect class="p0" x="648" y="8" width="7" height="7" rx="2" fill="#238636" opacity="0.7"/>
  <rect class="p0" x="672" y="8" width="7" height="7" rx="2" fill="#238636" opacity="0.7"/>
  <rect class="p0" x="712" y="8" width="7" height="7" rx="2" fill="#238636" opacity="0.7"/>
  <rect class="p0" x="760" y="8" width="7" height="7" rx="2" fill="#238636" opacity="0.7"/>
  <rect class="p0" x="800" y="8" width="7" height="7" rx="2" fill="#238636" opacity="0.7"/>
  <rect class="p0" x="808" y="8" width="7" height="7" rx="2" fill="#238636" opacity="0.7"/>
  <rect class="p0" x="96" y="16" width="7" height="7" rx="2" fill="#238636" opacity="0.7"/>
  <rect class="p0" x="144" y="16" width="7" height="7" rx="2" fill="#238636" opacity="0.7"/>
  <rect class="p0" x="344" y="16" width="7" height="7" rx="2" fill="#238636" opacity="0.7"/>
  <rect class="p0" x="352" y="16" width="7" height="7" rx="2" fill="#238636" opacity="0.7"/>
  <rect class="p0" x="368" y="16" width="7" height="7" rx="2" fill="#238636" opacity="0.7"/>
  <rect class="p0" x="496" y="16" width="7" height="7" rx="2" fill="#238636" opacity="0.7"/>
  <rect class="p0" x="904" y="16" width="7" height="7" rx="2" fill="#238636" opacity="0.7"/>
  <rect class="p0" x="952" y="16" width="7" height="7" rx="2" fill="#238636" opacity="0.7"/>
  <rect class="p0" x="32" y="24" width="7" height="7" rx="2" fill="#238636" opacity="0.7"/>
  <rect class="p0" x="216" y="24" width="7" height="7" rx="2" fill="#238636" opacity="0.7"/>
  <rect class="p0" x="240" y="24" width="7" height="7" rx="2" fill="#238636" opacity="0.7"/>
  <rect class="p0" x="320" y="24" width="7" height="7" rx="2" fill="#238636" opacity="0.7"/>
  <rect class="p0" x="496" y="24" width="7" height="7" rx="2" fill="#238636" opacity="0.7"/>
  <rect class="p0" x="528" y="24" width="7" height="7" rx="2" fill="#238636" opacity="0.7"/>
  <rect class="p0" x="600" y="24" width="7" height="7" rx="2" fill="#238636" opacity="0.7"/>
  <rect class="p0" x="728" y="24" width="7" height="7" rx="2" fill="#238636" opacity="0.7"/>
  <rect class="p0" x="784" y="24" width="7" height="7" rx="2" fill="#238636" opacity="0.7"/>
  <rect class="p0" x="912" y="24" width="7" height="7" rx="2" fill="#238636" opacity="0.7"/>
  <rect class="p0" x="48" y="32" width="7" height="7" rx="2" fill="#238636" opacity="0.7"/>
  <rect class="p0" x="96" y="32" width="7" height="7" rx="2" fill="#238636" opacity="0.7"/>
  <rect class="p0" x="224" y="32" width="7" height="7" rx="2" fill="#238636" opacity="0.7"/>
  <rect class="p0" x="536" y="32" width="7" height="7" rx="2" fill="#238636" opacity="0.7"/>
  <rect class="p0" x="552" y="32" width="7" height="7" rx="2" fill="#238636" opacity="0.7"/>
  <rect class="p0" x="592" y="32" width="7" height="7" rx="2" fill="#238636" opacity="0.7"/>
  <rect class="p0" x="632" y="32" width="7" height="7" rx="2" fill="#238636" opacity="0.7"/>
  <rect class="p0" x="696" y="32" width="7" height="7" rx="2" fill="#238636" opacity="0.7"/>
  <rect class="p0" x="88" y="40" width="7" height="7" rx="2" fill="#238636" opacity="0.7"/>
  <rect class="p0" x="240" y="40" width="7" height="7" rx="2" fill="#238636" opacity="0.7"/>
  <rect class="p0" x="768" y="40" width="7" height="7" rx="2" fill="#238636" opacity="0.7"/>
  <rect class="p0" x="824" y="40" width="7" height="7" rx="2" fill="#238636" opacity="0.7"/>
  <rect class="p0" x="856" y="40" width="7" height="7" rx="2" fill="#238636" opacity="0.7"/>
  <rect class="p0" x="192" y="48" width="7" height="7" rx="2" fill="#238636" opacity="0.7"/>
  <rect class="p0" x="200" y="48" width="7" height="7" rx="2" fill="#238636" opacity="0.7"/>
  <rect class="p0" x="360" y="48" width="7" height="7" rx="2" fill="#238636" opacity="0.7"/>
  <rect class="p0" x="416" y="48" width="7" height="7" rx="2" fill="#238636" opacity="0.7"/>
  <rect class="p0" x="544" y="48" width="7" height="7" rx="2" fill="#238636" opacity="0.7"/>
  <rect class="p0" x="568" y="48" width="7" height="7" rx="2" fill="#238636" opacity="0.7"/>
  <rect class="p0" x="672" y="48" width="7" height="7" rx="2" fill="#238636" opacity="0.7"/>
  <rect class="p0" x="688" y="48" width="7" height="7" rx="2" fill="#238636" opacity="0.7"/>
  <rect class="p0" x="712" y="48" width="7" height="7" rx="2" fill="#238636" opacity="0.7"/>
  <rect class="p0" x="784" y="48" width="7" height="7" rx="2" fill="#238636" opacity="0.7"/>
  <rect class="p0" x="904" y="48" width="7" height="7" rx="2" fill="#238636" opacity="0.7"/>
  <rect class="p0" x="24" y="56" width="7" height="7" rx="2" fill="#238636" opacity="0.7"/>
  <rect class="p0" x="88" y="56" width="7" height="7" rx="2" fill="#238636" opacity="0.7"/>
  <rect class="p0" x="168" y="56" width="7" height="7" rx="2" fill="#238636" opacity="0.7"/>
  <rect class="p0" x="296" y="56" width="7" height="7" rx="2" fill="#238636" opacity="0.7"/>
  <rect class="p0" x="472" y="56" width="7" height="7" rx="2" fill="#238636" opacity="0.7"/>
  <rect class="p0" x="488" y="56" width="7" height="7" rx="2" fill="#238636" opacity="0.7"/>
  <rect class="p0" x="496" y="56" width="7" height="7" rx="2" fill="#238636" opacity="0.7"/>
  <rect class="p0" x="784" y="56" width="7" height="7" rx="2" fill="#238636" opacity="0.7"/>
  <rect class="p0" x="808" y="56" width="7" height="7" rx="2" fill="#238636" opacity="0.7"/>
  <rect class="p0" x="824" y="56" width="7" height="7" rx="2" fill="#238636" opacity="0.7"/>
  <rect class="p0" x="920" y="56" width="7" height="7" rx="2" fill="#238636" opacity="0.7"/>
  <rect class="p0" x="376" y="64" width="7" height="7" rx="2" fill="#238636" opacity="0.7"/>
  <rect class="p0" x="448" y="64" width="7" height="7" rx="2" fill="#238636" opacity="0.7"/>
  <rect class="p0" x="616" y="64" width="7" height="7" rx="2" fill="#238636" opacity="0.7"/>
  <rect class="p0" x="624" y="64" width="7" height="7" rx="2" fill="#238636" opacity="0.7"/>
  <rect class="p0" x="640" y="64" width="7" height="7" rx="2" fill="#238636" opacity="0.7"/>
  <rect class="p0" x="648" y="64" width="7" height="7" rx="2" fill="#238636" opacity="0.7"/>
  <rect class="p0" x="0" y="72" width="7" height="7" rx="2" fill="#238636" opacity="0.7"/>
  <rect class="p0" x="152" y="72" width="7" height="7" rx="2" fill="#238636" opacity="0.7"/>
  <rect class="p0" x="200" y="72" width="7" height="7" rx="2" fill="#238636" opacity="0.7"/>
  <rect class="p0" x="384" y="72" width="7" height="7" rx="2" fill="#238636" opacity="0.7"/>
  <rect class="p0" x="520" y="72" width="7" height="7" rx="2" fill="#238636" opacity="0.7"/>
  <rect class="p0" x="528" y="72" width="7" height="7" rx="2" fill="#238636" opacity="0.7"/>
  <rect class="p0" x="544" y="72" width="7" height="7" rx="2" fill="#238636" opacity="0.7"/>
  <rect class="p0" x="552" y="72" width="7" height="7" rx="2" fill="#238636" opacity="0.7"/>
  <rect class="p0" x="696" y="72" width="7" height="7" rx="2" fill="#238636" opacity="0.7"/>
  <rect class="p0" x="720" y="72" width="7" height="7" rx="2" fill="#238636" opacity="0.7"/>
  <rect class="p0" x="760" y="72" width="7" height="7" rx="2" fill="#238636" opacity="0.7"/>
  <rect class="p0" x="840" y="72" width="7" height="7" rx="2" fill="#238636" opacity="0.7"/>
  <rect class="p0" x="848" y="72" width="7" height="7" rx="2" fill="#238636" opacity="0.7"/>
  <rect class="p0" x="32" y="80" width="7" height="7" rx="2" fill="#238636" opacity="0.7"/>
  <rect class="p0" x="64" y="80" width="7" height="7" rx="2" fill="#238636" opacity="0.7"/>
  <rect class="p0" x="72" y="80" width="7" height="7" rx="2" fill="#238636" opacity="0.7"/>
  <rect class="p0" x="168" y="80" width="7" height="7" rx="2" fill="#238636" opacity="0.7"/>
  <rect class="p0" x="352" y="80" width="7" height="7" rx="2" fill="#238636" opacity="0.7"/>
  <rect class="p0" x="672" y="80" width="7" height="7" rx="2" fill="#238636" opacity="0.7"/>
  <rect class="p0" x="200" y="88" width="7" height="7" rx="2" fill="#238636" opacity="0.7"/>
  <rect class="p0" x="264" y="88" width="7" height="7" rx="2" fill="#238636" opacity="0.7"/>
  <rect class="p0" x="280" y="88" width="7" height="7" rx="2" fill="#238636" opacity="0.7"/>
  <rect class="p0" x="384" y="88" width="7" height="7" rx="2" fill="#238636" opacity="0.7"/>
  <rect class="p0" x="464" y="88" width="7" height="7" rx="2" fill="#238636" opacity="0.7"/>
  <rect class="p0" x="592" y="88" width="7" height="7" rx="2" fill="#238636" opacity="0.7"/>
  <rect class="p0" x="656" y="88" width="7" height="7" rx="2" fill="#238636" opacity="0.7"/>
  <rect class="p0" x="704" y="88" width="7" height="7" rx="2" fill="#238636" opacity="0.7"/>
  <rect class="p0" x="736" y="88" width="7" height="7" rx="2" fill="#238636" opacity="0.7"/>
  <rect class="p0" x="872" y="88" width="7" height="7" rx="2" fill="#238636" opacity="0.7"/>
  <rect class="p0" x="912" y="88" width="7" height="7" rx="2" fill="#238636" opacity="0.7"/>
  <rect class="p1" x="456" y="0" width="7" height="7" rx="2" fill="#238636" opacity="0.7"/>
  <rect class="p1" x="456" y="8" width="7" height="7" rx="2" fill="#238636" opacity="0.7"/>
  <rect class="p2" x="552" y="0" width="7" height="7" rx="2" fill="#238636" opacity="0.7"/>
  <rect class="p2" x="168" y="8" width="7" height="7" rx="2" fill="#238636" opacity="0.7"/>
  <rect class="p2" x="448" y="8" width="7" height="7" rx="2" fill="#238636" opacity="0.7"/>
  <rect class="p2" x="552" y="8" width="7" height="7" rx="2" fill="#238636" opacity="0.7"/>
  <rect class="p2" x="560" y="8" width="7" height="7" rx="2" fill="#238636" opacity="0.7"/>
  <rect class="p2" x="168" y="16" width="7" height="7" rx="2" fill="#238636" opacity="0.7"/>
  <rect class="p2" x="176" y="16" width="7" height="7" rx="2" fill="#238636" opacity="0.7"/>
  <rect class="p2" x="656" y="24" width="7" height="7" rx="2" fill="#238636" opacity="0.7"/>
  <rect class="p2" x="128" y="32" width="7" height="7" rx="2" fill="#238636" opacity="0.7"/>
  <rect class="p2" x="648" y="32" width="7" height="7" rx="2" fill="#238636" opacity="0.7"/>
  <rect class="p2" x="656" y="32" width="7" height="7" rx="2" fill="#238636" opacity="0.7"/>
  <rect class="p2" x="336" y="48" width="7" height="7" rx="2" fill="#238636" opacity="0.7"/>
  <rect class="p3" x="32" y="16" width="7" height="7" rx="2" fill="#238636" opacity="0.7"/>
  <rect class="p3" x="48" y="16" width="7" height="7" rx="2" fill="#238636" opacity="0.7"/>
  <rect class="p4" x="56" y="24" width="7" height="7" rx="2" fill="#238636" opacity="0.7"/>
  <rect class="p4" x="136" y="24" width="7" height="7" rx="2" fill="#238636" opacity="0.7"/>
  <rect class="p4" x="128" y="56" width="7" height="7" rx="2" fill="#238636" opacity="0.7"/>
  <rect class="p4" x="136" y="56" width="7" height="7" rx="2" fill="#238636" opacity="0.7"/>
  <rect class="p4" x="912" y="56" width="7" height="7" rx="2" fill="#238636" opacity="0.7"/>
  <rect class="p4" x="128" y="64" width="7" height="7" rx="2" fill="#238636" opacity="0.7"/>
  <rect class="p4" x="120" y="72" width="7" height="7" rx="2" fill="#238636" opacity="0.7"/>
  <rect class="p4" x="120" y="80" width="7" height="7" rx="2" fill="#238636" opacity="0.7"/>
  <rect class="p4" x="712" y="80" width="7" height="7" rx="2" fill="#238636" opacity="0.7"/>
  <rect class="p5" x="864" y="24" width="7" height="7" rx="2" fill="#238636" opacity="0.7"/>
  <rect class="p6" x="872" y="24" width="7" height="7" rx="2" fill="#238636" opacity="0.7"/>
  <rect class="p6" x="112" y="88" width="7" height="7" rx="2" fill="#238636" opacity="0.7"/>
  <rect class="p7" x="880" y="24" width="7" height="7" rx="2" fill="#238636" opacity="0.7"/>
  <rect class="p8" x="112" y="40" width="7" height="7" rx="2" fill="#238636" opacity="0.7"/>
  <rect class="p9" x="120" y="40" width="7" height="7" rx="2" fill="#238636" opacity="0.7"/>
  <rect class="p10" x="336" y="40" width="7" height="7" rx="2" fill="#238636" opacity="0.7"/>
  <rect class="p10" x="336" y="56" width="7" height="7" rx="2" fill="#238636" opacity="0.7"/>
  <rect class="p11" x="112" y="80" width="7" height="7" rx="2" fill="#238636" opacity="0.7"/>
  <rect class="p12" x="464" y="0" width="7" height="7" rx="2" fill="#238636" opacity="0.7"/>
  <rect class="p12" x="560" y="0" width="7" height="7" rx="2" fill="#238636" opacity="0.7"/>
  <rect class="p12" x="176" y="8" width="7" height="7" rx="2" fill="#238636" opacity="0.7"/>
  <rect class="p12" x="648" y="24" width="7" height="7" rx="2" fill="#238636" opacity="0.7"/>
  <rect class="p12" x="864" y="32" width="7" height="7" rx="2" fill="#238636" opacity="0.7"/>
  <rect class="p13" x="24" y="8" width="7" height="7" rx="2" fill="#238636" opacity="0.7"/>
  <rect class="p13" x="24" y="16" width="7" height="7" rx="2" fill="#238636" opacity="0.7"/>
  <rect class="p13" x="40" y="16" width="7" height="7" rx="2" fill="#238636" opacity="0.7"/>
  <rect class="p13" x="232" y="32" width="7" height="7" rx="2" fill="#238636" opacity="0.7"/>
  <rect class="p13" x="544" y="40" width="7" height="7" rx="2" fill="#238636" opacity="0.7"/>
  <rect class="p13" x="128" y="48" width="7" height="7" rx="2" fill="#238636" opacity="0.7"/>
  <rect class="p13" x="776" y="48" width="7" height="7" rx="2" fill="#238636" opacity="0.7"/>
  <rect class="p13" x="816" y="48" width="7" height="7" rx="2" fill="#238636" opacity="0.7"/>
  <rect class="p13" x="912" y="48" width="7" height="7" rx="2" fill="#238636" opacity="0.7"/>
  <rect class="p13" x="120" y="64" width="7" height="7" rx="2" fill="#238636" opacity="0.7"/>
  <rect class="p13" x="136" y="64" width="7" height="7" rx="2" fill="#238636" opacity="0.7"/>
  <rect class="p13" x="112" y="72" width="7" height="7" rx="2" fill="#238636" opacity="0.7"/>
  <rect class="p13" x="128" y="72" width="7" height="7" rx="2" fill="#238636" opacity="0.7"/>
  <rect class="p13" x="704" y="80" width="7" height="7" rx="2" fill="#238636" opacity="0.7"/>
  <rect class="p14" x="872" y="16" width="7" height="7" rx="2" fill="#238636" opacity="0.7"/>
  <rect class="p15" x="48" y="24" width="7" height="7" rx="2" fill="#238636" opacity="0.7"/>
  <rect class="p15" x="120" y="48" width="7" height="7" rx="2" fill="#238636" opacity="0.7"/>
  <rect class="p15" x="120" y="88" width="7" height="7" rx="2" fill="#238636" opacity="0.7"/>
  <rect class="p16" x="120" y="32" width="7" height="7" rx="2" fill="#238636" opacity="0.7"/>
  <rect class="p16" x="872" y="32" width="7" height="7" rx="2" fill="#238636" opacity="0.7"/>
  <rect class="p17" x="328" y="48" width="7" height="7" rx="2" fill="#238636" opacity="0.7"/>
  <rect class="p17" x="344" y="48" width="7" height="7" rx="2" fill="#238636" opacity="0.7"/>
  <rect class="p18" x="448" y="0" width="7" height="7" rx="2" fill="#238636" opacity="0.7"/>
  <rect class="p18" x="464" y="8" width="7" height="7" rx="2" fill="#238636" opacity="0.7"/>
  <rect class="p18" x="128" y="24" width="7" height="7" rx="2" fill="#238636" opacity="0.7"/>
  <rect class="p19" x="32" y="8" width="7" height="7" rx="2" fill="#238636" opacity="0.7"/>
  <rect class="p19" x="136" y="48" width="7" height="7" rx="2" fill="#238636" opacity="0.7"/>
  <rect class="p19" x="112" y="64" width="7" height="7" rx="2" fill="#238636" opacity="0.7"/>
  <rect class="p19" x="136" y="72" width="7" height="7" rx="2" fill="#238636" opacity="0.7"/>
  <rect class="p19" x="104" y="80" width="7" height="7" rx="2" fill="#238636" opacity="0.7"/>
  <rect class="p20" x="40" y="8" width="7" height="7" rx="2" fill="#238636" opacity="0.7"/>
  <rect class="p20" x="40" y="24" width="7" height="7" rx="2" fill="#238636" opacity="0.7"/>
  <rect class="p21" x="456" y="16" width="7" height="7" rx="2" fill="#238636" opacity="0.7"/>
  <rect class="p21" x="120" y="24" width="7" height="7" rx="2" fill="#238636" opacity="0.7"/>
  <rect class="p21" x="880" y="32" width="7" height="7" rx="2" fill="#238636" opacity="0.7"/>
  <rect class="p21" x="456" y="88" width="7" height="7" rx="2" fill="#238636" opacity="0.7"/>
  <rect class="p22" x="112" y="32" width="7" height="7" rx="2" fill="#238636" opacity="0.7"/>
  <rect class="p22" x="872" y="40" width="7" height="7" rx="2" fill="#238636" opacity="0.7"/>
</svg>