<svg width="100%" height="96" viewBox="0 0 960 96" xmlns="http://www.w3.org/2000/svg">
  <rect width="960" height="96" fill="#0d1117"/>
  <style>
    @keyframes p0 {
      0% { opacity: 1; }
      4% { opacity: 0; }
      100% { opacity: 1; }
    }
    .p0 { animation: p0 7.5s steps(1) infinite; opacity: 1; }
    @keyframes p1 {
      0% { opacity: 1; }
      4% { opacity: 0; }
      8% { opacity: 1; }
      12% { opacity: 0; }
      100% { opacity: 1; }
    }
    .p1 { animation: p1 7.5s steps(1) infinite; opacity: 1; }
    @keyframes p2 {
      0% { opacity: 1; }
      4% { opacity: 0; }
      16% { opacity: 1; }
    }
    .p2 { animation: p2 7.5s steps(1) infinite; opacity: 1; }
    @keyframes p3 {
      0% { opacity: 1; }
      8% { opacity: 0; }
      100% { opacity: 1; }
    }
    .p3 { animation: p3 7.5s steps(1) infinite; opacity: 1; }
    @keyframes p4 {
      0% { opacity: 1; }
      4% { opacity: 0; }
      12% { opacity: 1; }
      16% { opacity: 0; }
      100% { opacity: 1; }
    }
    .p4 { animation: p4 7.5s steps(1) infinite; opacity: 1; }
    @keyframes p5 {
      0% { opacity: 1; }
      4% { opacity: 0; }
      8% { opacity: 1; }
      16% { opacity: 0; }
      20% { opacity: 1; }
      24% { opacity: 0; }
      100% { opacity: 1; }
    }
    .p5 { animation: p5 7.5s steps(1) infinite; opacity: 1; }
    @keyframes p6 {
      0% { opacity: 1; }
      8% { opacity: 0; }
      12% { opacity: 1; }
      16% { opacity: 0; }
      100% { opacity: 1; }
    }
    .p6 { animation: p6 7.5s steps(1) infinite; opacity: 1; }
    @keyframes p7 {
      0% { opacity: 1; }
      12% { opacity: 0; }
      100% { opacity: 1; }
    }
    .p7 { animation: p7 7.5s steps(1) infinite; opacity: 1; }
    @keyframes p8 {
      0% { opacity: 1; }
    }
    .p8 { animation: p8 7.5s steps(1) infinite; opacity: 1; }
    @keyframes p9 {
      0% { opacity: 1; }
      4% { opacity: 0; }
      8% { opacity: 1; }
      16% { opacity: 0; }
      100% { opacity: 1; }
    }
    .p9 { animation: p9 7.5s steps(1) infinite; opacity: 1; }
    @keyframes p10 {
      0% { opacity: 1; }
      16% { opacity: 0; }
      100% { opacity: 1; }
    }
    .p10 { animation: p10 7.5s steps(1) infinite; opacity: 1; }
    @keyframes p11 {
      0% { opacity: 1; }
      4% { opacity: 0; }
      8% { opacity: 1; }
      20% { opacity: 0; }
      100% { opacity: 1; }
    }
    .p11 { animation: p11 7.5s steps(1) infinite; opacity: 1; }
    @keyframes p12 {
      0% { opacity: 1; }
      4% { opacity: 0; }
      16% { opacity: 1; }
      20% { opacity: 0; }
      100% { opacity: 1; }
    }
    .p12 { animation: p12 7.5s steps(1) infinite; opacity: 1; }
    @keyframes p13 {
      0% { opacity: 1; }
      12% { opacity: 0; }
      16% { opacity: 1; }
      20% { opacity: 0; }
      100% { opacity: 1; }
    }
    .p13 { animation: p13 7.5s steps(1) infinite; opacity: 1; }
    @keyframes p14 {
      0% { opacity: 1; }
      4% { opacity: 0; }
      12% { opacity: 1; }
      20% { opacity: 0; }
      24% { opacity: 1; }
    }
    .p14 { animation: p14 7.5s steps(1) infinite; opacity: 1; }
    @keyframes p15 {
      0% { opacity: 1; }
      4% { opacity: 0; }
      8% { opacity: 1; }
    }
    .p15 { animation: p15 7.5s steps(1) infinite; opacity: 1; }
    @keyframes p16 {
      0% { opacity: 1; }
      12% { opacity: 0; }
      16% { opacity: 1; }
    }
    .p16 { animation: p16 7.5s steps(1) infinite; opacity: 1; }
    @keyframes p17 {
      0% { opacity: 1; }
      4% { opacity: 0; }
      24% { opacity: 1; }
    }
    .p17 { animation: p17 7.5s steps(1) infinite; opacity: 1; }
    @keyframes p18 {
      0% { opacity: 0; }
      4% { opacity: 1; }
      8% { opacity: 0; }
      24% { opacity: 1; }
      100% { opacity: 0; }
    }
    .p18 { animation: p18 7.5s steps(1) infinite; opacity: 0; }
    @keyframes p19 {
      0% { opacity: 0; }
      4% { opacity: 1; }
      8% { opacity: 0; }
    }
    .p19 { animation: p19 7.5s steps(1) infinite; opacity: 0; }
    @keyframes p20 {
      0% { opacity: 0; }
      4% { opacity: 1; }
      8% { opacity: 0; }
      16% { opacity: 1; }
      20% { opacity: 0; }
    }
    .p20 { animation: p20 7.5s steps(1) infinite; opacity: 0; }
    @keyframes p21 {
      0% { opacity: 0; }
      4% { opacity: 1; }
      12% { opacity: 0; }
    }
    .p21 { animation: p21 7.5s steps(1) infinite; opacity: 0; }
    @keyframes p22 {
      0% { opacity: 0; }
      4% { opacity: 1; }
      24% { opacity: 0; }
    }
    .p22 { animation: p22 7.5s steps(1) infinite; opacity: 0; }
    @keyframes p23 {
      0% { opacity: 0; }
      4% { opacity: 1; }
      8% { opacity: 0; }
      12% { opacity: 1; }
      16% { opacity: 0; }
    }
    .p23 { animation: p23 7.5s steps(1) infinite; opacity: 0; }
    @keyframes p24 {
      0% { opacity: 0; }
      4% { opacity: 1; }
      16% { opacity: 0; }
    }
    .p24 { animation: p24 7.5s steps(1) infinite; opacity: 0; }
    @keyframes p25 {
      0% { opacity: 0; }
      4% { opacity: 1; }
      100% { opacity: 0; }
    }
    .p25 { animation: p25 7.5s steps(1) infinite; opacity: 0; }
    @keyframes p26 {
      0% { opacity: 0; }
      4% { opacity: 1; }
      16% { opacity: 0; }
      20% { opacity: 1; }
      24% { opacity: 0; }
    }
    .p26 { animation: p26 7.5s steps(1) infinite; opacity: 0; }
    @keyframes p27 {
      0% { opacity: 0; }
      4% { opacity: 1; }
      16% { opacity: 0; }
      20% { opacity: 1; }
      100% { opacity: 0; }
    }
    .p27 { animation: p27 7.5s steps(1) infinite; opacity: 0; }
    @keyframes p28 {
      0% { opacity: 0; }
      4% { opacity: 1; }
      8% { opacity: 0; }
      12% { opacity: 1; }
      100% { opacity: 0; }
    }
    .p28 { animation: p28 7.5s steps(1) infinite; opacity: 0; }
    @keyframes p29 {
      0% { opacity: 0; }
      4% { opacity: 1; }
      8% { opacity: 0; }
      12% { opacity: 1; }
      24% { opacity: 0; }
    }
    .p29 { animation: p29 7.5s steps(1) infinite; opacity: 0; }
    @keyframes p30 {
      0% { opacity: 0; }
      8% { opacity: 1; }
      12% { opacity: 0; }
    }
    .p30 { animation: p30 7.5s steps(1) infinite; opacity: 0; }
    @keyframes p31 {
      0% { opacity: 0; }
      8% { opacity: 1; }
      16% { opacity: 0; }
    }
    .p31 { animation: p31 7.5s steps(1) infinite; opacity: 0; }
    @keyframes p32 {
      0% { opacity: 0; }
      8% { opacity: 1; }
      24% { opacity: 0; }
    }
    .p32 { animation: p32 7.5s steps(1) infinite; opacity: 0; }
    @keyframes p33 {
      0% { opacity: 0; }
      8% { opacity: 1; }
      16% { opacity: 0; }
      20% { opacity: 1; }
      100% { opacity: 0; }
    }
    .p33 { animation: p33 7.5s steps(1) infinite; opacity: 0; }
    @keyframes p34 {
      0% { opacity: 0; }
      12% { opacity: 1; }
      20% { opacity: 0; }
    }
    .p34 { animation: p34 7.5s steps(1) infinite; opacity: 0; }
    @keyframes p35 {
      0% { opacity: 0; }
      12% { opacity: 1; }
      16% { opacity: 0; }
    }
    .p35 { animation: p35 7.5s steps(1) infinite; opacity: 0; }
    @keyframes p36 {
      0% { opacity: 0; }
      12% { opacity: 1; }
      16% { opacity: 0; }
      24% { opacity: 1; }
      100% { opacity: 0; }
    }
    .p36 { animation: p36 7.5s steps(1) infinite; opacity: 0; }
    @keyframes p37 {
      0% { opacity: 0; }
      12% { opacity: 1; }
      16% { opacity: 0; }
      20% { opacity: 1; }
      24% { opacity: 0; }
    }
    .p37 { animation: p37 7.5s steps(1) infinite; opacity: 0; }
    @keyframes p38 {
      0% { opacity: 0; }
      16% { opacity: 1; }
      20% { opacity: 0; }
    }
    .p38 { animation: p38 7.5s steps(1) infinite; opacity: 0; }
    @keyframes p39 {
      0% { opacity: 0; }
      16% { opacity: 1; }
      100% { opacity: 0; }
    }
    .p39 { animation: p39 7.5s steps(1) infinite; opacity: 0; }
  </style>
  <rect class="p0" x="32" y="0" width="7" height="7" rx="2" fill="#238636" opacity="0.7"/>
  <rect class="p0" x="72" y="0" width="7" height="7" rx="2" fill="#238636" opacity="0.7"/>
  <rect class="p0" x="288" y="0" width="7" height="7" rx="2" fill="#238636" opacity="0.7"/>
  <rect class="p0" x="360" y="0" width="7" height="7" rx="2" fill="#238636" opacity="0.7"/>
  <rect class="p0" x="408" y="0" width="7" height="7" rx="2" fill="#238636" opacity="0.7"/>
  <rect class="p0" x="568" y="0" width="7" height="7" rx="2" fill="#238636" opacity="0.7"/>
  <rect class="p0" x="616" y="0" width="7" height="7" rx="2" fill="#238636" opacity="0.7"/>
  <rect class="p0" x="32" y="8" width="7" height="7" rx="2" fill="#238636" opacity="0.7"/>
  <rect class="p0" x="192" y="8" width="7" height="7" rx="2" fill="#238636" opacity="0.7"/>
  <rect class="p0" x="392" y="8" width="7" height="7" rx="2" fill="#238636" opacity="0.7"/>
  <rect class="p0" x="488" y="8" width="7" height="7" rx="2" fill="#238636" opacity="0.7"/>
  <rect class="p0" x="600" y="8" width="7" height="7" rx="2" fill="#238636" opacity="0.7"/>
  <rect class="p0" x="776" y="8" width="7" height="7" rx="2" fill="#238636" opacity="0.7"/>
  <rect class="p0" x="816" y="8" width="7" height="7" rx="2" fill="#238636" opacity="0.7"/>
  <rect class="p0" x="832" y="8" width="7" height="7" rx="2" fill="#238636" opacity="0.7"/>
  <rect class="p0" x="880" y="8" width="7" height="7" rx="2" fill="#238636" opacity="0.7"/>
  <rect class="p0" x="936" y="8" width="7" height="7" rx="2" fill="#238636" opacity="0.7"/>
  <rect class="p0" x="136" y="16" width="7" height="7" rx="2" fill="#238636" opacity="0.7"/>
  <rect class="p0" x="296" y="16" width="7" height="7" rx="2" fill="#238636" opacity="0.7"/>
  <rect class="p0" x="360" y="16" width="7" height="7" rx="2" fill="#238636" opacity="0.7"/>
  <rect class="p0" x="520" y="16" width="7" height="7" rx="2" fill="#238636" opacity="0.7"/>
  <rect class="p0" x="568" y="16" width="7" height="7" rx="2" fill="#238636" opacity="0.7"/>
  <rect class="p0" x="696" y="16" width="7" height="7" rx="2" fill="#238636" opacity="0.7"/>
  <rect class="p0" x="800" y="16" width="7" height="7" rx="2" fill="#238636" opacity="0.7"/>
  <rect class="p0" x="912" y="16" width="7" height="7" rx="2" fill="#238636" opacity="0.7"/>
  <rect class="p0" x="104" y="24" width="7" height="7" rx="2" fill="#238636" opacity="0.7"/>
  <rect class="p0" x="152" y="24" width="7" height="7" rx="2" fill="#238636" opacity="0.7"/>
  <rect class="p0" x="400" y="24" width="7" height="7" rx="2" fill="#238636" opacity="0.7"/>
  <rect class="p0" x="552" y="24" width="7" height="7" rx="2" fill="#238636" opacity="0.7"/>
  <rect class="p0" x="736" y="24" width="7" height="7" rx="2" fill="#238636" opacity="0.7"/>
  <rect class="p0" x="80" y="32" width="7" height="7" rx="2" fill="#238636" opacity="0.7"/>
  <rect class="p0" x="368" y="32" width="7" height="7" rx="2" fill="#238636" opacity="0.7"/>
  <rect class="p0" x="448" y="32" width="7" height="7" rx="2" fill="#238636" opacity="0.7"/>
  <rect class="p0" x="584" y="32" width="7" height="7" rx="2" fill="#238636" opacity="0.7"/>
  <rect class="p0" x="624" y="32" width="7" height="7" rx="2" fill="#238636" opacity="0.7"/>
  <rect class="p0" x="632" y="32" width="7" height="7" rx="2" fill="#238636" opacity="0.7"/>
  <rect class="p0" x="760" y="32" width="7" height="7" rx="2" fill="#238636" opacity="0.7"/>
  <rect class="p0" x="800" y="32" width="7" height="7" rx="2" fill="#238636" opacity="0.7"/>
  <rect class="p0" x="856" y="32" width="7" height="7" rx="2" fill="#238636" opacity="0.7"/>
  <rect class="p0" x="8" y="40" width="7" height="7" rx="2" fill="#238636" opacity="0.7"/>
  <rect class="p0" x="208" y="40" width="7" height="7" rx="2" fill="#238636" opacity="0.7"/>
  <rect class="p0" x="416" y="40" width="7" height="7" rx="2" fill="#238636" opacity="0.7"/>
  <rect class="p0" x="872" y="40" width="7" height="7" rx="2" fill="#238636" opacity="0.7"/>
  <rect class="p0" x="32" y="48" width="7" height="7" rx="2" fill="#238636" opacity="0.7"/>
  <rect class="p0" x="56" y="48" width="7" height="7" rx="2" fill="#238636" opacity="0.7"/>
  <rect class="p0" x="200" y="48" width="7" height="7" rx="2" fill="#238636" opacity="0.7"/>
  <rect class="p0" x="368" y="48" width="7" height="7" rx="2" fill="#238636" opacity="0.7"/>
  <rect class="p0" x="384" y="48" width="7" height="7" rx="2" fill="#238636" opacity="0.7"/>
  <rect class="p0" x="600" y="48" width="7" height="7" rx="2" fill="#238636" opacity="0.7"/>
  <rect class="p0" x="776" y="48" width="7" height="7" rx="2" fill="#238636" opacity="0.7"/>
  <rect class="p0" x="792" y="48" width="7" height="7" rx="2" fill="#238636" opacity="0.7"/>
  <rect class="p0" x="104" y="56" width="7" height="7" rx="2" fill="#238636" opacity="0.7"/>
  <rect class="p0" x="120" y="56" width="7" height="7" rx="2" fill="#238636" opacity="0.7"/>
  <rect class="p0" x="400" y="56" width="7" height="7" rx="2" fill="#238636" opacity="0.7"/>
  <rect class="p0" x="824" y="56" width="7" height="7" rx="2" fill="#238636" opacity="0.7"/>
  <rect class="p0" x="832" y="56" width="7" height="7" rx="2" fill="#238636" opacity="0.7"/>
  <rect class="p0" x="848" y="56" width="7" height="7" rx="2" fill="#238636" opacity="0.7"/>
  <rect class="p0" x="880" y="56" width="7" height="7" rx="2" fill="#238636" opacity="0.7"/>
  <rect class="p0" x="936" y="56" width="7" height="7" rx="2" fill="#238636" opacity="0.7"/>
  <rect class="p0" x="952" y="56" width="7" height="7" rx="2" fill="#238636" opacity="0.7"/>
  <rect class="p0" x="328" y="64" width="7" height="7" rx="2" fill="#238636" opacity="0.7"/>
  <rect class="p0" x="424" y="64" width="7" height="7" rx="2" fill="#238636" opacity="0.7"/>
  <rect class="p0" x="448" y="64" width="7" height="7" rx="2" fill="#238636" opacity="0.7"/>
  <rect class="p0" x="648" y="64" width="7" height="7" rx="2" fill="#238636" opacity="0.7"/>
  <rect class="p0" x="664" y="64" width="7" height="7" rx="2" fill="#238636" opacity="0.7"/>
  <rect class="p0" x="760" y="64" width="7" height="7" rx="2" fill="#238636" opacity="0.7"/>
  <rect class="p0" x="872" y="64" width="7" height="7" rx="2" fill="#238636" opacity="0.7"/>
  <rect class="p0" x="936" y="64" width="7" height="7" rx="2" fill="#238636" opacity="0.7"/>
  <rect class="p0" x="296" y="72" width="7" height="7" rx="2" fill="#238636" opacity="0.7"/>
  <rect class="p0" x="368" y="72" width="7" height="7" rx="2" fill="#238636" opacity="0.7"/>
  <rect class="p0" x="400" y="72" width="7" height="7" rx="2" fill="#238636" opacity="0.7"/>
  <rect class="p0" x="448" y="72" width="7" height="7" rx="2" fill="#238636" opacity="0.7"/>
  <rect class="p0" x="744" y="72" width="7" height="7" rx="2" fill="#238636" opacity="0.7"/>
  <rect class="p0" x="784" y="72" width="7" height="7" rx="2" fill="#238636" opacity="0.7"/>
  <rect class="p0" x="952" y="72" width="7" height="7" rx="2" fill="#238636" opacity="0.7"/>
  <rect class="p0" x="224" y="80" width="7" height="7" rx="2" fill="#238636" opacity="0.7"/>
  <rect class="p0" x="264" y="80" width="7" height="7" rx="2" fill="#238636" opacity="0.7"/>
  <rect class="p0" x="368" y="80" width="7" height="7" rx="2" fill="#238636" opacity="0.7"/>
  <rect class="p0" x="400" y="80" width="7" height="7" rx="2" fill="#238636" opacity="0.7"/>
  <rect class="p0" x="552" y="80" width="7" height="7" rx="2" fill="#238636" opacity="0.7"/>
  <rect class="p0" x="696" y="80" width="7" height="7" rx="2" fill="#238636" opacity="0.7"/>
  <rect class="p0" x="904" y="80" width="7" height="7" rx="2" fill="#238636" opacity="0.7"/>
  <rect class="p0" x="56" y="88" width="7" height="7" rx="2" fill="#238636" opacity="0.7"/>
  <rect class="p0" x="440" y="88" width="7" height="7" rx="2" fill="#238636" opacity="0.7"/>
  <rect class="p0" x="488" y="88" width="7" height="7" rx="2" fill="#238636" opacity="0.7"/>
  <rect class="p0" x="520" y="88" width="7" height="7" rx="2" fill="#238636" opacity="0.7"/>
  <rect class="p0" x="672" y="88" width="7" height="7" rx="2" fill="#238636" opacity="0.7"/>
  <rect class="p0" x="776" y="88" width="7" height="7" rx="2" fill="#238636" opacity="0.7"/>
  <rect class="p0" x="872" y="88" width="7" height="7" rx="2" fill="#238636" opacity="0.7"/>
  <rect class="p0" x="912" y="88" width="7" height="7" rx="2" fill="#238636" opacity="0.7"/>
  <rect class="p0" x="928" y="88" width="7" height="7" rx="2" fill="#238636" opacity="0.7"/>
  <rect class="p1" x="144" y="0" width="7" height="7" rx="2" fill="#238636" opacity="0.7"/>
  <rect class="p1" x="536" y="8" width="7" height="7" rx="2" fill="#238636" opacity="0.7"/>
  <rect class="p1" x="536" y="16" width="7" height="7" rx="2" fill="#238636" opacity="0.7"/>
  <rect class="p1" x="168" y="64" width="7" height="7" rx="2" fill="#238636" opacity="0.7"/>
  <rect class="p2" x="176" y="0" width="7" height="7" rx="2" fill="#238636" opacity="0.7"/>
  <rect class="p3" x="496" y="0" width="7" height="7" rx="2" fill="#238636" opacity="0.7"/>
  <rect class="p3" x="880" y="0" width="7" height="7" rx="2" fill="#238636" opacity="0.7"/>
  <rect class="p3" x="608" y="8" width="7" height="7" rx="2" fill="#238636" opacity="0.7"/>
  <rect class="p3" x="88" y="40" width="7" height="7" rx="2" fill="#238636" opacity="0.7"/>
  <rect class="p3" x="560" y="40" width="7" height="7" rx="2" fill="#238636" opacity="0.7"/>
  <rect class="p3" x="536" y="48" width="7" height="7" rx="2" fill="#238636" opacity="0.7"/>
  <rect class="p3" x="544" y="48" width="7" height="7" rx="2" fill="#238636" opacity="0.7"/>
  <rect class="p3" x="784" y="56" width="7" height="7" rx="2" fill="#238636" opacity="0.7"/>
  <rect class="p3" x="752" y="64" width="7" height="7" rx="2" fill="#238636" opacity="0.7"/>
  <rect class="p4" x="936" y="24" width="7" height="7" rx="2" fill="#238636" opacity="0.7"/>
  <rect class="p5" x="952" y="24" width="7" height="7" rx="2" fill="#238636" opacity="0.7"/>
  <rect class="p6" x="560" y="32" width="7" height="7" rx="2" fill="#238636" opacity="0.7"/>
  <rect class="p7" x="944" y="32" width="7" height="7" rx="2" fill="#238636" opacity="0.7"/>
  <rect class="p7" x="568" y="40" width="7" height="7" rx="2" fill="#238636" opacity="0.7"/>
  <rect class="p7" x="544" y="64" width="7" height="7" rx="2" fill="#238636" opacity="0.7"/>
  <rect class="p8" x="232" y="40" width="7" height="7" rx="2" fill="#238636" opacity="0.7"/>
  <rect class="p8" x="240" y="40" width="7" height="7" rx="2" fill="#238636" opacity="0.7"/>
  <rect class="p8" x="232" y="48" width="7" height="7" rx="2" fill="#238636" opacity="0.7"/>
  <rect class="p8" x="288" y="48" width="7" height="7" rx="2" fill="#238636" opacity="0.7"/>
  <rect class="p8" x="296" y="48" width="7" height="7" rx="2" fill="#238636" opacity="0.7"/>
  <rect class="p8" x="288" y="56" width="7" height="7" rx="2" fill="#238636" opacity="0.7"/>
  <rect class="p8" x="688" y="72" width="7" height="7" rx="2" fill="#238636" opacity="0.7"/>
  <rect class="p8" x="144" y="88" width="7" height="7" rx="2" fill="#238636" opacity="0.7"/>
  <rect class="p9" x="936" y="40" width="7" height="7" rx="2" fill="#238636" opacity="0.7"/>
  <rect class="p9" x="144" y="80" width="7" height="7" rx="2" fill="#238636" opacity="0.7"/>
  <rect class="p9" x="168" y="80" width="7" height="7" rx="2" fill="#238636" opacity="0.7"/>
  <rect class="p10" x="80" y="48" width="7" height="7" rx="2" fill="#238636" opacity="0.7"/>
  <rect class="p10" x="536" y="64" width="7" height="7" rx="2" fill="#238636" opacity="0.7"/>
  <rect class="p11" x="88" y="56" width="7" height="7" rx="2" fill="#238636" opacity="0.7"/>
  <rect class="p12" x="544" y="56" width="7" height="7" rx="2" fill="#238636" opacity="0.7"/>
  <rect class="p13" x="168" y="72" width="7" height="7" rx="2" fill="#238636" opacity="0.7"/>
  <rect class="p14" x="184" y="72" width="7" height="7" rx="2" fill="#238636" opacity="0.7"/>
  <rect class="p15" x="680" y="72" width="7" height="7" rx="2" fill="#238636" opacity="0.7"/>
  <rect class="p16" x="192" y="80" width="7" height="7" rx="2" fill="#238636" opacity="0.7"/>
  <rect class="p17" x="192" y="88" width="7" height="7" rx="2" fill="#238636" opacity="0.7"/>
  <rect class="p18" x="184" y="0" width="7" height="7" rx="2" fill="#238636" opacity="0.7"/>
  <rect class="p19" x="488" y="0" width="7" height="7" rx="2" fill="#238636" opacity="0.7"/>
  <rect class="p19" x="608" y="0" width="7" height="7" rx="2" fill="#238636" opacity="0.7"/>
  <rect class="p19" x="872" y="0" width="7" height="7" rx="2" fill="#238636" opacity="0.7"/>
  <rect class="p19" x="528" y="8" width="7" height="7" rx="2" fill="#238636" opacity="0.7"/>
  <rect class="p19" x="528" y="16" width="7" height="7" rx="2" fill="#238636" opacity="0.7"/>
  <rect class="p19" x="544" y="16" width="7" height="7" rx="2" fill="#238636" opacity="0.7"/>
  <rect class="p19" x="552" y="32" width="7" height="7" rx="2" fill="#238636" opacity="0.7"/>
  <rect class="p19" x="376" y="40" width="7" height="7" rx="2" fill="#238636" opacity="0.7"/>
  <rect class="p19" x="552" y="40" width="7" height="7" rx="2" fill="#238636" opacity="0.7"/>
  <rect class="p19" x="552" y="48" width="7" height="7" rx="2" fill="#238636" opacity="0.7"/>
  <rect class="p19" x="784" y="48" width="7" height="7" rx="2" fill="#238636" opacity="0.7"/>
  <rect class="p19" x="944" y="48" width="7" height="7" rx="2" fill="#238636" opacity="0.7"/>
  <rect class="p19" x="944" y="56" width="7" height="7" rx="2" fill="#238636" opacity="0.7"/>
  <rect class="p19" x="176" y="64" width="7" height="7" rx="2" fill="#238636" opacity="0.7"/>
  <rect class="p19" x="160" y="72" width="7" height="7" rx="2" fill="#238636" opacity="0.7"/>
  <rect class="p19" x="752" y="72" width="7" height="7" rx="2" fill="#238636" opacity="0.7"/>
  <rect class="p19" x="152" y="88" width="7" height="7" rx="2" fill="#238636" opacity="0.7"/>
  <rect class="p20" x="944" y="16" width="7" height="7" rx="2" fill="#238636" opacity="0.7"/>
  <rect class="p20" x="88" y="48" width="7" height="7" rx="2" fill="#238636" opacity="0.7"/>
  <rect class="p21" x="560" y="24" width="7" height="7" rx="2" fill="#238636" opacity="0.7"/>
  <rect class="p21" x="936" y="32" width="7" height="7" rx="2" fill="#238636" opacity="0.7"/>
  <rect class="p21" x="80" y="40" width="7" height="7" rx="2" fill="#238636" opacity="0.7"/>
  <rect class="p21" x="544" y="72" width="7" height="7" rx="2" fill="#238636" opacity="0.7"/>
  <rect class="p22" x="944" y="24" width="7" height="7" rx="2" fill="#238636" opacity="0.7"/>
  <rect class="p23" x="568" y="32" width="7" height="7" rx="2" fill="#238636" opacity="0.7"/>
  <rect class="p24" x="96" y="48" width="7" height="7" rx="2" fill="#238636" opacity="0.7"/>
  <rect class="p25" x="240" y="48" width="7" height="7" rx="2" fill="#238636" opacity="0.7"/>
  <rect class="p25" x="296" y="56" width="7" height="7" rx="2" fill="#238636" opacity="0.7"/>
  <rect class="p25" x="680" y="80" width="7" height="7" rx="2" fill="#238636" opacity="0.7"/>
  <rect class="p25" x="688" y="80" width="7" height="7" rx="2" fill="#238636" opacity="0.7"/>
  <rect class="p26" x="552" y="56" width="7" height="7" rx="2" fill="#238636" opacity="0.7"/>
  <rect class="p26" x="184" y="80" width="7" height="7" rx="2" fill="#238636" opacity="0.7"/>
  <rect class="p27" x="176" y="80" width="7" height="7" rx="2" fill="#238636" opacity="0.7"/>
  <rect class="p28" x="136" y="88" width="7" height="7" rx="2" fill="#238636" opacity="0.7"/>
  <rect class="p29" x="184" y="88" width="7" height="7" rx="2" fill="#238636" opacity="0.7"/>
  <rect class="p30" x="568" y="24" width="7" height="7" rx="2" fill="#238636" opacity="0.7"/>
  <rect class="p30" x="96" y="40" width="7" height="7" rx="2" fill="#238636" opacity="0.7"/>
  <rect class="p31" x="944" y="40" width="7" height="7" rx="2" fill="#238636" opacity="0.7"/>
  <rect class="p31" x="536" y="72" width="7" height="7" rx="2" fill="#238636" opacity="0.7"/>
  <rect class="p31" x="160" y="80" width="7" height="7" rx="2" fill="#238636" opacity="0.7"/>
  <rect class="p32" x="552" y="64" width="7" height="7" rx="2" fill="#238636" opacity="0.7"/>
  <rect class="p33" x="152" y="80" width="7" height="7" rx="2" fill="#238636" opacity="0.7"/>
  <rect class="p34" x="152" y="72" width="7" height="7" rx="2" fill="#238636" opacity="0.7"/>
  <rect class="p35" x="552" y="72" width="7" height="7" rx="2" fill="#238636" opacity="0.7"/>
  <rect class="p35" x="160" y="88" width="7" height="7" rx="2" fill="#238636" opacity="0.7"/>
  <rect class="p36" x="168" y="88" width="7" height="7" rx="2" fill="#238636" opacity="0.7"/>
  <rect class="p37" x="176" y="88" width="7" height="7" rx="2" fill="#238636" opacity="0.7"/>
  <rect class="p38" x="168" y="0" width="7" height="7" rx="2" fill="#238636" opacity="0.7"/>
  <rect class="p38" x="952" y="32" width="7" height="7" rx="2" fill="#238636" opacity="0.7"/>
  <rect class="p38" x="560" y="64" width="7" height="7" rx="2" fill="#238636" opacity="0.7"/>
  <rect class="p39" x="144" y="72" width="7" height="7" rx="2" fill="#238636" opacity="0.7"/>
  <rect class="p39" x="136" y="80" width="7" height="7" rx="2" fill="#238636" opacity="0.7"/>
</svg>