<svg width="100%" height="96" viewBox="0 0 960 96" xmlns="http://www.w3.org/2000/svg">
  <rect width="960" height="96" fill="#0d1117"/>
  <style>
    @keyframes p0 {
      0% { opacity: 1; }
    }
    .p0 { animation: p0 7.5s steps(1) infinite; opacity: 1; }
    @keyframes p1 {
      0% { opacity: 1; }
      4% { opacity: 0; }
      100% { opacity: 1; }
    }
    .p1 { animation: p1 7.5s steps(1) infinite; opacity: 1; }
    @keyframes p2 {
      0% { opacity: 1; }
      12% { opacity: 0; }
      100% { opacity: 1; }
    }
    .p2 { animation: p2 7.5s steps(1) infinite; opacity: 1; }
    @keyframes p3 {
      0% { opacity: 1; }
      8% { opacity: 0; }
      100% { opacity: 1; }
    }
    .p3 { animation: p3 7.5s steps(1) infinite; opacity: 1; }
    @keyframes p4 {
      0% { opacity: 1; }
      4% { opacity: 0; }
      8% { opacity: 1; }
      12% { opacity: 0; }
      16% { opacity: 1; }
      20% { opacity: 0; }
      24% { opacity: 1; }
      28% { opacity: 0; }
      32% { opacity: 1; }
      36% { opacity: 0; }
      40% { opacity: 1; }
      44% { opacity: 0; }
      48% { opacity: 1; }
      52% { opacity: 0; }
      56% { opacity: 1; }
      60% { opacity: 0; }
      64% { opacity: 1; }
      68% { opacity: 0; }
      72% { opacity: 1; }
      76% { opacity: 0; }
      80% { opacity: 1; }
      84% { opacity: 0; }
      88% { opacity: 1; }
      92% { opacity: 0; }
      96% { opacity: 1; }
    }
    .p4 { animation: p4 7.5s steps(1) infinite; opacity: 1; }
    @keyframes p5 {
      0% { opacity: 1; }
      8% { opacity: 0; }
      12% { opacity: 1; }
      16% { opacity: 0; }
      100% { opacity: 1; }
    }
    .p5 { animation: p5 7.5s steps(1) infinite; opacity: 1; }
    @keyframes p6 {
      0% { opacity: 1; }
      4% { opacity: 0; }
      12% { opacity: 1; }
      16% { opacity: 0; }
      100% { opacity: 1; }
    }
    .p6 { animation: p6 7.5s steps(1) infinite; opacity: 1; }
    @keyframes p7 {
      0% { opacity: 1; }
      20% { opacity: 0; }
      100% { opacity: 1; }
    }
    .p7 { animation: p7 7.5s steps(1) infinite; opacity: 1; }
    @keyframes p8 {
      0% { opacity: 0; }
      4% { opacity: 1; }
      100% { opacity: 0; }
    }
    .p8 { animation: p8 7.5s steps(1) infinite; opacity: 0; }
    @keyframes p9 {
      0% { opacity: 0; }
      4% { opacity: 1; }
      12% { opacity: 0; }
    }
    .p9 { animation: p9 7.5s steps(1) infinite; opacity: 0; }
    @keyframes p10 {
      0% { opacity: 0; }
      4% { opacity: 1; }
      8% { opacity: 0; }
    }
    .p10 { animation: p10 7.5s steps(1) infinite; opacity: 0; }
    @keyframes p11 {
      0% { opacity: 0; }
      4% { opacity: 1; }
      8% { opacity: 0; }
      12% { opacity: 1; }
      16% { opacity: 0; }
      20% { opacity: 1; }
      24% { opacity: 0; }
      28% { opacity: 1; }
      32% { opacity: 0; }
      36% { opacity: 1; }
      40% { opacity: 0; }
      44% { opacity: 1; }
      48% { opacity: 0; }
      52% { opacity: 1; }
      56% { opacity: 0; }
      60% { opacity: 1; }
      64% { opacity: 0; }
      68% { opacity: 1; }
      72% { opacity: 0; }
      76% { opacity: 1; }
      80% { opacity: 0; }
      84% { opacity: 1; }
      88% { opacity: 0; }
      92% { opacity: 1; }
      96% { opacity: 0; }
    }
    .p11 { animation: p11 7.5s steps(1) infinite; opacity: 0; }
    @keyframes p12 {
      0% { opacity: 0; }
      4% { opacity: 1; }
      16% { opacity: 0; }
    }
    .p12 { animation: p12 7.5s steps(1) infinite; opacity: 0; }
    @keyframes p13 {
      0% { opacity: 0; }
      4% { opacity: 1; }
      12% { opacity: 0; }
      16% { opacity: 1; }
      20% { opacity: 0; }
    }
    .p13 { animation: p13 7.5s steps(1) infinite; opacity: 0; }
    @keyframes p14 {
      0% { opacity: 0; }
      8% { opacity: 1; }
      12% { opacity: 0; }
    }
    .p14 { animation: p14 7.5s steps(1) infinite; opacity: 0; }
    @keyframes p15 {
      0% { opacity: 0; }
      8% { opacity: 1; }
      20% { opacity: 0; }
    }
    .p15 { animation: p15 7.5s steps(1) infinite; opacity: 0; }
    @keyframes p16 {
      0% { opacity: 0; }
      8% { opacity: 1; }
      16% { opacity: 0; }
    }
    .p16 { animation: p16 7.5s steps(1) infinite; opacity: 0; }
    @keyframes p17 {
      0% { opacity: 0; }
      8% { opacity: 1; }
      100% { opacity: 0; }
    }
    .p17 { animation: p17 7.5s steps(1) infinite; opacity: 0; }
    @keyframes p18 {
      0% { opacity: 0; }
      12% { opacity: 1; }
      16% { opacity: 0; }
    }
    .p18 { animation: p18 7.5s steps(1) infinite; opacity: 0; }
    @keyframes p19 {
      0% { opacity: 0; }
      16% { opacity: 1; }
      20% { opacity: 0; }
    }
    .p19 { animation: p19 7.5s steps(1) infinite; opacity: 0; }
  </style>
  <rect class="p0" x="96" y="0" width="7" height="7" rx="2" fill="#238636" opacity="0.7"/>
  <rect class="p0" x="944" y="16" width="7" height="7" rx="2" fill="#238636" opacity="0.7"/>
  <rect class="p0" x="88" y="88" width="7" height="7" rx="2" fill="#238636" opacity="0.7"/>
  <rect class="p1" x="144" y="0" width="7" height="7" rx="2" fill="#238636" opacity="0.7"/>
  <rect class="p1" x="160" y="0" width="7" height="7" rx="2" fill="#238636" opacity="0.7"/>
  <rect class="p1" x="264" y="0" width="7" height="7" rx="2" fill="#238636" opacity="0.7"/>
  <rect class="p1" x="352" y="0" width="7" height="7" rx="2" fill="#238636" opacity="0.7"/>
  <rect class="p1" x="464" y="0" width="7" height="7" rx="2" fill="#238636" opacity="0.7"/>
  <rect class="p1" x="576" y="0" width="7" height="7" rx="2" fill="#238636" opacity="0.7"/>
  <rect class="p1" x="88" y="8" width="7" height="7" rx="2" fill="#238636" opacity="0.7"/>
  <rect class="p1" x="128" y="8" width="7" height="7" rx="2" fill="#238636" opacity="0.7"/>
  <rect class="p1" x="312" y="8" width="7" height="7" rx="2" fill="#238636" opacity="0.7"/>
  <rect class="p1" x="344" y="8" width="7" height="7" rx="2" fill="#238636" opacity="0.7"/>
  <rect class="p1" x="736" y="8" width="7" height="7" rx="2" fill="#238636" opacity="0.7"/>
  <rect class="p1" x="784" y="8" width="7" height="7" rx="2" fill="#238636" opacity="0.7"/>
  <rect class="p1" x="792" y="8" width="7" height="7" rx="2" fill="#238636" opacity="0.7"/>
  <rect class="p1" x="848" y="8" width="7" height="7" rx="2" fill="#238636" opacity="0.7"/>
  <rect class="p1" x="872" y="8" width="7" height="7" rx="2" fill="#238636" opacity="0.7"/>
  <rect class="p1" x="896" y="8" width="7" height="7" rx="2" fill="#238636" opacity="0.7"/>
  <rect class="p1" x="920" y="8" width="7" height="7" rx="2" fill="#238636" opacity="0.7"/>
  <rect class="p1" x="232" y="16" width="7" height="7" rx="2" fill="#238636" opacity="0.7"/>
  <rect class="p1" x="376" y="16" width="7" height="7" rx="2" fill="#238636" opacity="0.7"/>
  <rect class="p1" x="416" y="16" width="7" height="7" rx="2" fill="#238636" opacity="0.7"/>
  <rect class="p1" x="528" y="16" width="7" height="7" rx="2" fill="#238636" opacity="0.7"/>
  <rect class="p1" x="576" y="16" width="7" height="7" rx="2" fill="#238636" opacity="0.7"/>
  <rect class="p1" x="720" y="16" width="7" height="7" rx="2" fill="#238636" opacity="0.7"/>
  <rect class="p1" x="832" y="16" width="7" height="7" rx="2" fill="#238636" opacity="0.7"/>
  <rect class="p1" x="904" y="16" width="7" height="7" rx="2" fill="#238636" opacity="0.7"/>
  <rect class="p1" x="16" y="24" width="7" height="7" rx="2" fill="#238636" opacity="0.7"/>
  <rect class="p1" x="448" y="24" width="7" height="7" rx="2" fill="#238636" opacity="0.7"/>
  <rect class="p1" x="456" y="24" width="7" height="7" rx="2" fill="#238636" opacity="0.7"/>
  <rect class="p1" x="512" y="24" width="7" height="7" rx="2" fill="#238636" opacity="0.7"/>
  <rect class="p1" x="616" y="24" width="7" height="7" rx="2" fill="#238636" opacity="0.7"/>
  <rect class="p1" x="760" y="24" width="7" height="7" rx="2" fill="#238636" opacity="0.7"/>
  <rect class="p1" x="824" y="24" width="7" height="7" rx="2" fill="#238636" opacity="0.7"/>
  <rect class="p1" x="56" y="32" width="7" height="7" rx="2" fill="#238636" opacity="0.7"/>
  <rect class="p1" x="128" y="32" width="7" height="7" rx="2" fill="#238636" opacity="0.7"/>
  <rect class="p1" x="472" y="32" width="7" height="7" rx="2" fill="#238636" opacity="0.7"/>
  <rect class="p1" x="648" y="32" width="7" height="7" rx="2" fill="#238636" opacity="0.7"/>
  <rect class="p1" x="800" y="32" width="7" height="7" rx="2" fill="#238636" opacity="0.7"/>
  <rect class="p1" x="856" y="32" width="7" height="7" rx="2" fill="#238636" opacity="0.7"/>
  <rect class="p1" x="888" y="32" width="7" height="7" rx="2" fill="#238636" opacity="0.7"/>
  <rect class="p1" x="920" y="32" width="7" height="7" rx="2" fill="#238636" opacity="0.7"/>
  <rect class="p1" x="8" y="40" width="7" height="7" rx="2" fill="#238636" opacity="0.7"/>
  <rect class="p1" x="240" y="40" width="7" height="7" rx="2" fill="#238636" opacity="0.7"/>
  <rect class="p1" x="296" y="40" width="7" height="7" rx="2" fill="#238636" opacity="0.7"/>
  <rect class="p1" x="368" y="40" width="7" height="7" rx="2" fill="#238636" opacity="0.7"/>
  <rect class="p1" x="376" y="40" width="7" height="7" rx="2" fill="#238636" opacity="0.7"/>
  <rect class="p1" x="464" y="40" width="7" height="7" rx="2" fill="#238636" opacity="0.7"/>
  <rect class="p1" x="488" y="40" width="7" height="7" rx="2" fill="#238636" opacity="0.7"/>
  <rect class="p1" x="736" y="40" width="7" height="7" rx="2" fill="#238636" opacity="0.7"/>
  <rect class="p1" x="800" y="40" width="7" height="7" rx="2" fill="#238636" opacity="0.7"/>
  <rect class="p1" x="824" y="40" width="7" height="7" rx="2" fill="#238636" opacity="0.7"/>
  <rect class="p1" x="848" y="40" width="7" height="7" rx="2" fill="#238636" opacity="0.7"/>
  <rect class="p1" x="928" y="40" width="7" height="7" rx="2" fill="#238636" opacity="0.7"/>
  <rect class="p1" x="96" y="48" width="7" height="7" rx="2" fill="#238636" opacity="0.7"/>
  <rect class="p1" x="136" y="48" width="7" height="7" rx="2" fill="#238636" opacity="0.7"/>
  <rect class="p1" x="208" y="48" width="7" height="7" rx="2" fill="#238636" opacity="0.7"/>
  <rect class="p1" x="256" y="48" width="7" height="7" rx="2" fill="#238636" opacity="0.7"/>
  <rect class="p1" x="320" y="48" width="7" height="7" rx="2" fill="#238636" opacity="0.7"/>
  <rect class="p1" x="392" y="48" width="7" height="7" rx="2" fill="#238636" opacity="0.7"/>
  <rect class="p1" x="624" y="48" width="7" height="7" rx="2" fill="#238636" opacity="0.7"/>
  <rect class="p1" x="648" y="48" width="7" height="7" rx="2" fill="#238636" opacity="0.7"/>
  <rect class="p1" x="720" y="48" width="7" height="7" rx="2" fill="#238636" opacity="0.7"/>
  <rect class="p1" x="864" y="48" width="7" height="7" rx="2" fill="#238636" opacity="0.7"/>
  <rect class="p1" x="872" y="48" width="7" height="7" rx="2" fill="#238636" opacity="0.7"/>
  <rect class="p1" x="64" y="56" width="7" height="7" rx="2" fill="#238636" opacity="0.7"/>
  <rect class="p1" x="248" y="56" width="7" height="7" rx="2" fill="#238636" opacity="0.7"/>
  <rect class="p1" x="272" y="56" width="7" height="7" rx="2" fill="#238636" opacity="0.7"/>
  <rect class="p1" x="328" y="56" width="7" height="7" rx="2" fill="#238636" opacity="0.7"/>
  <rect class="p1" x="344" y="56" width="7" height="7" rx="2" fill="#238636" opacity="0.7"/>
  <rect class="p1" x="368" y="56" width="7" height="7" rx="2" fill="#238636" opacity="0.7"/>
  <rect class="p1" x="416" y="56" width="7" height="7" rx="2" fill="#238636" opacity="0.7"/>
  <rect class="p1" x="592" y="56" width="7" height="7" rx="2" fill="#238636" opacity="0.7"/>
  <rect class="p1" x="888" y="56" width="7" height="7" rx="2" fill="#238636" opacity="0.7"/>
  <rect class="p1" x="936" y="56" width="7" height="7" rx="2" fill="#238636" opacity="0.7"/>
  <rect class="p1" x="144" y="64" width="7" height="7" rx="2" fill="#238636" opacity="0.7"/>
  <rect class="p1" x="152" y="64" width="7" height="7" rx="2" fill="#238636" opacity="0.7"/>
  <rect class="p1" x="208" y="64" width="7" height="7" rx="2" fill="#238636" opacity="0.7"/>
  <rect class="p1" x="232" y="64" width="7" height="7" rx="2" fill="#238636" opacity="0.7"/>
  <rect class="p1" x="368" y="64" width="7" height="7" rx="2" fill="#238636" opacity="0.7"/>
  <rect class="p1" x="552" y="64" width="7" height="7" rx="2" fill="#238636" opacity="0.7"/>
  <rect class="p1" x="616" y="64" width="7" height="7" rx="2" fill="#238636" opacity="0.7"/>
  <rect class="p1" x="640" y="64" width="7" height="7" rx="2" fill="#238636" opacity="0.7"/>
  <rect class="p1" x="736" y="64" width="7" height="7" rx="2" fill="#238636" opacity="0.7"/>
  <rect class="p1" x="904" y="64" width="7" height="7" rx="2" fill="#238636" opacity="0.7"/>
  <rect class="p1" x="64" y="72" width="7" height="7" rx="2" fill="#238636" opacity="0.7"/>
  <rect class="p1" x="224" y="72" width="7" height="7" rx="2" fill="#238636" opacity="0.7"/>
  <rect class="p1" x="456" y="72" width="7" height="7" rx="2" fill="#238636" opacity="0.7"/>
  <rect class="p1" x="488" y="72" width="7" height="7" rx="2" fill="#238636" opacity="0.7"/>
  <rect class="p1" x="816" y="72" width="7" height="7" rx="2" fill="#238636" opacity="0.7"/>
  <rect class="p1" x="848" y="72" width="7" height="7" rx="2" fill="#238636" opacity="0.7"/>
  <rect class="p1" x="16" y="80" width="7" height="7" rx="2" fill="#238636" opacity="0.7"/>
  <rect class="p1" x="80" y="80" width="7" height="7" rx="2" fill="#238636" opacity="0.7"/>
  <rect class="p1" x="136" y="80" width="7" height="7" rx="2" fill="#238636" opacity="0.7"/>
  <rect class="p1" x="328" y="80" width="7" height="7" rx="2" fill="#238636" opacity="0.7"/>
  <rect class="p1" x="368" y="80" width="7" height="7" rx="2" fill="#238636" opacity="0.7"/>
  <rect class="p1" x="536" y="80" width="7" height="7" rx="2" fill="#238636" opacity="0.7"/>
  <rect class="p1" x="600" y="80" width="7" height="7" rx="2" fill="#238636" opacity="0.7"/>
  <rect class="p1" x="808" y="80" width="7" height="7" rx="2" fill="#238636" opacity="0.7"/>
  <rect class="p1" x="880" y="80" width="7" height="7" rx="2" fill="#238636" opacity="0.7"/>
  <rect class="p1" x="392" y="88" width="7" height="7" rx="2" fill="#238636" opacity="0.7"/>
  <rect class="p1" x="480" y="88" width="7" height="7" rx="2" fill="#238636" opacity="0.7"/>
  <rect class="p1" x="544" y="88" width="7" height="7" rx="2" fill="#238636" opacity="0.7"/>
  <rect class="p1" x="584" y="88" width="7" height="7" rx="2" fill="#238636" opacity="0.7"/>
  <rect class="p1" x="720" y="88" width="7" height="7" rx="2" fill="#238636" opacity="0.7"/>
  <rect class="p1" x="792" y="88" width="7" height="7" rx="2" fill="#238636" opacity="0.7"/>
  <rect class="p1" x="896" y="88" width="7" height="7" rx="2" fill="#238636" opacity="0.7"/>
  <rect class="p2" x="712" y="0" width="7" height="7" rx="2" fill="#238636" opacity="0.7"/>
  <rect class="p2" x="56" y="24" width="7" height="7" rx="2" fill="#238636" opacity="0.7"/>
  <rect class="p2" x="56" y="40" width="7" height="7" rx="2" fill="#238636" opacity="0.7"/>
  <rect class="p2" x="760" y="48" width="7" height="7" rx="2" fill="#238636" opacity="0.7"/>
  <rect class="p3" x="712" y="8" width="7" height="7" rx="2" fill="#238636" opacity="0.7"/>
  <rect class="p3" x="696" y="24" width="7" height="7" rx="2" fill="#238636" opacity="0.7"/>
  <rect class="p3" x="704" y="32" width="7" height="7" rx="2" fill="#238636" opacity="0.7"/>
  <rect class="p3" x="752" y="48" width="7" height="7" rx="2" fill="#238636" opacity="0.7"/>
  <rect class="p3" x="752" y="56" width="7" height="7" rx="2" fill="#238636" opacity="0.7"/>
  <rect class="p4" x="936" y="16" width="7" height="7" rx="2" fill="#238636" opacity="0.7"/>
  <rect class="p4" x="952" y="16" width="7" height="7" rx="2" fill="#238636" opacity="0.7"/>
  <rect class="p5" x="704" y="24" width="7" height="7" rx="2" fill="#238636" opacity="0.7"/>
  <rect class="p6" x="48" y="32" width="7" height="7" rx="2" fill="#238636" opacity="0.7"/>
  <rect class="p7" x="48" y="40" width="7" height="7" rx="2" fill="#238636" opacity="0.7"/>
  <rect class="p7" x="744" y="56" width="7" height="7" rx="2" fill="#238636" opacity="0.7"/>
  <rect class="p8" x="88" y="0" width="7" height="7" rx="2" fill="#238636" opacity="0.7"/>
  <rect class="p9" x="720" y="0" width="7" height="7" rx="2" fill="#238636" opacity="0.7"/>
  <rect class="p9" x="696" y="32" width="7" height="7" rx="2" fill="#238636" opacity="0.7"/>
  <rect class="p9" x="56" y="48" width="7" height="7" rx="2" fill="#238636" opacity="0.7"/>
  <rect class="p9" x="760" y="56" width="7" height="7" rx="2" fill="#238636" opacity="0.7"/>
  <rect class="p10" x="784" y="0" width="7" height="7" rx="2" fill="#238636" opacity="0.7"/>
  <rect class="p10" x="792" y="0" width="7" height="7" rx="2" fill="#238636" opacity="0.7"/>
  <rect class="p10" x="720" y="8" width="7" height="7" rx="2" fill="#238636" opacity="0.7"/>
  <rect class="p10" x="704" y="16" width="7" height="7" rx="2" fill="#238636" opacity="0.7"/>
  <rect class="p10" x="712" y="16" width="7" height="7" rx="2" fill="#238636" opacity="0.7"/>
  <rect class="p10" x="48" y="24" width="7" height="7" rx="2" fill="#238636" opacity="0.7"/>
  <rect class="p10" x="712" y="24" width="7" height="7" rx="2" fill="#238636" opacity="0.7"/>
  <rect class="p10" x="456" y="32" width="7" height="7" rx="2" fill="#238636" opacity="0.7"/>
  <rect class="p10" x="464" y="32" width="7" height="7" rx="2" fill="#238636" opacity="0.7"/>
  <rect class="p10" x="856" y="40" width="7" height="7" rx="2" fill="#238636" opacity="0.7"/>
  <rect class="p10" x="864" y="40" width="7" height="7" rx="2" fill="#238636" opacity="0.7"/>
  <rect class="p10" x="248" y="48" width="7" height="7" rx="2" fill="#238636" opacity="0.7"/>
  <rect class="p10" x="368" y="48" width="7" height="7" rx="2" fill="#238636" opacity="0.7"/>
  <rect class="p10" x="376" y="48" width="7" height="7" rx="2" fill="#238636" opacity="0.7"/>
  <rect class="p10" x="144" y="56" width="7" height="7" rx="2" fill="#238636" opacity="0.7"/>
  <rect class="p10" x="144" y="72" width="7" height="7" rx="2" fill="#238636" opacity="0.7"/>
  <rect class="p11" x="944" y="8" width="7" height="7" rx="2" fill="#238636" opacity="0.7"/>
  <rect class="p11" x="944" y="24" width="7" height="7" rx="2" fill="#238636" opacity="0.7"/>
  <rect class="p12" x="64" y="32" width="7" height="7" rx="2" fill="#238636" opacity="0.7"/>
  <rect class="p13" x="744" y="64" width="7" height="7" rx="2" fill="#238636" opacity="0.7"/>
  <rect class="p14" x="696" y="16" width="7" height="7" rx="2" fill="#238636" opacity="0.7"/>
  <rect class="p14" x="712" y="32" width="7" height="7" rx="2" fill="#238636" opacity="0.7"/>
  <rect class="p14" x="744" y="48" width="7" height="7" rx="2" fill="#238636" opacity="0.7"/>
  <rect class="p15" x="64" y="40" width="7" height="7" rx="2" fill="#238636" opacity="0.7"/>
  <rect class="p16" x="48" y="48" width="7" height="7" rx="2" fill="#238636" opacity="0.7"/>
  <rect class="p17" x="96" y="88" width="7" height="7" rx="2" fill="#238636" opacity="0.7"/>
  <rect class="p18" x="64" y="48" width="7" height="7" rx="2" fill="#238636" opacity="0.7"/>
  <rect class="p18" x="736" y="56" width="7" height="7" rx="2" fill="#238636" opacity="0.7"/>
  <rect class="p18" x="752" y="64" width="7" height="7" rx="2" fill="#238636" opacity="0.7"/>
  <rect class="p19" x="40" y="40" width="7" height="7" rx="2" fill="#238636" opacity="0.7"/>
  <rect class="p19" x="72" y="40" width="7" height="7" rx="2" fill="#238636" opacity="0.7"/>
</svg>