<svg width="100%" height="96" viewBox="0 0 960 96" xmlns="http://www.w3.org/2000/svg">
  <rect width="960" height="96" fill="#0d1117"/>
  <style>
    @keyframes p0 {
      0% { opacity: 1; }
      4% { opacity: 0; }
      100% { opacity: 1; }
    }
    .p0 { animation: p0 7.5s steps(1) infinite; opacity: 1; }
    @keyframes p1 {
      0% { opacity: 1; }
      12% { opacity: 0; }
      16% { opacity: 1; }
    }
    .p1 { animation: p1 7.5s steps(1) infinite; opacity: 1; }
    @keyframes p2 {
      0% { opacity: 1; }
      4% { opacity: 0; }
      8% { opacity: 1; }
    }
    .p2 { animation: p2 7.5s steps(1) infinite; opacity: 1; }
    @keyframes p3 {
      0% { opacity: 1; }
    }
    .p3 { animation: p3 7.5s steps(1) infinite; opacity: 1; }
    @keyframes p4 {
      0% { opacity: 1; }
      8% { opacity: 0; }
      100% { opacity: 1; }
    }
    .p4 { animation: p4 7.5s steps(1) infinite; opacity: 1; }
    @keyframes p5 {
      0% { opacity: 1; }
      4% { opacity: 0; }
      12% { opacity: 1; }
      20% { opacity: 0; }
      100% { opacity: 1; }
    }
    .p5 { animation: p5 7.5s steps(1) infinite; opacity: 1; }
    @keyframes p6 {
      0% { opacity: 1; }
      4% { opacity: 0; }
      20% { opacity: 1; }
    }
    .p6 { animation: p6 7.5s steps(1) infinite; opacity: 1; }
    @keyframes p7 {
      0% { opacity: 1; }
      12% { opacity: 0; }
      100% { opacity: 1; }
    }
    .p7 { animation: p7 7.5s steps(1) infinite; opacity: 1; }
    @keyframes p8 {
      0% { opacity: 1; }
      4% { opacity: 0; }
      8% { opacity: 1; }
      12% { opacity: 0; }
      100% { opacity: 1; }
    }
    .p8 { animation: p8 7.5s steps(1) infinite; opacity: 1; }
    @keyframes p9 {
      0% { opacity: 1; }
      16% { opacity: 0; }
      100% { opacity: 1; }
    }
    .p9 { animation: p9 7.5s steps(1) infinite; opacity: 1; }
    @keyframes p10 {
      0% { opacity: 1; }
      8% { opacity: 0; }
      16% { opacity: 1; }
      20% { opacity: 0; }
      100% { opacity: 1; }
    }
    .p10 { animation: p10 7.5s steps(1) infinite; opacity: 1; }
    @keyframes p11 {
      0% { opacity: 1; }
      4% { opacity: 0; }
      12% { opacity: 1; }
      16% { opacity: 0; }
      100% { opacity: 1; }
    }
    .p11 { animation: p11 7.5s steps(1) infinite; opacity: 1; }
    @keyframes p12 {
      0% { opacity: 1; }
      4% { opacity: 0; }
      12% { opacity: 1; }
    }
    .p12 { animation: p12 7.5s steps(1) infinite; opacity: 1; }
    @keyframes p13 {
      0% { opacity: 1; }
      4% { opacity: 0; }
      8% { opacity: 1; }
      12% { opacity: 0; }
      16% { opacity: 1; }
    }
    .p13 { animation: p13 7.5s steps(1) infinite; opacity: 1; }
    @keyframes p14 {
      0% { opacity: 0; }
      4% { opacity: 1; }
      12% { opacity: 0; }
    }
    .p14 { animation: p14 7.5s steps(1) infinite; opacity: 0; }
    @keyframes p15 {
      0% { opacity: 0; }
      4% { opacity: 1; }
      8% { opacity: 0; }
    }
    .p15 { animation: p15 7.5s steps(1) infinite; opacity: 0; }
    @keyframes p16 {
      0% { opacity: 0; }
      4% { opacity: 1; }
      8% { opacity: 0; }
      20% { opacity: 1; }
      100% { opacity: 0; }
    }
    .p16 { animation: p16 7.5s steps(1) infinite; opacity: 0; }
    @keyframes p17 {
      0% { opacity: 0; }
      4% { opacity: 1; }
      20% { opacity: 0; }
    }
    .p17 { animation: p17 7.5s steps(1) infinite; opacity: 0; }
    @keyframes p18 {
      0% { opacity: 0; }
      4% { opacity: 1; }
      100% { opacity: 0; }
    }
    .p18 { animation: p18 7.5s steps(1) infinite; opacity: 0; }
    @keyframes p19 {
      0% { opacity: 0; }
      4% { opacity: 1; }
      8% { opacity: 0; }
      16% { opacity: 1; }
      100% { opacity: 0; }
    }
    .p19 { animation: p19 7.5s steps(1) infinite; opacity: 0; }
    @keyframes p20 {
      0% { opacity: 0; }
      4% { opacity: 1; }
      16% { opacity: 0; }
    }
    .p20 { animation: p20 7.5s steps(1) infinite; opacity: 0; }
    @keyframes p21 {
      0% { opacity: 0; }
      4% { opacity: 1; }
      12% { opacity: 0; }
      16% { opacity: 1; }
      20% { opacity: 0; }
    }
    .p21 { animation: p21 7.5s steps(1) infinite; opacity: 0; }
    @keyframes p22 {
      0% { opacity: 0; }
      4% { opacity: 1; }
      8% { opacity: 0; }
      12% { opacity: 1; }
      16% { opacity: 0; }
    }
    .p22 { animation: p22 7.5s steps(1) infinite; opacity: 0; }
    @keyframes p23 {
      0% { opacity: 0; }
      8% { opacity: 1; }
      20% { opacity: 0; }
    }
    .p23 { animation: p23 7.5s steps(1) infinite; opacity: 0; }
    @keyframes p24 {
      0% { opacity: 0; }
      8% { opacity: 1; }
      100% { opacity: 0; }
    }
    .p24 { animation: p24 7.5s steps(1) infinite; opacity: 0; }
    @keyframes p25 {
      0% { opacity: 0; }
      8% { opacity: 1; }
      12% { opacity: 0; }
    }
    .p25 { animation: p25 7.5s steps(1) infinite; opacity: 0; }
    @keyframes p26 {
      0% { opacity: 0; }
      12% { opacity: 1; }
      16% { opacity: 0; }
      20% { opacity: 1; }
      100% { opacity: 0; }
    }
    .p26 { animation: p26 7.5s steps(1) infinite; opacity: 0; }
    @keyframes p27 {
      0% { opacity: 0; }
      12% { opacity: 1; }
      16% { opacity: 0; }
    }
    .p27 { animation: p27 7.5s steps(1) infinite; opacity: 0; }
    @keyframes p28 {
      0% { opacity: 0; }
      12% { opacity: 1; }
      100% { opacity: 0; }
    }
    .p28 { animation: p28 7.5s steps(1) infinite; opacity: 0; }
    @keyframes p29 {
      0% { opacity: 0; }
      16% { opacity: 1; }
      100% { opacity: 0; }
    }
    .p29 { animation: p29 7.5s steps(1) infinite; opacity: 0; }
  </style>
  <rect class="p0" x="0" y="0" width="7" height="7" rx="2" fill="#238636" opacity="0.7"/>
  <rect class="p0" x="24" y="0" width="7" height="7" rx="2" fill="#238636" opacity="0.7"/>
  <rect class="p0" x="152" y="0" width="7" height="7" rx="2" fill="#238636" opacity="0.7"/>
  <rect class="p0" x="184" y="0" width="7" height="7" rx="2" fill="#238636" opacity="0.7"/>
  <rect class="p0" x="392" y="0" width="7" height="7" rx="2" fill="#238636" opacity="0.7"/>
  <rect class="p0" x="552" y="0" width="7" height="7" rx="2" fill="#238636" opacity="0.7"/>
  <rect class="p0" x="560" y="0" width="7" height="7" rx="2" fill="#238636" opacity="0.7"/>
  <rect class="p0" x="624" y="0" width="7" height="7" rx="2" fill="#238636" opacity="0.7"/>
  <rect class="p0" x="640" y="0" width="7" height="7" rx="2" fill="#238636" opacity="0.7"/>
  <rect class="p0" x="648" y="0" width="7" height="7" rx="2" fill="#238636" opacity="0.7"/>
  <rect class="p0" x="760" y="0" width="7" height="7" rx="2" fill="#238636" opacity="0.7"/>
  <rect class="p0" x="40" y="8" width="7" height="7" rx="2" fill="#238636" opacity="0.7"/>
  <rect class="p0" x="432" y="8" width="7" height="7" rx="2" fill="#238636" opacity="0.7"/>
  <rect class="p0" x="584" y="8" width="7" height="7" rx="2" fill="#238636" opacity="0.7"/>
  <rect class="p0" x="600" y="8" width="7" height="7" rx="2" fill="#238636" opacity="0.7"/>
  <rect class="p0" x="680" y="8" width="7" height="7" rx="2" fill="#238636" opacity="0.7"/>
  <rect class="p0" x="872" y="8" width="7" height="7" rx="2" fill="#238636" opacity="0.7"/>
  <rect class="p0" x="144" y="16" width="7" height="7" rx="2" fill="#238636" opacity="0.7"/>
  <rect class="p0" x="240" y="16" width="7" height="7" rx="2" fill="#238636" opacity="0.7"/>
  <rect class="p0" x="312" y="16" width="7" height="7" rx="2" fill="#238636" opacity="0.7"/>
  <rect class="p0" x="368" y="16" width="7" height="7" rx="2" fill="#238636" opacity="0.7"/>
  <rect class="p0" x="544" y="16" width="7" height="7" rx="2" fill="#238636" opacity="0.7"/>
  <rect class="p0" x="552" y="16" width="7" height="7" rx="2" fill="#238636" opacity="0.7"/>
  <rect class="p0" x="704" y="16" width="7" height="7" rx="2" fill="#238636" opacity="0.7"/>
  <rect class="p0" x="800" y="16" width="7" height="7" rx="2" fill="#238636" opacity="0.7"/>
  <rect class="p0" x="880" y="16" width="7" height="7" rx="2" fill="#238636" opacity="0.7"/>
  <rect class="p0" x="896" y="16" width="7" height="7" rx="2" fill="#238636" opacity="0.7"/>
  <rect class="p0" x="88" y="24" width="7" height="7" rx="2" fill="#238636" opacity="0.7"/>
  <rect class="p0" x="216" y="24" width="7" height="7" rx="2" fill="#238636" opacity="0.7"/>
  <rect class="p0" x="328" y="24" width="7" height="7" rx="2" fill="#238636" opacity="0.7"/>
  <rect class="p0" x="352" y="24" width="7" height="7" rx="2" fill="#238636" opacity="0.7"/>
  <rect class="p0" x="464" y="24" width="7" height="7" rx="2" fill="#238636" opacity="0.7"/>
  <rect class="p0" x="632" y="24" width="7" height="7" rx="2" fill="#238636" opacity="0.7"/>
  <rect class="p0" x="720" y="24" width="7" height="7" rx="2" fill="#238636" opacity="0.7"/>
  <rect class="p0" x="736" y="24" width="7" height="7" rx="2" fill="#238636" opacity="0.7"/>
  <rect class="p0" x="784" y="24" width="7" height="7" rx="2" fill="#238636" opacity="0.7"/>
  <rect class="p0" x="912" y="24" width="7" height="7" rx="2" fill="#238636" opacity="0.7"/>
  <rect class="p0" x="424" y="32" width="7" height="7" rx="2" fill="#238636" opacity="0.7"/>
  <rect class="p0" x="704" y="32" width="7" height="7" rx="2" fill="#238636" opacity="0.7"/>
  <rect class="p0" x="776" y="32" width="7" height="7" rx="2" fill="#238636" opacity="0.7"/>
  <rect class="p0" x="816" y="32" width="7" height="7" rx="2" fill="#238636" opacity="0.7"/>
  <rect class="p0" x="928" y="32" width="7" height="7" rx="2" fill="#238636" opacity="0.7"/>
  <rect class="p0" x="72" y="40" width="7" height="7" rx="2" fill="#238636" opacity="0.7"/>
  <rect class="p0" x="112" y="40" width="7" height="7" rx="2" fill="#238636" opacity="0.7"/>
  <rect class="p0" x="296" y="40" width="7" height="7" rx="2" fill="#238636" opacity="0.7"/>
  <rect class="p0" x="392" y="40" width="7" height="7" rx="2" fill="#238636" opacity="0.7"/>
  <rect class="p0" x="480" y="40" width="7" height="7" rx="2" fill="#238636" opacity="0.7"/>
  <rect class="p0" x="544" y="40" width="7" height="7" rx="2" fill="#238636" opacity="0.7"/>
  <rect class="p0" x="568" y="40" width="7" height="7" rx="2" fill="#238636" opacity="0.7"/>
  <rect class="p0" x="672" y="40" width="7" height="7" rx="2" fill="#238636" opacity="0.7"/>
  <rect class="p0" x="792" y="40" width="7" height="7" rx="2" fill="#238636" opacity="0.7"/>
  <rect class="p0" x="912" y="40" width="7" height="7" rx="2" fill="#238636" opacity="0.7"/>
  <rect class="p0" x="8" y="48" width="7" height="7" rx="2" fill="#238636" opacity="0.7"/>
  <rect class="p0" x="24" y="48" width="7" height="7" rx="2" fill="#238636" opacity="0.7"/>
  <rect class="p0" x="48" y="48" width="7" height="7" rx="2" fill="#238636" opacity="0.7"/>
  <rect class="p0" x="88" y="48" width="7" height="7" rx="2" fill="#238636" opacity="0.7"/>
  <rect class="p0" x="232" y="48" width="7" height="7" rx="2" fill="#238636" opacity="0.7"/>
  <rect class="p0" x="256" y="48" width="7" height="7" rx="2" fill="#238636" opacity="0.7"/>
  <rect class="p0" x="312" y="48" width="7" height="7" rx="2" fill="#238636" opacity="0.7"/>
  <rect class="p0" x="504" y="48" width="7" height="7" rx="2" fill="#238636" opacity="0.7"/>
  <rect class="p0" x="912" y="48" width="7" height="7" rx="2" fill="#238636" opacity="0.7"/>
  <rect class="p0" x="168" y="56" width="7" height="7" rx="2" fill="#238636" opacity="0.7"/>
  <rect class="p0" x="216" y="56" width="7" height="7" rx="2" fill="#238636" opacity="0.7"/>
  <rect class="p0" x="456" y="56" width="7" height="7" rx="2" fill="#238636" opacity="0.7"/>
  <rect class="p0" x="488" y="56" width="7" height="7" rx="2" fill="#238636" opacity="0.7"/>
  <rect class="p0" x="504" y="56" width="7" height="7" rx="2" fill="#238636" opacity="0.7"/>
  <rect class="p0" x="608" y="56" width="7" height="7" rx="2" fill="#238636" opacity="0.7"/>
  <rect class="p0" x="672" y="56" width="7" height="7" rx="2" fill="#238636" opacity="0.7"/>
  <rect class="p0" x="800" y="56" width="7" height="7" rx="2" fill="#238636" opacity="0.7"/>
  <rect class="p0" x="832" y="56" width="7" height="7" rx="2" fill="#238636" opacity="0.7"/>
  <rect class="p0" x="888" y="56" width="7" height="7" rx="2" fill="#238636" opacity="0.7"/>
  <rect class="p0" x="64" y="64" width="7" height="7" rx="2" fill="#238636" opacity="0.7"/>
  <rect class="p0" x="232" y="64" width="7" height="7" rx="2" fill="#238636" opacity="0.7"/>
  <rect class="p0" x="344" y="64" width="7" height="7" rx="2" fill="#238636" opacity="0.7"/>
  <rect class="p0" x="360" y="64" width="7" height="7" rx="2" fill="#238636" opacity="0.7"/>
  <rect class="p0" x="392" y="64" width="7" height="7" rx="2" fill="#238636" opacity="0.7"/>
  <rect class="p0" x="488" y="64" width="7" height="7" rx="2" fill="#238636" opacity="0.7"/>
  <rect class="p0" x="552" y="64" width="7" height="7" rx="2" fill="#238636" opacity="0.7"/>
  <rect class="p0" x="592" y="64" width="7" height="7" rx="2" fill="#238636" opacity="0.7"/>
  <rect class="p0" x="664" y="64" width="7" height="7" rx="2" fill="#238636" opacity="0.7"/>
  <rect class="p0" x="920" y="64" width="7" height="7" rx="2" fill="#238636" opacity="0.7"/>
  <rect class="p0" x="104" y="72" width="7" height="7" rx="2" fill="#238636" opacity="0.7"/>
  <rect class="p0" x="192" y="72" width="7" height="7" rx="2" fill="#238636" opacity="0.7"/>
  <rect class="p0" x="288" y="72" width="7" height="7" rx="2" fill="#238636" opacity="0.7"/>
  <rect class="p0" x="512" y="72" width="7" height="7" rx="2" fill="#238636" opacity="0.7"/>
  <rect class="p0" x="936" y="72" width="7" height="7" rx="2" fill="#238636" opacity="0.7"/>
  <rect class="p0" x="216" y="80" width="7" height="7" rx="2" fill="#238636" opacity="0.7"/>
  <rect class="p0" x="240" y="80" width="7" height="7" rx="2" fill="#238636" opacity="0.7"/>
  <rect class="p0" x="264" y="80" width="7" height="7" rx="2" fill="#238636" opacity="0.7"/>
  <rect class="p0" x="576" y="80" width="7" height="7" rx="2" fill="#238636" opacity="0.7"/>
  <rect class="p0" x="592" y="80" width="7" height="7" rx="2" fill="#238636" opacity="0.7"/>
  <rect class="p0" x="664" y="80" width="7" height="7" rx="2" fill="#238636" opacity="0.7"/>
  <rect class="p0" x="0" y="88" width="7" height="7" rx="2" fill="#238636" opacity="0.7"/>
  <rect class="p0" x="160" y="88" width="7" height="7" rx="2" fill="#238636" opacity="0.7"/>
  <rect class="p0" x="192" y="88" width="7" height="7" rx="2" fill="#238636" opacity="0.7"/>
  <rect class="p0" x="320" y="88" width="7" height="7" rx="2" fill="#238636" opacity="0.7"/>
  <rect class="p0" x="400" y="88" width="7" height="7" rx="2" fill="#238636" opacity="0.7"/>
  <rect class="p0" x="472" y="88" width="7" height="7" rx="2" fill="#238636" opacity="0.7"/>
  <rect class="p0" x="528" y="88" width="7" height="7" rx="2" fill="#238636" opacity="0.7"/>
  <rect class="p0" x="608" y="88" width="7" height="7" rx="2" fill="#238636" opacity="0.7"/>
  <rect class="p0" x="720" y="88" width="7" height="7" rx="2" fill="#238636" opacity="0.7"/>
  <rect class="p0" x="768" y="88" width="7" height="7" rx="2" fill="#238636" opacity="0.7"/>
  <rect class="p0" x="848" y="88" width="7" height="7" rx="2" fill="#238636" opacity="0.7"/>
  <rect class="p0" x="944" y="88" width="7" height="7" rx="2" fill="#238636" opacity="0.7"/>
  <rect class="p1" x="464" y="0" width="7" height="7" rx="2" fill="#238636" opacity="0.7"/>
  <rect class="p2" x="504" y="0" width="7" height="7" rx="2" fill="#238636" opacity="0.7"/>
  <rect class="p2" x="504" y="24" width="7" height="7" rx="2" fill="#238636" opacity="0.7"/>
  <rect class="p2" x="720" y="64" width="7" height="7" rx="2" fill="#238636" opacity="0.7"/>
  <rect class="p2" x="744" y="64" width="7" height="7" rx="2" fill="#238636" opacity="0.7"/>
  <rect class="p3" x="688" y="0" width="7" height="7" rx="2" fill="#238636" opacity="0.7"/>
  <rect class="p3" x="696" y="8" width="7" height="7" rx="2" fill="#238636" opacity="0.7"/>
  <rect class="p3" x="104" y="32" width="7" height="7" rx="2" fill="#238636" opacity="0.7"/>
  <rect class="p3" x="96" y="40" width="7" height="7" rx="2" fill="#238636" opacity="0.7"/>
  <rect class="p4" x="936" y="0" width="7" height="7" rx="2" fill="#238636" opacity="0.7"/>
  <rect class="p4" x="504" y="8" width="7" height="7" rx="2" fill="#238636" opacity="0.7"/>
  <rect class="p4" x="504" y="16" width="7" height="7" rx="2" fill="#238636" opacity="0.7"/>
  <rect class="p4" x="272" y="32" width="7" height="7" rx="2" fill="#238636" opacity="0.7"/>
  <rect class="p4" x="328" y="40" width="7" height="7" rx="2" fill="#238636" opacity="0.7"/>
  <rect class="p4" x="48" y="56" width="7" height="7" rx="2" fill="#238636" opacity="0.7"/>
  <rect class="p4" x="56" y="64" width="7" height="7" rx="2" fill="#238636" opacity="0.7"/>
  <rect class="p4" x="728" y="64" width="7" height="7" rx="2" fill="#238636" opacity="0.7"/>
  <rect class="p4" x="736" y="64" width="7" height="7" rx="2" fill="#238636" opacity="0.7"/>
  <rect class="p5" x="448" y="8" width="7" height="7" rx="2" fill="#238636" opacity="0.7"/>
  <rect class="p6" x="448" y="16" width="7" height="7" rx="2" fill="#238636" opacity="0.7"/>
  <rect class="p7" x="808" y="16" width="7" height="7" rx="2" fill="#238636" opacity="0.7"/>
  <rect class="p7" x="272" y="24" width="7" height="7" rx="2" fill="#238636" opacity="0.7"/>
  <rect class="p7" x="336" y="32" width="7" height="7" rx="2" fill="#238636" opacity="0.7"/>
  <rect class="p8" x="816" y="16" width="7" height="7" rx="2" fill="#238636" opacity="0.7"/>
  <rect class="p8" x="928" y="88" width="7" height="7" rx="2" fill="#238636" opacity="0.7"/>
  <rect class="p9" x="264" y="24" width="7" height="7" rx="2" fill="#238636" opacity="0.7"/>
  <rect class="p9" x="560" y="56" width="7" height="7" rx="2" fill="#238636" opacity="0.7"/>
  <rect class="p10" x="264" y="32" width="7" height="7" rx="2" fill="#238636" opacity="0.7"/>
  <rect class="p11" x="328" y="48" width="7" height="7" rx="2" fill="#238636" opacity="0.7"/>
  <rect class="p12" x="568" y="56" width="7" height="7" rx="2" fill="#238636" opacity="0.7"/>
  <rect class="p13" x="456" y="88" width="7" height="7" rx="2" fill="#238636" opacity="0.7"/>
  <rect class="p14" x="456" y="0" width="7" height="7" rx="2" fill="#238636" opacity="0.7"/>
  <rect class="p14" x="336" y="40" width="7" height="7" rx="2" fill="#238636" opacity="0.7"/>
  <rect class="p15" x="952" y="0" width="7" height="7" rx="2" fill="#238636" opacity="0.7"/>
  <rect class="p15" x="544" y="8" width="7" height="7" rx="2" fill="#238636" opacity="0.7"/>
  <rect class="p15" x="560" y="8" width="7" height="7" rx="2" fill="#238636" opacity="0.7"/>
  <rect class="p15" x="808" y="8" width="7" height="7" rx="2" fill="#238636" opacity="0.7"/>
  <rect class="p15" x="440" y="16" width="7" height="7" rx="2" fill="#238636" opacity="0.7"/>
  <rect class="p15" x="712" y="24" width="7" height="7" rx="2" fill="#238636" opacity="0.7"/>
  <rect class="p15" x="816" y="24" width="7" height="7" rx="2" fill="#238636" opacity="0.7"/>
  <rect class="p15" x="328" y="32" width="7" height="7" rx="2" fill="#238636" opacity="0.7"/>
  <rect class="p15" x="784" y="32" width="7" height="7" rx="2" fill="#238636" opacity="0.7"/>
  <rect class="p15" x="920" y="32" width="7" height="7" rx="2" fill="#238636" opacity="0.7"/>
  <rect class="p15" x="920" y="40" width="7" height="7" rx="2" fill="#238636" opacity="0.7"/>
  <rect class="p15" x="496" y="48" width="7" height="7" rx="2" fill="#238636" opacity="0.7"/>
  <rect class="p15" x="224" y="56" width="7" height="7" rx="2" fill="#238636" opacity="0.7"/>
  <rect class="p15" x="496" y="64" width="7" height="7" rx="2" fill="#238636" opacity="0.7"/>
  <rect class="p15" x="584" y="72" width="7" height="7" rx="2" fill="#238636" opacity="0.7"/>
  <rect class="p15" x="952" y="88" width="7" height="7" rx="2" fill="#238636" opacity="0.7"/>
  <rect class="p16" x="440" y="8" width="7" height="7" rx="2" fill="#238636" opacity="0.7"/>
  <rect class="p17" x="456" y="8" width="7" height="7" rx="2" fill="#238636" opacity="0.7"/>
  <rect class="p17" x="320" y="40" width="7" height="7" rx="2" fill="#238636" opacity="0.7"/>
  <rect class="p18" x="496" y="8" width="7" height="7" rx="2" fill="#238636" opacity="0.7"/>
  <rect class="p18" x="512" y="8" width="7" height="7" rx="2" fill="#238636" opacity="0.7"/>
  <rect class="p18" x="688" y="8" width="7" height="7" rx="2" fill="#238636" opacity="0.7"/>
  <rect class="p18" x="496" y="16" width="7" height="7" rx="2" fill="#238636" opacity="0.7"/>
  <rect class="p18" x="512" y="16" width="7" height="7" rx="2" fill="#238636" opacity="0.7"/>
  <rect class="p18" x="96" y="32" width="7" height="7" rx="2" fill="#238636" opacity="0.7"/>
  <rect class="p18" x="104" y="40" width="7" height="7" rx="2" fill="#238636" opacity="0.7"/>
  <rect class="p18" x="568" y="48" width="7" height="7" rx="2" fill="#238636" opacity="0.7"/>
  <rect class="p18" x="728" y="56" width="7" height="7" rx="2" fill="#238636" opacity="0.7"/>
  <rect class="p18" x="736" y="56" width="7" height="7" rx="2" fill="#238636" opacity="0.7"/>
  <rect class="p18" x="728" y="72" width="7" height="7" rx="2" fill="#238636" opacity="0.7"/>
  <rect class="p18" x="736" y="72" width="7" height="7" rx="2" fill="#238636" opacity="0.7"/>
  <rect class="p19" x="456" y="16" width="7" height="7" rx="2" fill="#238636" opacity="0.7"/>
  <rect class="p19" x="560" y="64" width="7" height="7" rx="2" fill="#238636" opacity="0.7"/>
  <rect class="p20" x="264" y="40" width="7" height="7" rx="2" fill="#238636" opacity="0.7"/>
  <rect class="p20" x="560" y="48" width="7" height="7" rx="2" fill="#238636" opacity="0.7"/>
  <rect class="p20" x="464" y="88" width="7" height="7" rx="2" fill="#238636" opacity="0.7"/>
  <rect class="p20" x="936" y="88" width="7" height="7" rx="2" fill="#238636" opacity="0.7"/>
  <rect class="p21" x="320" y="48" width="7" height="7" rx="2" fill="#238636" opacity="0.7"/>
  <rect class="p22" x="936" y="80" width="7" height="7" rx="2" fill="#238636" opacity="0.7"/>
  <rect class="p23" x="448" y="0" width="7" height="7" rx="2" fill="#238636" opacity="0.7"/>
  <rect class="p23" x="256" y="32" width="7" height="7" rx="2" fill="#238636" opacity="0.7"/>
  <rect class="p24" x="696" y="0" width="7" height="7" rx="2" fill="#238636" opacity="0.7"/>
  <rect class="p24" x="552" y="56" width="7" height="7" rx="2" fill="#238636" opacity="0.7"/>
  <rect class="p25" x="320" y="32" width="7" height="7" rx="2" fill="#238636" opacity="0.7"/>
  <rect class="p25" x="272" y="40" width="7" height="7" rx="2" fill="#238636" opacity="0.7"/>
  <rect class="p25" x="944" y="80" width="7" height="7" rx="2" fill="#238636" opacity="0.7"/>
  <rect class="p26" x="464" y="8" width="7" height="7" rx="2" fill="#238636" opacity="0.7"/>
  <rect class="p26" x="448" y="88" width="7" height="7" rx="2" fill="#238636" opacity="0.7"/>
  <rect class="p27" x="312" y="40" width="7" height="7" rx="2" fill="#238636" opacity="0.7"/>
  <rect class="p28" x="552" y="48" width="7" height="7" rx="2" fill="#238636" opacity="0.7"/>
  <rect class="p29" x="440" y="0" width="7" height="7" rx="2" fill="#238636" opacity="0.7"/>
  <rect class="p29" x="560" y="40" width="7" height="7" rx="2" fill="#238636" opacity="0.7"/>
</svg>