<svg width="100%" height="96" viewBox="0 0 960 96" xmlns="http://www.w3.org/2000/svg">
  <rect width="960" height="96" fill="#0d1117"/>
  <style>
    @keyframes p0 {
      0% { opacity: 1; }
      12% { opacity: 0; }
      16% { opacity: 1; }
      20% { opacity: 0; }
      100% { opacity: 1; }
    }
    .p0 { animation: p0 7.5s steps(1) infinite; opacity: 1; }
    @keyframes p1 {
      0% { opacity: 1; }
      4% { opacity: 0; }
      12% { opacity: 1; }
      16% { opacity: 0; }
      100% { opacity: 1; }
    }
    .p1 { animation: p1 7.5s steps(1) infinite; opacity: 1; }
    @keyframes p2 {
      0% { opacity: 1; }
    }
    .p2 { animation: p2 7.5s steps(1) infinite; opacity: 1; }
    @keyframes p3 {
      0% { opacity: 1; }
      4% { opacity: 0; }
      100% { opacity: 1; }
    }
    .p3 { animation: p3 7.5s steps(1) infinite; opacity: 1; }
    @keyframes p4 {
      0% { opacity: 1; }
      4% { opacity: 0; }
      12% { opacity: 1; }
      20% { opacity: 0; }
      36% { opacity: 1; }
      40% { opacity: 0; }
      100% { opacity: 1; }
    }
    .p4 { animation: p4 7.5s steps(1) infinite; opacity: 1; }
    @keyframes p5 {
      0% { opacity: 1; }
      12% { opacity: 0; }
      100% { opacity: 1; }
    }
    .p5 { animation: p5 7.5s steps(1) infinite; opacity: 1; }
    @keyframes p6 {
      0% { opacity: 1; }
      4% { opacity: 0; }
      8% { opacity: 1; }
      12% { opacity: 0; }
      16% { opacity: 1; }
      20% { opacity: 0; }
      24% { opacity: 1; }
      28% { opacity: 0; }
      32% { opacity: 1; }
      36% { opacity: 0; }
      40% { opacity: 1; }
      44% { opacity: 0; }
      48% { opacity: 1; }
      52% { opacity: 0; }
      56% { opacity: 1; }
      60% { opacity: 0; }
      64% { opacity: 1; }
      68% { opacity: 0; }
      72% { opacity: 1; }
      76% { opacity: 0; }
      80% { opacity: 1; }
      84% { opacity: 0; }
      88% { opacity: 1; }
      92% { opacity: 0; }
      96% { opacity: 1; }
    }
    .p6 { animation: p6 7.5s steps(1) infinite; opacity: 1; }
    @keyframes p7 {
      0% { opacity: 1; }
      8% { opacity: 0; }
      12% { opacity: 1; }
      16% { opacity: 0; }
      28% { opacity: 1; }
      44% { opacity: 0; }
      100% { opacity: 1; }
    }
    .p7 { animation: p7 7.5s steps(1) infinite; opacity: 1; }
    @keyframes p8 {
      0% { opacity: 1; }
      4% { opacity: 0; }
      8% { opacity: 1; }
      16% { opacity: 0; }
      28% { opacity: 1; }
      36% { opacity: 0; }
      40% { opacity: 1; }
      44% { opacity: 0; }
      100% { opacity: 1; }
    }
    .p8 { animation: p8 7.5s steps(1) infinite; opacity: 1; }
    @keyframes p9 {
      0% { opacity: 1; }
      4% { opacity: 0; }
      8% { opacity: 1; }
      12% { opacity: 0; }
      20% { opacity: 1; }
      24% { opacity: 0; }
      100% { opacity: 1; }
    }
    .p9 { animation: p9 7.5s steps(1) infinite; opacity: 1; }
    @keyframes p10 {
      0% { opacity: 1; }
      8% { opacity: 0; }
      100% { opacity: 1; }
    }
    .p10 { animation: p10 7.5s steps(1) infinite; opacity: 1; }
    @keyframes p11 {
      0% { opacity: 1; }
      4% { opacity: 0; }
      8% { opacity: 1; }
      28% { opacity: 0; }
      100% { opacity: 1; }
    }
    .p11 { animation: p11 7.5s steps(1) infinite; opacity: 1; }
    @keyframes p12 {
      0% { opacity: 1; }
      8% { opacity: 0; }
      16% { opacity: 1; }
      20% { opacity: 0; }
      24% { opacity: 1; }
      28% { opacity: 0; }
      100% { opacity: 1; }
    }
    .p12 { animation: p12 7.5s steps(1) infinite; opacity: 1; }
    @keyframes p13 {
      0% { opacity: 1; }
      4% { opacity: 0; }
      8% { opacity: 1; }
      12% { opacity: 0; }
      100% { opacity: 1; }
    }
    .p13 { animation: p13 7.5s steps(1) infinite; opacity: 1; }
    @keyframes p14 {
      0% { opacity: 1; }
      16% { opacity: 0; }
      100% { opacity: 1; }
    }
    .p14 { animation: p14 7.5s steps(1) infinite; opacity: 1; }
    @keyframes p15 {
      0% { opacity: 1; }
      20% { opacity: 0; }
      100% { opacity: 1; }
    }
    .p15 { animation: p15 7.5s steps(1) infinite; opacity: 1; }
    @keyframes p16 {
      0% { opacity: 1; }
      4% { opacity: 0; }
      8% { opacity: 1; }
    }
    .p16 { animation: p16 7.5s steps(1) infinite; opacity: 1; }
    @keyframes p17 {
      0% { opacity: 1; }
      8% { opacity: 0; }
      12% { opacity: 1; }
      20% { opacity: 0; }
      28% { opacity: 1; }
      32% { opacity: 0; }
      100% { opacity: 1; }
    }
    .p17 { animation: p17 7.5s steps(1) infinite; opacity: 1; }
    @keyframes p18 {
      0% { opacity: 1; }
      8% { opacity: 0; }
      12% { opacity: 1; }
      20% { opacity: 0; }
      24% { opacity: 1; }
      28% { opacity: 0; }
      32% { opacity: 1; }
      36% { opacity: 0; }
      100% { opacity: 1; }
    }
    .p18 { animation: p18 7.5s steps(1) infinite; opacity: 1; }
    @keyframes p19 {
      0% { opacity: 1; }
      8% { opacity: 0; }
      16% { opacity: 1; }
      24% { opacity: 0; }
      100% { opacity: 1; }
    }
    .p19 { animation: p19 7.5s steps(1) infinite; opacity: 1; }
    @keyframes p20 {
      0% { opacity: 1; }
      8% { opacity: 0; }
      12% { opacity: 1; }
      16% { opacity: 0; }
      20% { opacity: 1; }
      24% { opacity: 0; }
      28% { opacity: 1; }
      32% { opacity: 0; }
      36% { opacity: 1; }
      40% { opacity: 0; }
      44% { opacity: 1; }
      48% { opacity: 0; }
      52% { opacity: 1; }
      56% { opacity: 0; }
      60% { opacity: 1; }
      64% { opacity: 0; }
      68% { opacity: 1; }
      72% { opacity: 0; }
      76% { opacity: 1; }
      80% { opacity: 0; }
      84% { opacity: 1; }
      88% { opacity: 0; }
      92% { opacity: 1; }
      96% { opacity: 0; }
      100% { opacity: 1; }
    }
    .p20 { animation: p20 7.5s steps(1) infinite; opacity: 1; }
    @keyframes p21 {
      0% { opacity: 1; }
      4% { opacity: 0; }
      8% { opacity: 1; }
      16% { opacity: 0; }
      100% { opacity: 1; }
    }
    .p21 { animation: p21 7.5s steps(1) infinite; opacity: 1; }
    @keyframes p22 {
      0% { opacity: 1; }
      4% { opacity: 0; }
      36% { opacity: 1; }
      40% { opacity: 0; }
      44% { opacity: 1; }
      48% { opacity: 0; }
      52% { opacity: 1; }
      56% { opacity: 0; }
      60% { opacity: 1; }
      64% { opacity: 0; }
      68% { opacity: 1; }
      72% { opacity: 0; }
      76% { opacity: 1; }
      80% { opacity: 0; }
      84% { opacity: 1; }
      88% { opacity: 0; }
      92% { opacity: 1; }
      96% { opacity: 0; }
      100% { opacity: 1; }
    }
    .p22 { animation: p22 7.5s steps(1) infinite; opacity: 1; }
    @keyframes p23 {
      0% { opacity: 0; }
      4% { opacity: 1; }
      12% { opacity: 0; }
    }
    .p23 { animation: p23 7.5s steps(1) infinite; opacity: 0; }
    @keyframes p24 {
      0% { opacity: 0; }
      4% { opacity: 1; }
      8% { opacity: 0; }
    }
    .p24 { animation: p24 7.5s steps(1) infinite; opacity: 0; }
    @keyframes p25 {
      0% { opacity: 0; }
      4% { opacity: 1; }
      8% { opacity: 0; }
      12% { opacity: 1; }
      16% { opacity: 0; }
      20% { opacity: 1; }
      24% { opacity: 0; }
      28% { opacity: 1; }
      32% { opacity: 0; }
      36% { opacity: 1; }
      40% { opacity: 0; }
      44% { opacity: 1; }
      48% { opacity: 0; }
      52% { opacity: 1; }
      56% { opacity: 0; }
      60% { opacity: 1; }
      64% { opacity: 0; }
      68% { opacity: 1; }
      72% { opacity: 0; }
      76% { opacity: 1; }
      80% { opacity: 0; }
      84% { opacity: 1; }
      88% { opacity: 0; }
      92% { opacity: 1; }
      96% { opacity: 0; }
    }
    .p25 { animation: p25 7.5s steps(1) infinite; opacity: 0; }
    @keyframes p26 {
      0% { opacity: 0; }
      4% { opacity: 1; }
      16% { opacity: 0; }
    }
    .p26 { animation: p26 7.5s steps(1) infinite; opacity: 0; }
    @keyframes p27 {
      0% { opacity: 0; }
      4% { opacity: 1; }
      8% { opacity: 0; }
      16% { opacity: 1; }
      20% { opacity: 0; }
      36% { opacity: 1; }
      40% { opacity: 0; }
    }
    .p27 { animation: p27 7.5s steps(1) infinite; opacity: 0; }
    @keyframes p28 {
      0% { opacity: 0; }
      4% { opacity: 1; }
      100% { opacity: 0; }
    }
    .p28 { animation: p28 7.5s steps(1) infinite; opacity: 0; }
    @keyframes p29 {
      0% { opacity: 0; }
      4% { opacity: 1; }
      8% { opacity: 0; }
      12% { opacity: 1; }
      100% { opacity: 0; }
    }
    .p29 { animation: p29 7.5s steps(1) infinite; opacity: 0; }
    @keyframes p30 {
      0% { opacity: 0; }
      4% { opacity: 1; }
      8% { opacity: 0; }
      12% { opacity: 1; }
      16% { opacity: 0; }
    }
    .p30 { animation: p30 7.5s steps(1) infinite; opacity: 0; }
    @keyframes p31 {
      0% { opacity: 0; }
      4% { opacity: 1; }
      12% { opacity: 0; }
      20% { opacity: 1; }
      28% { opacity: 0; }
    }
    .p31 { animation: p31 7.5s steps(1) infinite; opacity: 0; }
    @keyframes p32 {
      0% { opacity: 0; }
      4% { opacity: 1; }
      20% { opacity: 0; }
    }
    .p32 { animation: p32 7.5s steps(1) infinite; opacity: 0; }
    @keyframes p33 {
      0% { opacity: 0; }
      4% { opacity: 1; }
      12% { opacity: 0; }
      16% { opacity: 1; }
      28% { opacity: 0; }
    }
    .p33 { animation: p33 7.5s steps(1) infinite; opacity: 0; }
    @keyframes p34 {
      0% { opacity: 0; }
      4% { opacity: 1; }
      20% { opacity: 0; }
      24% { opacity: 1; }
      28% { opacity: 0; }
      32% { opacity: 1; }
      36% { opacity: 0; }
    }
    .p34 { animation: p34 7.5s steps(1) infinite; opacity: 0; }
    @keyframes p35 {
      0% { opacity: 0; }
      4% { opacity: 1; }
      8% { opacity: 0; }
      16% { opacity: 1; }
      36% { opacity: 0; }
    }
    .p35 { animation: p35 7.5s steps(1) infinite; opacity: 0; }
    @keyframes p36 {
      0% { opacity: 0; }
      8% { opacity: 1; }
      16% { opacity: 0; }
      24% { opacity: 1; }
      32% { opacity: 0; }
    }
    .p36 { animation: p36 7.5s steps(1) infinite; opacity: 0; }
    @keyframes p37 {
      0% { opacity: 0; }
      8% { opacity: 1; }
      12% { opacity: 0; }
    }
    .p37 { animation: p37 7.5s steps(1) infinite; opacity: 0; }
    @keyframes p38 {
      0% { opacity: 0; }
      8% { opacity: 1; }
      100% { opacity: 0; }
    }
    .p38 { animation: p38 7.5s steps(1) infinite; opacity: 0; }
    @keyframes p39 {
      0% { opacity: 0; }
      8% { opacity: 1; }
      32% { opacity: 0; }
    }
    .p39 { animation: p39 7.5s steps(1) infinite; opacity: 0; }
    @keyframes p40 {
      0% { opacity: 0; }
      8% { opacity: 1; }
      16% { opacity: 0; }
      20% { opacity: 1; }
      36% { opacity: 0; }
      40% { opacity: 1; }
      44% { opacity: 0; }
      48% { opacity: 1; }
      52% { opacity: 0; }
      56% { opacity: 1; }
      60% { opacity: 0; }
      64% { opacity: 1; }
      68% { opacity: 0; }
      72% { opacity: 1; }
      76% { opacity: 0; }
      80% { opacity: 1; }
      84% { opacity: 0; }
      88% { opacity: 1; }
      92% { opacity: 0; }
      96% { opacity: 1; }
      100% { opacity: 0; }
    }
    .p40 { animation: p40 7.5s steps(1) infinite; opacity: 0; }
    @keyframes p41 {
      0% { opacity: 0; }
      8% { opacity: 1; }
      20% { opacity: 0; }
    }
    .p41 { animation: p41 7.5s steps(1) infinite; opacity: 0; }
    @keyframes p42 {
      0% { opacity: 0; }
      8% { opacity: 1; }
      12% { opacity: 0; }
      16% { opacity: 1; }
      28% { opacity: 0; }
    }
    .p42 { animation: p42 7.5s steps(1) infinite; opacity: 0; }
    @keyframes p43 {
      0% { opacity: 0; }
      8% { opacity: 1; }
      12% { opacity: 0; }
      16% { opacity: 1; }
      20% { opacity: 0; }
      24% { opacity: 1; }
      28% { opacity: 0; }
      32% { opacity: 1; }
      36% { opacity: 0; }
      40% { opacity: 1; }
      44% { opacity: 0; }
      48% { opacity: 1; }
      52% { opacity: 0; }
      56% { opacity: 1; }
      60% { opacity: 0; }
      64% { opacity: 1; }
      68% { opacity: 0; }
      72% { opacity: 1; }
      76% { opacity: 0; }
      80% { opacity: 1; }
      84% { opacity: 0; }
      88% { opacity: 1; }
      92% { opacity: 0; }
      96% { opacity: 1; }
      100% { opacity: 0; }
    }
    .p43 { animation: p43 7.5s steps(1) infinite; opacity: 0; }
    @keyframes p44 {
      0% { opacity: 0; }
      8% { opacity: 1; }
      16% { opacity: 0; }
    }
    .p44 { animation: p44 7.5s steps(1) infinite; opacity: 0; }
    @keyframes p45 {
      0% { opacity: 0; }
      8% { opacity: 1; }
      36% { opacity: 0; }
    }
    .p45 { animation: p45 7.5s steps(1) infinite; opacity: 0; }
    @keyframes p46 {
      0% { opacity: 0; }
      12% { opacity: 1; }
      16% { opacity: 0; }
    }
    .p46 { animation: p46 7.5s steps(1) infinite; opacity: 0; }
    @keyframes p47 {
      0% { opacity: 0; }
      12% { opacity: 1; }
      16% { opacity: 0; }
      20% { opacity: 1; }
      36% { opacity: 0; }
      40% { opacity: 1; }
      44% { opacity: 0; }
      48% { opacity: 1; }
      52% { opacity: 0; }
      56% { opacity: 1; }
      60% { opacity: 0; }
      64% { opacity: 1; }
      68% { opacity: 0; }
      72% { opacity: 1; }
      76% { opacity: 0; }
      80% { opacity: 1; }
      84% { opacity: 0; }
      88% { opacity: 1; }
      92% { opacity: 0; }
      96% { opacity: 1; }
      100% { opacity: 0; }
    }
    .p47 { animation: p47 7.5s steps(1) infinite; opacity: 0; }
    @keyframes p48 {
      0% { opacity: 0; }
      16% { opacity: 1; }
      32% { opacity: 0; }
    }
    .p48 { animation: p48 7.5s steps(1) infinite; opacity: 0; }
    @keyframes p49 {
      0% { opacity: 0; }
      16% { opacity: 1; }
      28% { opacity: 0; }
    }
    .p49 { animation: p49 7.5s steps(1) infinite; opacity: 0; }
    @keyframes p50 {
      0% { opacity: 0; }
      20% { opacity: 1; }
      24% { opacity: 0; }
    }
    .p50 { animation: p50 7.5s steps(1) infinite; opacity: 0; }
    @keyframes p51 {
      0% { opacity: 0; }
      20% { opacity: 1; }
      36% { opacity: 0; }
      40% { opacity: 1; }
      44% { opacity: 0; }
      48% { opacity: 1; }
      52% { opacity: 0; }
      56% { opacity: 1; }
      60% { opacity: 0; }
      64% { opacity: 1; }
      68% { opacity: 0; }
      72% { opacity: 1; }
      76% { opacity: 0; }
      80% { opacity: 1; }
      84% { opacity: 0; }
      88% { opacity: 1; }
      92% { opacity: 0; }
      96% { opacity: 1; }
      100% { opacity: 0; }
    }
    .p51 { animation: p51 7.5s steps(1) infinite; opacity: 0; }
    @keyframes p52 {
      0% { opacity: 0; }
      28% { opacity: 1; }
      36% { opacity: 0; }
    }
    .p52 { animation: p52 7.5s steps(1) infinite; opacity: 0; }
    @keyframes p53 {
      0% { opacity: 0; }
      32% { opacity: 1; }
      36% { opacity: 0; }
    }
    .p53 { animation: p53 7.5s steps(1) infinite; opacity: 0; }
    @keyframes p54 {
      0% { opacity: 0; }
      32% { opacity: 1; }
      100% { opacity: 0; }
    }
    .p54 { animation: p54 7.5s steps(1) infinite; opacity: 0; }
    @keyframes p55 {
      0% { opacity: 0; }
      36% { opacity: 1; }
      40% { opacity: 0; }
      44% { opacity: 1; }
      48% { opacity: 0; }
      52% { opacity: 1; }
      56% { opacity: 0; }
      60% { opacity: 1; }
      64% { opacity: 0; }
      68% { opacity: 1; }
      72% { opacity: 0; }
      76% { opacity: 1; }
      80% { opacity: 0; }
      84% { opacity: 1; }
      88% { opacity: 0; }
      92% { opacity: 1; }
      96% { opacity: 0; }
    }
    .p55 { animation: p55 7.5s steps(1) infinite; opacity: 0; }
    @keyframes p56 {
      0% { opacity: 0; }
      40% { opacity: 1; }
      44% { opacity: 0; }
      48% { opacity: 1; }
      52% { opacity: 0; }
      56% { opacity: 1; }
      60% { opacity: 0; }
      64% { opacity: 1; }
      68% { opacity: 0; }
      72% { opacity: 1; }
      76% { opacity: 0; }
      80% { opacity: 1; }
      84% { opacity: 0; }
      88% { opacity: 1; }
      92% { opacity: 0; }
      96% { opacity: 1; }
      100% { opacity: 0; }
    }
    .p56 { animation: p56 7.5s steps(1) infinite; opacity: 0; }
  </style>
  <rect class="p0" x="40" y="0" width="7" height="7" rx="2" fill="#238636" opacity="0.7"/>
  <rect class="p0" x="40" y="24" width="7" height="7" rx="2" fill="#238636" opacity="0.7"/>
  <rect class="p1" x="56" y="0" width="7" height="7" rx="2" fill="#238636" opacity="0.7"/>
  <rect class="p2" x="160" y="0" width="7" height="7" rx="2" fill="#238636" opacity="0.7"/>
  <rect class="p2" x="280" y="48" width="7" height="7" rx="2" fill="#238636" opacity="0.7"/>
  <rect class="p2" x="288" y="48" width="7" height="7" rx="2" fill="#238636" opacity="0.7"/>
  <rect class="p2" x="280" y="56" width="7" height="7" rx="2" fill="#238636" opacity="0.7"/>
  <rect class="p3" x="272" y="0" width="7" height="7" rx="2" fill="#238636" opacity="0.7"/>
  <rect class="p3" x="320" y="0" width="7" height="7" rx="2" fill="#238636" opacity="0.7"/>
  <rect class="p3" x="616" y="0" width="7" height="7" rx="2" fill="#238636" opacity="0.7"/>
  <rect class="p3" x="776" y="0" width="7" height="7" rx="2" fill="#238636" opacity="0.7"/>
  <rect class="p3" x="832" y="0" width="7" height="7" rx="2" fill="#238636" opacity="0.7"/>
  <rect class="p3" x="856" y="0" width="7" height="7" rx="2" fill="#238636" opacity="0.7"/>
  <rect class="p3" x="896" y="0" width="7" height="7" rx="2" fill="#238636" opacity="0.7"/>
  <rect class="p3" x="936" y="0" width="7" height="7" rx="2" fill="#238636" opacity="0.7"/>
  <rect class="p3" x="88" y="8" width="7" height="7" rx="2" fill="#238636" opacity="0.7"/>
  <rect class="p3" x="112" y="8" width="7" height="7" rx="2" fill="#238636" opacity="0.7"/>
  <rect class="p3" x="296" y="8" width="7" height="7" rx="2" fill="#238636" opacity="0.7"/>
  <rect class="p3" x="400" y="8" width="7" height="7" rx="2" fill="#238636" opacity="0.7"/>
  <rect class="p3" x="424" y="8" width="7" height="7" rx="2" fill="#238636" opacity="0.7"/>
  <rect class="p3" x="456" y="8" width="7" height="7" rx="2" fill="#238636" opacity="0.7"/>
  <rect class="p3" x="536" y="8" width="7" height="7" rx="2" fill="#238636" opacity="0.7"/>
  <rect class="p3" x="544" y="8" width="7" height="7" rx="2" fill="#238636" opacity="0.7"/>
  <rect class="p3" x="752" y="8" width="7" height="7" rx="2" fill="#238636" opacity="0.7"/>
  <rect class="p3" x="208" y="16" width="7" height="7" rx="2" fill="#238636" opacity="0.7"/>
  <rect class="p3" x="312" y="16" width="7" height="7" rx="2" fill="#238636" opacity="0.7"/>
  <rect class="p3" x="368" y="16" width="7" height="7" rx="2" fill="#238636" opacity="0.7"/>
  <rect class="p3" x="384" y="16" width="7" height="7" rx="2" fill="#238636" opacity="0.7"/>
  <rect class="p3" x="576" y="16" width="7" height="7" rx="2" fill="#238636" opacity="0.7"/>
  <rect class="p3" x="680" y="16" width="7" height="7" rx="2" fill="#238636" opacity="0.7"/>
  <rect class="p3" x="808" y="16" width="7" height="7" rx="2" fill="#238636" opacity="0.7"/>
  <rect class="p3" x="888" y="16" width="7" height="7" rx="2" fill="#238636" opacity="0.7"/>
  <rect class="p3" x="120" y="24" width="7" height="7" rx="2" fill="#238636" opacity="0.7"/>
  <rect class="p3" x="256" y="24" width="7" height="7" rx="2" fill="#238636" opacity="0.7"/>
  <rect class="p3" x="336" y="24" width="7" height="7" rx="2" fill="#238636" opacity="0.7"/>
  <rect class="p3" x="368" y="24" width="7" height="7" rx="2" fill="#238636" opacity="0.7"/>
  <rect class="p3" x="576" y="24" width="7" height="7" rx="2" fill="#238636" opacity="0.7"/>
  <rect class="p3" x="776" y="24" width="7" height="7" rx="2" fill="#238636" opacity="0.7"/>
  <rect class="p3" x="832" y="24" width="7" height="7" rx="2" fill="#238636" opacity="0.7"/>
  <rect class="p3" x="936" y="24" width="7" height="7" rx="2" fill="#238636" opacity="0.7"/>
  <rect class="p3" x="72" y="32" width="7" height="7" rx="2" fill="#238636" opacity="0.7"/>
  <rect class="p3" x="344" y="32" width="7" height="7" rx="2" fill="#238636" opacity="0.7"/>
  <rect class="p3" x="432" y="32" width="7" height="7" rx="2" fill="#238636" opacity="0.7"/>
  <rect class="p3" x="472" y="32" width="7" height="7" rx="2" fill="#238636" opacity="0.7"/>
  <rect class="p3" x="560" y="32" width="7" height="7" rx="2" fill="#238636" opacity="0.7"/>
  <rect class="p3" x="600" y="32" width="7" height="7" rx="2" fill="#238636" opacity="0.7"/>
  <rect class="p3" x="664" y="32" width="7" height="7" rx="2" fill="#238636" opacity="0.7"/>
  <rect class="p3" x="696" y="32" width="7" height="7" rx="2" fill="#238636" opacity="0.7"/>
  <rect class="p3" x="728" y="32" width="7" height="7" rx="2" fill="#238636" opacity="0.7"/>
  <rect class="p3" x="792" y="32" width="7" height="7" rx="2" fill="#238636" opacity="0.7"/>
  <rect class="p3" x="872" y="32" width="7" height="7" rx="2" fill="#238636" opacity="0.7"/>
  <rect class="p3" x="912" y="32" width="7" height="7" rx="2" fill="#238636" opacity="0.7"/>
  <rect class="p3" x="96" y="40" width="7" height="7" rx="2" fill="#238636" opacity="0.7"/>
  <rect class="p3" x="104" y="40" width="7" height="7" rx="2" fill="#238636" opacity="0.7"/>
  <rect class="p3" x="208" y="40" width="7" height="7" rx="2" fill="#238636" opacity="0.7"/>
  <rect class="p3" x="240" y="40" width="7" height="7" rx="2" fill="#238636" opacity="0.7"/>
  <rect class="p3" x="320" y="40" width="7" height="7" rx="2" fill="#238636" opacity="0.7"/>
  <rect class="p3" x="528" y="40" width="7" height="7" rx="2" fill="#238636" opacity="0.7"/>
  <rect class="p3" x="536" y="40" width="7" height="7" rx="2" fill="#238636" opacity="0.7"/>
  <rect class="p3" x="592" y="40" width="7" height="7" rx="2" fill="#238636" opacity="0.7"/>
  <rect class="p3" x="768" y="40" width="7" height="7" rx="2" fill="#238636" opacity="0.7"/>
  <rect class="p3" x="784" y="40" width="7" height="7" rx="2" fill="#238636" opacity="0.7"/>
  <rect class="p3" x="816" y="40" width="7" height="7" rx="2" fill="#238636" opacity="0.7"/>
  <rect class="p3" x="848" y="40" width="7" height="7" rx="2" fill="#238636" opacity="0.7"/>
  <rect class="p3" x="880" y="40" width="7" height="7" rx="2" fill="#238636" opacity="0.7"/>
  <rect class="p3" x="944" y="40" width="7" height="7" rx="2" fill="#238636" opacity="0.7"/>
  <rect class="p3" x="560" y="48" width="7" height="7" rx="2" fill="#238636" opacity="0.7"/>
  <rect class="p3" x="728" y="48" width="7" height="7" rx="2" fill="#238636" opacity="0.7"/>
  <rect class="p3" x="736" y="48" width="7" height="7" rx="2" fill="#238636" opacity="0.7"/>
  <rect class="p3" x="848" y="48" width="7" height="7" rx="2" fill="#238636" opacity="0.7"/>
  <rect class="p3" x="896" y="48" width="7" height="7" rx="2" fill="#238636" opacity="0.7"/>
  <rect class="p3" x="216" y="56" width="7" height="7" rx="2" fill="#238636" opacity="0.7"/>
  <rect class="p3" x="248" y="56" width="7" height="7" rx="2" fill="#238636" opacity="0.7"/>
  <rect class="p3" x="352" y="56" width="7" height="7" rx="2" fill="#238636" opacity="0.7"/>
  <rect class="p3" x="448" y="56" width="7" height="7" rx="2" fill="#238636" opacity="0.7"/>
  <rect class="p3" x="760" y="56" width="7" height="7" rx="2" fill="#238636" opacity="0.7"/>
  <rect class="p3" x="824" y="56" width="7" height="7" rx="2" fill="#238636" opacity="0.7"/>
  <rect class="p3" x="864" y="56" width="7" height="7" rx="2" fill="#238636" opacity="0.7"/>
  <rect class="p3" x="880" y="56" width="7" height="7" rx="2" fill="#238636" opacity="0.7"/>
  <rect class="p3" x="16" y="64" width="7" height="7" rx="2" fill="#238636" opacity="0.7"/>
  <rect class="p3" x="192" y="64" width="7" height="7" rx="2" fill="#238636" opacity="0.7"/>
  <rect class="p3" x="248" y="64" width="7" height="7" rx="2" fill="#238636" opacity="0.7"/>
  <rect class="p3" x="312" y="64" width="7" height="7" rx="2" fill="#238636" opacity="0.7"/>
  <rect class="p3" x="424" y="64" width="7" height="7" rx="2" fill="#238636" opacity="0.7"/>
  <rect class="p3" x="488" y="64" width="7" height="7" rx="2" fill="#238636" opacity="0.7"/>
  <rect class="p3" x="512" y="64" width="7" height="7" rx="2" fill="#238636" opacity="0.7"/>
  <rect class="p3" x="608" y="64" width="7" height="7" rx="2" fill="#238636" opacity="0.7"/>
  <rect class="p3" x="632" y="64" width="7" height="7" rx="2" fill="#238636" opacity="0.7"/>
  <rect class="p3" x="688" y="64" width="7" height="7" rx="2" fill="#238636" opacity="0.7"/>
  <rect class="p3" x="784" y="64" width="7" height="7" rx="2" fill="#238636" opacity="0.7"/>
  <rect class="p3" x="32" y="72" width="7" height="7" rx="2" fill="#238636" opacity="0.7"/>
  <rect class="p3" x="40" y="72" width="7" height="7" rx="2" fill="#238636" opacity="0.7"/>
  <rect class="p3" x="128" y="72" width="7" height="7" rx="2" fill="#238636" opacity="0.7"/>
  <rect class="p3" x="176" y="72" width="7" height="7" rx="2" fill="#238636" opacity="0.7"/>
  <rect class="p3" x="336" y="72" width="7" height="7" rx="2" fill="#238636" opacity="0.7"/>
  <rect class="p3" x="360" y="72" width="7" height="7" rx="2" fill="#238636" opacity="0.7"/>
  <rect class="p3" x="408" y="72" width="7" height="7" rx="2" fill="#238636" opacity="0.7"/>
  <rect class="p3" x="448" y="72" width="7" height="7" rx="2" fill="#238636" opacity="0.7"/>
  <rect class="p3" x="520" y="72" width="7" height="7" rx="2" fill="#238636" opacity="0.7"/>
  <rect class="p3" x="592" y="72" width="7" height="7" rx="2" fill="#238636" opacity="0.7"/>
  <rect class="p3" x="872" y="72" width="7" height="7" rx="2" fill="#238636" opacity="0.7"/>
  <rect class="p3" x="880" y="72" width="7" height="7" rx="2" fill="#238636" opacity="0.7"/>
  <rect class="p3" x="904" y="72" width="7" height="7" rx="2" fill="#238636" opacity="0.7"/>
  <rect class="p3" x="8" y="80" width="7" height="7" rx="2" fill="#238636" opacity="0.7"/>
  <rect class="p3" x="256" y="80" width="7" height="7" rx="2" fill="#238636" opacity="0.7"/>
  <rect class="p3" x="408" y="80" width="7" height="7" rx="2" fill="#238636" opacity="0.7"/>
  <rect class="p3" x="432" y="80" width="7" height="7" rx="2" fill="#238636" opacity="0.7"/>
  <rect class="p3" x="544" y="80" width="7" height="7" rx="2" fill="#238636" opacity="0.7"/>
  <rect class="p3" x="696" y="80" width="7" height="7" rx="2" fill="#238636" opacity="0.7"/>
  <rect class="p3" x="712" y="80" width="7" height="7" rx="2" fill="#238636" opacity="0.7"/>
  <rect class="p3" x="824" y="80" width="7" height="7" rx="2" fill="#238636" opacity="0.7"/>
  <rect class="p3" x="904" y="80" width="7" height="7" rx="2" fill="#238636" opacity="0.7"/>
  <rect class="p3" x="104" y="88" width="7" height="7" rx="2" fill="#238636" opacity="0.7"/>
  <rect class="p3" x="112" y="88" width="7" height="7" rx="2" fill="#238636" opacity="0.7"/>
  <rect class="p3" x="200" y="88" width="7" height="7" rx="2" fill="#238636" opacity="0.7"/>
  <rect class="p3" x="280" y="88" width="7" height="7" rx="2" fill="#238636" opacity="0.7"/>
  <rect class="p3" x="368" y="88" width="7" height="7" rx="2" fill="#238636" opacity="0.7"/>
  <rect class="p3" x="384" y="88" width="7" height="7" rx="2" fill="#238636" opacity="0.7"/>
  <rect class="p3" x="528" y="88" width="7" height="7" rx="2" fill="#238636" opacity="0.7"/>
  <rect class="p3" x="664" y="88" width="7" height="7" rx="2" fill="#238636" opacity="0.7"/>
  <rect class="p3" x="680" y="88" width="7" height="7" rx="2" fill="#238636" opacity="0.7"/>
  <rect class="p3" x="744" y="88" width="7" height="7" rx="2" fill="#238636" opacity="0.7"/>
  <rect class="p3" x="784" y="88" width="7" height="7" rx="2" fill="#238636" opacity="0.7"/>
  <rect class="p4" x="488" y="0" width="7" height="7" rx="2" fill="#238636" opacity="0.7"/>
  <rect class="p5" x="504" y="0" width="7" height="7" rx="2" fill="#238636" opacity="0.7"/>
  <rect class="p5" x="48" y="8" width="7" height="7" rx="2" fill="#238636" opacity="0.7"/>
  <rect class="p5" x="208" y="24" width="7" height="7" rx="2" fill="#238636" opacity="0.7"/>
  <rect class="p5" x="480" y="56" width="7" height="7" rx="2" fill="#238636" opacity="0.7"/>
  <rect class="p5" x="888" y="56" width="7" height="7" rx="2" fill="#238636" opacity="0.7"/>
  <rect class="p6" x="160" y="8" width="7" height="7" rx="2" fill="#238636" opacity="0.7"/>
  <rect class="p6" x="160" y="88" width="7" height="7" rx="2" fill="#238636" opacity="0.7"/>
  <rect class="p6" x="352" y="88" width="7" height="7" rx="2" fill="#238636" opacity="0.7"/>
  <rect class="p7" x="480" y="8" width="7" height="7" rx="2" fill="#238636" opacity="0.7"/>
  <rect class="p8" x="488" y="8" width="7" height="7" rx="2" fill="#238636" opacity="0.7"/>
  <rect class="p9" x="496" y="8" width="7" height="7" rx="2" fill="#238636" opacity="0.7"/>
  <rect class="p10" x="896" y="8" width="7" height="7" rx="2" fill="#238636" opacity="0.7"/>
  <rect class="p10" x="448" y="16" width="7" height="7" rx="2" fill="#238636" opacity="0.7"/>
  <rect class="p10" x="216" y="32" width="7" height="7" rx="2" fill="#238636" opacity="0.7"/>
  <rect class="p10" x="464" y="48" width="7" height="7" rx="2" fill="#238636" opacity="0.7"/>
  <rect class="p10" x="128" y="56" width="7" height="7" rx="2" fill="#238636" opacity="0.7"/>
  <rect class="p10" x="464" y="56" width="7" height="7" rx="2" fill="#238636" opacity="0.7"/>
  <rect class="p10" x="80" y="64" width="7" height="7" rx="2" fill="#238636" opacity="0.7"/>
  <rect class="p10" x="472" y="64" width="7" height="7" rx="2" fill="#238636" opacity="0.7"/>
  <rect class="p10" x="472" y="72" width="7" height="7" rx="2" fill="#238636" opacity="0.7"/>
  <rect class="p10" x="600" y="72" width="7" height="7" rx="2" fill="#238636" opacity="0.7"/>
  <rect class="p10" x="480" y="80" width="7" height="7" rx="2" fill="#238636" opacity="0.7"/>
  <rect class="p10" x="488" y="88" width="7" height="7" rx="2" fill="#238636" opacity="0.7"/>
  <rect class="p10" x="496" y="88" width="7" height="7" rx="2" fill="#238636" opacity="0.7"/>
  <rect class="p10" x="688" y="88" width="7" height="7" rx="2" fill="#238636" opacity="0.7"/>
  <rect class="p11" x="488" y="16" width="7" height="7" rx="2" fill="#238636" opacity="0.7"/>
  <rect class="p12" x="496" y="16" width="7" height="7" rx="2" fill="#238636" opacity="0.7"/>
  <rect class="p13" x="456" y="24" width="7" height="7" rx="2" fill="#238636" opacity="0.7"/>
  <rect class="p13" x="528" y="24" width="7" height="7" rx="2" fill="#238636" opacity="0.7"/>
  <rect class="p13" x="456" y="40" width="7" height="7" rx="2" fill="#238636" opacity="0.7"/>
  <rect class="p13" x="32" y="88" width="7" height="7" rx="2" fill="#238636" opacity="0.7"/>
  <rect class="p14" x="32" y="32" width="7" height="7" rx="2" fill="#238636" opacity="0.7"/>
  <rect class="p15" x="40" y="32" width="7" height="7" rx="2" fill="#238636" opacity="0.7"/>
  <rect class="p16" x="224" y="40" width="7" height="7" rx="2" fill="#238636" opacity="0.7"/>
  <rect class="p17" x="120" y="48" width="7" height="7" rx="2" fill="#238636" opacity="0.7"/>
  <rect class="p18" x="80" y="56" width="7" height="7" rx="2" fill="#238636" opacity="0.7"/>
  <rect class="p18" x="72" y="64" width="7" height="7" rx="2" fill="#238636" opacity="0.7"/>
  <rect class="p18" x="88" y="64" width="7" height="7" rx="2" fill="#238636" opacity="0.7"/>
  <rect class="p19" x="120" y="56" width="7" height="7" rx="2" fill="#238636" opacity="0.7"/>
  <rect class="p20" x="344" y="80" width="7" height="7" rx="2" fill="#238636" opacity="0.7"/>
  <rect class="p21" x="464" y="80" width="7" height="7" rx="2" fill="#238636" opacity="0.7"/>
  <rect class="p21" x="512" y="88" width="7" height="7" rx="2" fill="#238636" opacity="0.7"/>
  <rect class="p22" x="72" y="88" width="7" height="7" rx="2" fill="#238636" opacity="0.7"/>
  <rect class="p23" x="48" y="0" width="7" height="7" rx="2" fill="#238636" opacity="0.7"/>
  <rect class="p23" x="32" y="24" width="7" height="7" rx="2" fill="#238636" opacity="0.7"/>
  <rect class="p23" x="464" y="40" width="7" height="7" rx="2" fill="#238636" opacity="0.7"/>
  <rect class="p23" x="880" y="48" width="7" height="7" rx="2" fill="#238636" opacity="0.7"/>
  <rect class="p23" x="120" y="64" width="7" height="7" rx="2" fill="#238636" opacity="0.7"/>
  <rect class="p24" x="104" y="0" width="7" height="7" rx="2" fill="#238636" opacity="0.7"/>
  <rect class="p24" x="112" y="0" width="7" height="7" rx="2" fill="#238636" opacity="0.7"/>
  <rect class="p24" x="536" y="0" width="7" height="7" rx="2" fill="#238636" opacity="0.7"/>
  <rect class="p24" x="888" y="8" width="7" height="7" rx="2" fill="#238636" opacity="0.7"/>
  <rect class="p24" x="376" y="16" width="7" height="7" rx="2" fill="#238636" opacity="0.7"/>
  <rect class="p24" x="456" y="16" width="7" height="7" rx="2" fill="#238636" opacity="0.7"/>
  <rect class="p24" x="536" y="16" width="7" height="7" rx="2" fill="#238636" opacity="0.7"/>
  <rect class="p24" x="376" y="24" width="7" height="7" rx="2" fill="#238636" opacity="0.7"/>
  <rect class="p24" x="568" y="24" width="7" height="7" rx="2" fill="#238636" opacity="0.7"/>
  <rect class="p24" x="528" y="32" width="7" height="7" rx="2" fill="#238636" opacity="0.7"/>
  <rect class="p24" x="536" y="32" width="7" height="7" rx="2" fill="#238636" opacity="0.7"/>
  <rect class="p24" x="776" y="32" width="7" height="7" rx="2" fill="#238636" opacity="0.7"/>
  <rect class="p24" x="784" y="32" width="7" height="7" rx="2" fill="#238636" opacity="0.7"/>
  <rect class="p24" x="728" y="40" width="7" height="7" rx="2" fill="#238636" opacity="0.7"/>
  <rect class="p24" x="736" y="40" width="7" height="7" rx="2" fill="#238636" opacity="0.7"/>
  <rect class="p24" x="216" y="48" width="7" height="7" rx="2" fill="#238636" opacity="0.7"/>
  <rect class="p24" x="472" y="48" width="7" height="7" rx="2" fill="#238636" opacity="0.7"/>
  <rect class="p24" x="856" y="48" width="7" height="7" rx="2" fill="#238636" opacity="0.7"/>
  <rect class="p24" x="872" y="48" width="7" height="7" rx="2" fill="#238636" opacity="0.7"/>
  <rect class="p24" x="456" y="56" width="7" height="7" rx="2" fill="#238636" opacity="0.7"/>
  <rect class="p24" x="456" y="64" width="7" height="7" rx="2" fill="#238636" opacity="0.7"/>
  <rect class="p24" x="464" y="64" width="7" height="7" rx="2" fill="#238636" opacity="0.7"/>
  <rect class="p24" x="600" y="64" width="7" height="7" rx="2" fill="#238636" opacity="0.7"/>
  <rect class="p24" x="888" y="64" width="7" height="7" rx="2" fill="#238636" opacity="0.7"/>
  <rect class="p24" x="416" y="72" width="7" height="7" rx="2" fill="#238636" opacity="0.7"/>
  <rect class="p24" x="464" y="72" width="7" height="7" rx="2" fill="#238636" opacity="0.7"/>
  <rect class="p24" x="32" y="80" width="7" height="7" rx="2" fill="#238636" opacity="0.7"/>
  <rect class="p24" x="40" y="80" width="7" height="7" rx="2" fill="#238636" opacity="0.7"/>
  <rect class="p24" x="472" y="80" width="7" height="7" rx="2" fill="#238636" opacity="0.7"/>
  <rect class="p24" x="488" y="80" width="7" height="7" rx="2" fill="#238636" opacity="0.7"/>
  <rect class="p24" x="520" y="80" width="7" height="7" rx="2" fill="#238636" opacity="0.7"/>
  <rect class="p24" x="688" y="80" width="7" height="7" rx="2" fill="#238636" opacity="0.7"/>
  <rect class="p25" x="152" y="0" width="7" height="7" rx="2" fill="#238636" opacity="0.7"/>
  <rect class="p25" x="168" y="0" width="7" height="7" rx="2" fill="#238636" opacity="0.7"/>
  <rect class="p25" x="360" y="80" width="7" height="7" rx="2" fill="#238636" opacity="0.7"/>
  <rect class="p26" x="504" y="8" width="7" height="7" rx="2" fill="#238636" opacity="0.7"/>
  <rect class="p26" x="128" y="64" width="7" height="7" rx="2" fill="#238636" opacity="0.7"/>
  <rect class="p26" x="504" y="88" width="7" height="7" rx="2" fill="#238636" opacity="0.7"/>
  <rect class="p27" x="480" y="16" width="7" height="7" rx="2" fill="#238636" opacity="0.7"/>
  <rect class="p28" x="216" y="24" width="7" height="7" rx="2" fill="#238636" opacity="0.7"/>
  <rect class="p28" x="216" y="40" width="7" height="7" rx="2" fill="#238636" opacity="0.7"/>
  <rect class="p28" x="288" y="56" width="7" height="7" rx="2" fill="#238636" opacity="0.7"/>
  <rect class="p28" x="352" y="80" width="7" height="7" rx="2" fill="#238636" opacity="0.7"/>
  <rect class="p29" x="208" y="32" width="7" height="7" rx="2" fill="#238636" opacity="0.7"/>
  <rect class="p30" x="464" y="32" width="7" height="7" rx="2" fill="#238636" opacity="0.7"/>
  <rect class="p31" x="112" y="48" width="7" height="7" rx="2" fill="#238636" opacity="0.7"/>
  <rect class="p32" x="128" y="48" width="7" height="7" rx="2" fill="#238636" opacity="0.7"/>
  <rect class="p33" x="72" y="56" width="7" height="7" rx="2" fill="#238636" opacity="0.7"/>
  <rect class="p33" x="88" y="56" width="7" height="7" rx="2" fill="#238636" opacity="0.7"/>
  <rect class="p34" x="80" y="72" width="7" height="7" rx="2" fill="#238636" opacity="0.7"/>
  <rect class="p35" x="480" y="88" width="7" height="7" rx="2" fill="#238636" opacity="0.7"/>
  <rect class="p36" x="480" y="0" width="7" height="7" rx="2" fill="#238636" opacity="0.7"/>
  <rect class="p37" x="512" y="0" width="7" height="7" rx="2" fill="#238636" opacity="0.7"/>
  <rect class="p37" x="40" y="8" width="7" height="7" rx="2" fill="#238636" opacity="0.7"/>
  <rect class="p37" x="40" y="16" width="7" height="7" rx="2" fill="#238636" opacity="0.7"/>
  <rect class="p37" x="536" y="24" width="7" height="7" rx="2" fill="#238636" opacity="0.7"/>
  <rect class="p37" x="480" y="64" width="7" height="7" rx="2" fill="#238636" opacity="0.7"/>
  <rect class="p37" x="456" y="72" width="7" height="7" rx="2" fill="#238636" opacity="0.7"/>
  <rect class="p38" x="224" y="32" width="7" height="7" rx="2" fill="#238636" opacity="0.7"/>
  <rect class="p39" x="120" y="40" width="7" height="7" rx="2" fill="#238636" opacity="0.7"/>
  <rect class="p40" x="80" y="48" width="7" height="7" rx="2" fill="#238636" opacity="0.7"/>
  <rect class="p41" x="136" y="56" width="7" height="7" rx="2" fill="#238636" opacity="0.7"/>
  <rect class="p42" x="72" y="72" width="7" height="7" rx="2" fill="#238636" opacity="0.7"/>
  <rect class="p42" x="88" y="72" width="7" height="7" rx="2" fill="#238636" opacity="0.7"/>
  <rect class="p43" x="352" y="72" width="7" height="7" rx="2" fill="#238636" opacity="0.7"/>
  <rect class="p44" x="48" y="88" width="7" height="7" rx="2" fill="#238636" opacity="0.7"/>
  <rect class="p45" x="472" y="88" width="7" height="7" rx="2" fill="#238636" opacity="0.7"/>
  <rect class="p46" x="32" y="0" width="7" height="7" rx="2" fill="#238636" opacity="0.7"/>
  <rect class="p46" x="32" y="8" width="7" height="7" rx="2" fill="#238636" opacity="0.7"/>
  <rect class="p46" x="512" y="8" width="7" height="7" rx="2" fill="#238636" opacity="0.7"/>
  <rect class="p46" x="48" y="24" width="7" height="7" rx="2" fill="#238636" opacity="0.7"/>
  <rect class="p46" x="456" y="32" width="7" height="7" rx="2" fill="#238636" opacity="0.7"/>
  <rect class="p47" x="80" y="80" width="7" height="7" rx="2" fill="#238636" opacity="0.7"/>
  <rect class="p48" x="472" y="0" width="7" height="7" rx="2" fill="#238636" opacity="0.7"/>
  <rect class="p49" x="128" y="40" width="7" height="7" rx="2" fill="#238636" opacity="0.7"/>
  <rect class="p50" x="488" y="24" width="7" height="7" rx="2" fill="#238636" opacity="0.7"/>
  <rect class="p50" x="136" y="48" width="7" height="7" rx="2" fill="#238636" opacity="0.7"/>
  <rect class="p51" x="64" y="64" width="7" height="7" rx="2" fill="#238636" opacity="0.7"/>
  <rect class="p51" x="96" y="64" width="7" height="7" rx="2" fill="#238636" opacity="0.7"/>
  <rect class="p52" x="72" y="48" width="7" height="7" rx="2" fill="#238636" opacity="0.7"/>
  <rect class="p52" x="88" y="48" width="7" height="7" rx="2" fill="#238636" opacity="0.7"/>
  <rect class="p52" x="64" y="56" width="7" height="7" rx="2" fill="#238636" opacity="0.7"/>
  <rect class="p52" x="96" y="56" width="7" height="7" rx="2" fill="#238636" opacity="0.7"/>
  <rect class="p52" x="64" y="72" width="7" height="7" rx="2" fill="#238636" opacity="0.7"/>
  <rect class="p52" x="96" y="72" width="7" height="7" rx="2" fill="#238636" opacity="0.7"/>
  <rect class="p52" x="72" y="80" width="7" height="7" rx="2" fill="#238636" opacity="0.7"/>
  <rect class="p52" x="88" y="80" width="7" height="7" rx="2" fill="#238636" opacity="0.7"/>
  <rect class="p53" x="472" y="8" width="7" height="7" rx="2" fill="#238636" opacity="0.7"/>
  <rect class="p54" x="80" y="40" width="7" height="7" rx="2" fill="#238636" opacity="0.7"/>
  <rect class="p54" x="56" y="64" width="7" height="7" rx="2" fill="#238636" opacity="0.7"/>
  <rect class="p54" x="104" y="64" width="7" height="7" rx="2" fill="#238636" opacity="0.7"/>
  <rect class="p54" x="80" y="88" width="7" height="7" rx="2" fill="#238636" opacity="0.7"/>
  <rect class="p55" x="72" y="40" width="7" height="7" rx="2" fill="#238636" opacity="0.7"/>
  <rect class="p55" x="88" y="40" width="7" height="7" rx="2" fill="#238636" opacity="0.7"/>
  <rect class="p55" x="56" y="56" width="7" height="7" rx="2" fill="#238636" opacity="0.7"/>
  <rect class="p55" x="104" y="56" width="7" height="7" rx="2" fill="#238636" opacity="0.7"/>
  <rect class="p55" x="56" y="72" width="7" height="7" rx="2" fill="#238636" opacity="0.7"/>
  <rect class="p55" x="104" y="72" width="7" height="7" rx="2" fill="#238636" opacity="0.7"/>
  <rect class="p55" x="88" y="88" width="7" height="7" rx="2" fill="#238636" opacity="0.7"/>
  <rect class="p56" x="80" y="0" width="7" height="7" rx="2" fill="#238636" opacity="0.7"/>
  <rect class="p56" x="80" y="32" width="7" height="7" rx="2" fill="#238636" opacity="0.7"/>
  <rect class="p56" x="48" y="64" width="7" height="7" rx="2" fill="#238636" opacity="0.7"/>
  <rect class="p56" x="112" y="64" width="7" height="7" rx="2" fill="#238636" opacity="0.7"/>
</svg>