<svg width="100%" height="96" viewBox="0 0 960 96" xmlns="http://www.w3.org/2000/svg">
  <rect width="960" height="96" fill="#0d1117"/>
  <style>
    @keyframes p0 {
      0% { opacity: 1; }
      4% { opacity: 0; }
      100% { opacity: 1; }
    }
    .p0 { animation: p0 7.5s steps(1) infinite; opacity: 1; }
    @keyframes p1 {
      0% { opacity: 1; }
      20% { opacity: 0; }
      100% { opacity: 1; }
    }
    .p1 { animation: p1 7.5s steps(1) infinite; opacity: 1; }
    @keyframes p2 {
      0% { opacity: 1; }
      8% { opacity: 0; }
      24% { opacity: 1; }
      32% { opacity: 0; }
      48% { opacity: 1; }
      56% { opacity: 0; }
      100% { opacity: 1; }
    }
    .p2 { animation: p2 7.5s steps(1) infinite; opacity: 1; }
    @keyframes p3 {
      0% { opacity: 1; }
      16% { opacity: 0; }
      100% { opacity: 1; }
    }
    .p3 { animation: p3 7.5s steps(1) infinite; opacity: 1; }
    @keyframes p4 {
      0% { opacity: 1; }
      8% { opacity: 0; }
      16% { opacity: 1; }
      20% { opacity: 0; }
      100% { opacity: 1; }
    }
    .p4 { animation: p4 7.5s steps(1) infinite; opacity: 1; }
    @keyframes p5 {
      0% { opacity: 1; }
      8% { opacity: 0; }
      12% { opacity: 1; }
      20% { opacity: 0; }
      44% { opacity: 1; }
      52% { opacity: 0; }
      60% { opacity: 1; }
      64% { opacity: 0; }
      100% { opacity: 1; }
    }
    .p5 { animation: p5 7.5s steps(1) infinite; opacity: 1; }
    @keyframes p6 {
      0% { opacity: 1; }
      8% { opacity: 0; }
      16% { opacity: 1; }
      28% { opacity: 0; }
      40% { opacity: 1; }
      52% { opacity: 0; }
      100% { opacity: 1; }
    }
    .p6 { animation: p6 7.5s steps(1) infinite; opacity: 1; }
    @keyframes p7 {
      0% { opacity: 1; }
      8% { opacity: 0; }
      12% { opacity: 1; }
      24% { opacity: 0; }
      44% { opacity: 1; }
      48% { opacity: 0; }
      64% { opacity: 1; }
      84% { opacity: 0; }
      100% { opacity: 1; }
    }
    .p7 { animation: p7 7.5s steps(1) infinite; opacity: 1; }
    @keyframes p8 {
      0% { opacity: 1; }
      32% { opacity: 0; }
      100% { opacity: 1; }
    }
    .p8 { animation: p8 7.5s steps(1) infinite; opacity: 1; }
    @keyframes p9 {
      0% { opacity: 1; }
      12% { opacity: 0; }
      100% { opacity: 1; }
    }
    .p9 { animation: p9 7.5s steps(1) infinite; opacity: 1; }
    @keyframes p10 {
      0% { opacity: 1; }
      8% { opacity: 0; }
      12% { opacity: 1; }
      40% { opacity: 0; }
      44% { opacity: 1; }
      52% { opacity: 0; }
      100% { opacity: 1; }
    }
    .p10 { animation: p10 7.5s steps(1) infinite; opacity: 1; }
    @keyframes p11 {
      0% { opacity: 1; }
      8% { opacity: 0; }
      52% { opacity: 1; }
      64% { opacity: 0; }
      68% { opacity: 1; }
      80% { opacity: 0; }
      84% { opacity: 1; }
      88% { opacity: 0; }
      100% { opacity: 1; }
    }
    .p11 { animation: p11 7.5s steps(1) infinite; opacity: 1; }
    @keyframes p12 {
      0% { opacity: 1; }
      28% { opacity: 0; }
      60% { opacity: 1; }
      68% { opacity: 0; }
      92% { opacity: 1; }
    }
    .p12 { animation: p12 7.5s steps(1) infinite; opacity: 1; }
    @keyframes p13 {
      0% { opacity: 1; }
      4% { opacity: 0; }
      8% { opacity: 1; }
      12% { opacity: 0; }
      100% { opacity: 1; }
    }
    .p13 { animation: p13 7.5s steps(1) infinite; opacity: 1; }
    @keyframes p14 {
      0% { opacity: 1; }
      4% { opacity: 0; }
      12% { opacity: 1; }
    }
    .p14 { animation: p14 7.5s steps(1) infinite; opacity: 1; }
    @keyframes p15 {
      0% { opacity: 1; }
      8% { opacity: 0; }
      100% { opacity: 1; }
    }
    .p15 { animation: p15 7.5s steps(1) infinite; opacity: 1; }
    @keyframes p16 {
      0% { opacity: 1; }
      4% { opacity: 0; }
      8% { opacity: 1; }
      24% { opacity: 0; }
      32% { opacity: 1; }
    }
    .p16 { animation: p16 7.5s steps(1) infinite; opacity: 1; }
    @keyframes p17 {
      0% { opacity: 1; }
      4% { opacity: 0; }
      8% { opacity: 1; }
    }
    .p17 { animation: p17 7.5s steps(1) infinite; opacity: 1; }
    @keyframes p18 {
      0% { opacity: 1; }
      4% { opacity: 0; }
      8% { opacity: 1; }
      12% { opacity: 0; }
      16% { opacity: 1; }
      20% { opacity: 0; }
      24% { opacity: 1; }
      28% { opacity: 0; }
      32% { opacity: 1; }
      36% { opacity: 0; }
      40% { opacity: 1; }
      44% { opacity: 0; }
      48% { opacity: 1; }
      52% { opacity: 0; }
      56% { opacity: 1; }
      60% { opacity: 0; }
      64% { opacity: 1; }
      68% { opacity: 0; }
      72% { opacity: 1; }
      76% { opacity: 0; }
      80% { opacity: 1; }
      84% { opacity: 0; }
      88% { opacity: 1; }
      92% { opacity: 0; }
      96% { opacity: 1; }
    }
    .p18 { animation: p18 7.5s steps(1) infinite; opacity: 1; }
    @keyframes p19 {
      0% { opacity: 1; }
    }
    .p19 { animation: p19 7.5s steps(1) infinite; opacity: 1; }
    @keyframes p20 {
      0% { opacity: 1; }
      4% { opacity: 0; }
      12% { opacity: 1; }
      24% { opacity: 0; }
      100% { opacity: 1; }
    }
    .p20 { animation: p20 7.5s steps(1) infinite; opacity: 1; }
    @keyframes p21 {
      0% { opacity: 0; }
      4% { opacity: 1; }
      8% { opacity: 0; }
      12% { opacity: 1; }
      16% { opacity: 0; }
      20% { opacity: 1; }
      24% { opacity: 0; }
      28% { opacity: 1; }
      32% { opacity: 0; }
      36% { opacity: 1; }
      40% { opacity: 0; }
      44% { opacity: 1; }
      48% { opacity: 0; }
      52% { opacity: 1; }
      56% { opacity: 0; }
      60% { opacity: 1; }
      64% { opacity: 0; }
      68% { opacity: 1; }
      72% { opacity: 0; }
      76% { opacity: 1; }
      80% { opacity: 0; }
      84% { opacity: 1; }
      88% { opacity: 0; }
      92% { opacity: 1; }
      96% { opacity: 0; }
    }
    .p21 { animation: p21 7.5s steps(1) infinite; opacity: 0; }
    @keyframes p22 {
      0% { opacity: 0; }
      4% { opacity: 1; }
      8% { opacity: 0; }
    }
    .p22 { animation: p22 7.5s steps(1) infinite; opacity: 0; }
    @keyframes p23 {
      0% { opacity: 0; }
      4% { opacity: 1; }
      8% { opacity: 0; }
      32% { opacity: 1; }
      44% { opacity: 0; }
      48% { opacity: 1; }
      52% { opacity: 0; }
      56% { opacity: 1; }
      60% { opacity: 0; }
    }
    .p23 { animation: p23 7.5s steps(1) infinite; opacity: 0; }
    @keyframes p24 {
      0% { opacity: 0; }
      4% { opacity: 1; }
      16% { opacity: 0; }
    }
    .p24 { animation: p24 7.5s steps(1) infinite; opacity: 0; }
    @keyframes p25 {
      0% { opacity: 0; }
      4% { opacity: 1; }
      28% { opacity: 0; }
      40% { opacity: 1; }
      44% { opacity: 0; }
      56% { opacity: 1; }
      60% { opacity: 0; }
    }
    .p25 { animation: p25 7.5s steps(1) infinite; opacity: 0; }
    @keyframes p26 {
      0% { opacity: 0; }
      4% { opacity: 1; }
      8% { opacity: 0; }
      20% { opacity: 1; }
      36% { opacity: 0; }
      40% { opacity: 1; }
      44% { opacity: 0; }
      48% { opacity: 1; }
      56% { opacity: 0; }
      60% { opacity: 1; }
      64% { opacity: 0; }
      68% { opacity: 1; }
      84% { opacity: 0; }
    }
    .p26 { animation: p26 7.5s steps(1) infinite; opacity: 0; }
    @keyframes p27 {
      0% { opacity: 0; }
      4% { opacity: 1; }
      8% { opacity: 0; }
      56% { opacity: 1; }
      60% { opacity: 0; }
      64% { opacity: 1; }
      68% { opacity: 0; }
    }
    .p27 { animation: p27 7.5s steps(1) infinite; opacity: 0; }
    @keyframes p28 {
      0% { opacity: 0; }
      4% { opacity: 1; }
      8% { opacity: 0; }
      12% { opacity: 1; }
      24% { opacity: 0; }
      28% { opacity: 1; }
      36% { opacity: 0; }
      44% { opacity: 1; }
      48% { opacity: 0; }
      64% { opacity: 1; }
      80% { opacity: 0; }
      84% { opacity: 1; }
      88% { opacity: 0; }
    }
    .p28 { animation: p28 7.5s steps(1) infinite; opacity: 0; }
    @keyframes p29 {
      0% { opacity: 0; }
      4% { opacity: 1; }
      100% { opacity: 0; }
    }
    .p29 { animation: p29 7.5s steps(1) infinite; opacity: 0; }
    @keyframes p30 {
      0% { opacity: 0; }
      4% { opacity: 1; }
      8% { opacity: 0; }
      16% { opacity: 1; }
      100% { opacity: 0; }
    }
    .p30 { animation: p30 7.5s steps(1) infinite; opacity: 0; }
    @keyframes p31 {
      0% { opacity: 0; }
      4% { opacity: 1; }
      8% { opacity: 0; }
      12% { opacity: 1; }
      100% { opacity: 0; }
    }
    .p31 { animation: p31 7.5s steps(1) infinite; opacity: 0; }
    @keyframes p32 {
      0% { opacity: 0; }
      4% { opacity: 1; }
      20% { opacity: 0; }
      28% { opacity: 1; }
      100% { opacity: 0; }
    }
    .p32 { animation: p32 7.5s steps(1) infinite; opacity: 0; }
    @keyframes p33 {
      0% { opacity: 0; }
      4% { opacity: 1; }
      12% { opacity: 0; }
    }
    .p33 { animation: p33 7.5s steps(1) infinite; opacity: 0; }
    @keyframes p34 {
      0% { opacity: 0; }
      4% { opacity: 1; }
      12% { opacity: 0; }
      32% { opacity: 1; }
      100% { opacity: 0; }
    }
    .p34 { animation: p34 7.5s steps(1) infinite; opacity: 0; }
    @keyframes p35 {
      0% { opacity: 0; }
      8% { opacity: 1; }
      16% { opacity: 0; }
    }
    .p35 { animation: p35 7.5s steps(1) infinite; opacity: 0; }
    @keyframes p36 {
      0% { opacity: 0; }
      8% { opacity: 1; }
      20% { opacity: 0; }
    }
    .p36 { animation: p36 7.5s steps(1) infinite; opacity: 0; }
    @keyframes p37 {
      0% { opacity: 0; }
      8% { opacity: 1; }
      12% { opacity: 0; }
      16% { opacity: 1; }
      24% { opacity: 0; }
      28% { opacity: 1; }
      36% { opacity: 0; }
      52% { opacity: 1; }
      56% { opacity: 0; }
    }
    .p37 { animation: p37 7.5s steps(1) infinite; opacity: 0; }
    @keyframes p38 {
      0% { opacity: 0; }
      8% { opacity: 1; }
      12% { opacity: 0; }
      24% { opacity: 1; }
      44% { opacity: 0; }
    }
    .p38 { animation: p38 7.5s steps(1) infinite; opacity: 0; }
    @keyframes p39 {
      0% { opacity: 0; }
      8% { opacity: 1; }
      12% { opacity: 0; }
    }
    .p39 { animation: p39 7.5s steps(1) infinite; opacity: 0; }
    @keyframes p40 {
      0% { opacity: 0; }
      8% { opacity: 1; }
      12% { opacity: 0; }
      20% { opacity: 1; }
      36% { opacity: 0; }
      44% { opacity: 1; }
      48% { opacity: 0; }
    }
    .p40 { animation: p40 7.5s steps(1) infinite; opacity: 0; }
    @keyframes p41 {
      0% { opacity: 0; }
      8% { opacity: 1; }
      12% { opacity: 0; }
      28% { opacity: 1; }
      32% { opacity: 0; }
      48% { opacity: 1; }
      60% { opacity: 0; }
    }
    .p41 { animation: p41 7.5s steps(1) infinite; opacity: 0; }
    @keyframes p42 {
      0% { opacity: 0; }
      8% { opacity: 1; }
      32% { opacity: 0; }
      40% { opacity: 1; }
      56% { opacity: 0; }
      80% { opacity: 1; }
      84% { opacity: 0; }
    }
    .p42 { animation: p42 7.5s steps(1) infinite; opacity: 0; }
    @keyframes p43 {
      0% { opacity: 0; }
      8% { opacity: 1; }
      16% { opacity: 0; }
      36% { opacity: 1; }
      40% { opacity: 0; }
      44% { opacity: 1; }
      64% { opacity: 0; }
      76% { opacity: 1; }
      80% { opacity: 0; }
      88% { opacity: 1; }
      92% { opacity: 0; }
    }
    .p43 { animation: p43 7.5s steps(1) infinite; opacity: 0; }
    @keyframes p44 {
      0% { opacity: 0; }
      8% { opacity: 1; }
      20% { opacity: 0; }
      24% { opacity: 1; }
      32% { opacity: 0; }
    }
    .p44 { animation: p44 7.5s steps(1) infinite; opacity: 0; }
    @keyframes p45 {
      0% { opacity: 0; }
      8% { opacity: 1; }
      100% { opacity: 0; }
    }
    .p45 { animation: p45 7.5s steps(1) infinite; opacity: 0; }
    @keyframes p46 {
      0% { opacity: 0; }
      12% { opacity: 1; }
      16% { opacity: 0; }
      24% { opacity: 1; }
      40% { opacity: 0; }
      44% { opacity: 1; }
      52% { opacity: 0; }
    }
    .p46 { animation: p46 7.5s steps(1) infinite; opacity: 0; }
    @keyframes p47 {
      0% { opacity: 0; }
      12% { opacity: 1; }
      44% { opacity: 0; }
    }
    .p47 { animation: p47 7.5s steps(1) infinite; opacity: 0; }
    @keyframes p48 {
      0% { opacity: 0; }
      12% { opacity: 1; }
      20% { opacity: 0; }
      24% { opacity: 1; }
      32% { opacity: 0; }
    }
    .p48 { animation: p48 7.5s steps(1) infinite; opacity: 0; }
    @keyframes p49 {
      0% { opacity: 0; }
      16% { opacity: 1; }
      36% { opacity: 0; }
      40% { opacity: 1; }
      48% { opacity: 0; }
    }
    .p49 { animation: p49 7.5s steps(1) infinite; opacity: 0; }
    @keyframes p50 {
      0% { opacity: 0; }
      16% { opacity: 1; }
      100% { opacity: 0; }
    }
    .p50 { animation: p50 7.5s steps(1) infinite; opacity: 0; }
    @keyframes p51 {
      0% { opacity: 0; }
      16% { opacity: 1; }
      28% { opacity: 0; }
    }
    .p51 { animation: p51 7.5s steps(1) infinite; opacity: 0; }
    @keyframes p52 {
      0% { opacity: 0; }
      16% { opacity: 1; }
      20% { opacity: 0; }
    }
    .p52 { animation: p52 7.5s steps(1) infinite; opacity: 0; }
    @keyframes p53 {
      0% { opacity: 0; }
      20% { opacity: 1; }
      100% { opacity: 0; }
    }
    .p53 { animation: p53 7.5s steps(1) infinite; opacity: 0; }
    @keyframes p54 {
      0% { opacity: 0; }
      24% { opacity: 1; }
      44% { opacity: 0; }
    }
    .p54 { animation: p54 7.5s steps(1) infinite; opacity: 0; }
    @keyframes p55 {
      0% { opacity: 0; }
      28% { opacity: 1; }
      56% { opacity: 0; }
    }
    .p55 { animation: p55 7.5s steps(1) infinite; opacity: 0; }
    @keyframes p56 {
      0% { opacity: 0; }
      28% { opacity: 1; }
      100% { opacity: 0; }
    }
    .p56 { animation: p56 7.5s steps(1) infinite; opacity: 0; }
    @keyframes p57 {
      0% { opacity: 0; }
      32% { opacity: 1; }
      36% { opacity: 0; }
      48% { opacity: 1; }
      60% { opacity: 0; }
    }
    .p57 { animation: p57 7.5s steps(1) infinite; opacity: 0; }
    @keyframes p58 {
      0% { opacity: 0; }
      32% { opacity: 1; }
      36% { opacity: 0; }
      40% { opacity: 1; }
      44% { opacity: 0; }
      60% { opacity: 1; }
      64% { opacity: 0; }
    }
    .p58 { animation: p58 7.5s steps(1) infinite; opacity: 0; }
    @keyframes p59 {
      0% { opacity: 0; }
      32% { opacity: 1; }
      44% { opacity: 0; }
      48% { opacity: 1; }
      56% { opacity: 0; }
    }
    .p59 { animation: p59 7.5s steps(1) infinite; opacity: 0; }
    @keyframes p60 {
      0% { opacity: 0; }
      36% { opacity: 1; }
      44% { opacity: 0; }
      48% { opacity: 1; }
      56% { opacity: 0; }
    }
    .p60 { animation: p60 7.5s steps(1) infinite; opacity: 0; }
    @keyframes p61 {
      0% { opacity: 0; }
      36% { opacity: 1; }
      40% { opacity: 0; }
    }
    .p61 { animation: p61 7.5s steps(1) infinite; opacity: 0; }
    @keyframes p62 {
      0% { opacity: 0; }
      36% { opacity: 1; }
      40% { opacity: 0; }
      52% { opacity: 1; }
      56% { opacity: 0; }
      60% { opacity: 1; }
      64% { opacity: 0; }
    }
    .p62 { animation: p62 7.5s steps(1) infinite; opacity: 0; }
    @keyframes p63 {
      0% { opacity: 0; }
      36% { opacity: 1; }
      56% { opacity: 0; }
    }
    .p63 { animation: p63 7.5s steps(1) infinite; opacity: 0; }
    @keyframes p64 {
      0% { opacity: 0; }
      40% { opacity: 1; }
      48% { opacity: 0; }
    }
    .p64 { animation: p64 7.5s steps(1) infinite; opacity: 0; }
    @keyframes p65 {
      0% { opacity: 0; }
      40% { opacity: 1; }
      44% { opacity: 0; }
    }
    .p65 { animation: p65 7.5s steps(1) infinite; opacity: 0; }
    @keyframes p66 {
      0% { opacity: 0; }
      44% { opacity: 1; }
      48% { opacity: 0; }
      52% { opacity: 1; }
      56% { opacity: 0; }
    }
    .p66 { animation: p66 7.5s steps(1) infinite; opacity: 0; }
    @keyframes p67 {
      0% { opacity: 0; }
      44% { opacity: 1; }
      56% { opacity: 0; }
      60% { opacity: 1; }
      68% { opacity: 0; }
      76% { opacity: 1; }
      84% { opacity: 0; }
    }
    .p67 { animation: p67 7.5s steps(1) infinite; opacity: 0; }
    @keyframes p68 {
      0% { opacity: 0; }
      44% { opacity: 1; }
      52% { opacity: 0; }
    }
    .p68 { animation: p68 7.5s steps(1) infinite; opacity: 0; }
    @keyframes p69 {
      0% { opacity: 0; }
      48% { opacity: 1; }
      64% { opacity: 0; }
      72% { opacity: 1; }
      80% { opacity: 0; }
      84% { opacity: 1; }
      88% { opacity: 0; }
    }
    .p69 { animation: p69 7.5s steps(1) infinite; opacity: 0; }
    @keyframes p70 {
      0% { opacity: 0; }
      48% { opacity: 1; }
      56% { opacity: 0; }
    }
    .p70 { animation: p70 7.5s steps(1) infinite; opacity: 0; }
    @keyframes p71 {
      0% { opacity: 0; }
      52% { opacity: 1; }
      60% { opacity: 0; }
    }
    .p71 { animation: p71 7.5s steps(1) infinite; opacity: 0; }
    @keyframes p72 {
      0% { opacity: 0; }
      56% { opacity: 1; }
      64% { opacity: 0; }
      76% { opacity: 1; }
      80% { opacity: 0; }
      88% { opacity: 1; }
      100% { opacity: 0; }
    }
    .p72 { animation: p72 7.5s steps(1) infinite; opacity: 0; }
    @keyframes p73 {
      0% { opacity: 0; }
      56% { opacity: 1; }
      60% { opacity: 0; }
    }
    .p73 { animation: p73 7.5s steps(1) infinite; opacity: 0; }
    @keyframes p74 {
      0% { opacity: 0; }
      56% { opacity: 1; }
      76% { opacity: 0; }
    }
    .p74 { animation: p74 7.5s steps(1) infinite; opacity: 0; }
    @keyframes p75 {
      0% { opacity: 0; }
      60% { opacity: 1; }
      92% { opacity: 0; }
    }
    .p75 { animation: p75 7.5s steps(1) infinite; opacity: 0; }
    @keyframes p76 {
      0% { opacity: 0; }
      64% { opacity: 1; }
      76% { opacity: 0; }
    }
    .p76 { animation: p76 7.5s steps(1) infinite; opacity: 0; }
    @keyframes p77 {
      0% { opacity: 0; }
      68% { opacity: 1; }
      88% { opacity: 0; }
    }
    .p77 { animation: p77 7.5s steps(1) infinite; opacity: 0; }
    @keyframes p78 {
      0% { opacity: 0; }
      72% { opacity: 1; }
      92% { opacity: 0; }
    }
    .p78 { animation: p78 7.5s steps(1) infinite; opacity: 0; }
    @keyframes p79 {
      0% { opacity: 0; }
      76% { opacity: 1; }
      96% { opacity: 0; }
    }
    .p79 { animation: p79 7.5s steps(1) infinite; opacity: 0; }
    @keyframes p80 {
      0% { opacity: 0; }
      80% { opacity: 1; }
      84% { opacity: 0; }
      88% { opacity: 1; }
      96% { opacity: 0; }
    }
    .p80 { animation: p80 7.5s steps(1) infinite; opacity: 0; }
    @keyframes p81 {
      0% { opacity: 0; }
      84% { opacity: 1; }
      100% { opacity: 0; }
    }
    .p81 { animation: p81 7.5s steps(1) infinite; opacity: 0; }
    @keyframes p82 {
      0% { opacity: 0; }
      92% { opacity: 1; }
      100% { opacity: 0; }
    }
    .p82 { animation: p82 7.5s steps(1) infinite; opacity: 0; }
    @keyframes p83 {
      0% { opacity: 0; }
      96% { opacity: 1; }
      100% { opacity: 0; }
    }
    .p83 { animation: p83 7.5s steps(1) infinite; opacity: 0; }
  </style>
  <rect class="p0" x="24" y="0" width="7" height="7" rx="2" fill="#238636" opacity="0.7"/>
  <rect class="p0" x="96" y="0" width="7" height="7" rx="2" fill="#238636" opacity="0.7"/>
  <rect class="p0" x="136" y="0" width="7" height="7" rx="2" fill="#238636" opacity="0.7"/>
  <rect class="p0" x="272" y="0" width="7" height="7" rx="2" fill="#238636" opacity="0.7"/>
  <rect class="p0" x="504" y="0" width="7" height="7" rx="2" fill="#238636" opacity="0.7"/>
  <rect class="p0" x="688" y="0" width="7" height="7" rx="2" fill="#238636" opacity="0.7"/>
  <rect class="p0" x="800" y="0" width="7" height="7" rx="2" fill="#238636" opacity="0.7"/>
  <rect class="p0" x="872" y="0" width="7" height="7" rx="2" fill="#238636" opacity="0.7"/>
  <rect class="p0" x="912" y="0" width="7" height="7" rx="2" fill="#238636" opacity="0.7"/>
  <rect class="p0" x="8" y="8" width="7" height="7" rx="2" fill="#238636" opacity="0.7"/>
  <rect class="p0" x="224" y="8" width="7" height="7" rx="2" fill="#238636" opacity="0.7"/>
  <rect class="p0" x="256" y="8" width="7" height="7" rx="2" fill="#238636" opacity="0.7"/>
  <rect class="p0" x="320" y="8" width="7" height="7" rx="2" fill="#238636" opacity="0.7"/>
  <rect class="p0" x="336" y="8" width="7" height="7" rx="2" fill="#238636" opacity="0.7"/>
  <rect class="p0" x="392" y="8" width="7" height="7" rx="2" fill="#238636" opacity="0.7"/>
  <rect class="p0" x="640" y="8" width="7" height="7" rx="2" fill="#238636" opacity="0.7"/>
  <rect class="p0" x="664" y="8" width="7" height="7" rx="2" fill="#238636" opacity="0.7"/>
  <rect class="p0" x="840" y="8" width="7" height="7" rx="2" fill="#238636" opacity="0.7"/>
  <rect class="p0" x="16" y="16" width="7" height="7" rx="2" fill="#238636" opacity="0.7"/>
  <rect class="p0" x="160" y="16" width="7" height="7" rx="2" fill="#238636" opacity="0.7"/>
  <rect class="p0" x="224" y="16" width="7" height="7" rx="2" fill="#238636" opacity="0.7"/>
  <rect class="p0" x="256" y="16" width="7" height="7" rx="2" fill="#238636" opacity="0.7"/>
  <rect class="p0" x="272" y="16" width="7" height="7" rx="2" fill="#238636" opacity="0.7"/>
  <rect class="p0" x="288" y="16" width="7" height="7" rx="2" fill="#238636" opacity="0.7"/>
  <rect class="p0" x="304" y="16" width="7" height="7" rx="2" fill="#238636" opacity="0.7"/>
  <rect class="p0" x="808" y="16" width="7" height="7" rx="2" fill="#238636" opacity="0.7"/>
  <rect class="p0" x="96" y="24" width="7" height="7" rx="2" fill="#238636" opacity="0.7"/>
  <rect class="p0" x="184" y="24" width="7" height="7" rx="2" fill="#238636" opacity="0.7"/>
  <rect class="p0" x="392" y="24" width="7" height="7" rx="2" fill="#238636" opacity="0.7"/>
  <rect class="p0" x="488" y="24" width="7" height="7" rx="2" fill="#238636" opacity="0.7"/>
  <rect class="p0" x="688" y="24" width="7" height="7" rx="2" fill="#238636" opacity="0.7"/>
  <rect class="p0" x="752" y="24" width="7" height="7" rx="2" fill="#238636" opacity="0.7"/>
  <rect class="p0" x="824" y="24" width="7" height="7" rx="2" fill="#238636" opacity="0.7"/>
  <rect class="p0" x="856" y="24" width="7" height="7" rx="2" fill="#238636" opacity="0.7"/>
  <rect class="p0" x="160" y="32" width="7" height="7" rx="2" fill="#238636" opacity="0.7"/>
  <rect class="p0" x="272" y="32" width="7" height="7" rx="2" fill="#238636" opacity="0.7"/>
  <rect class="p0" x="400" y="32" width="7" height="7" rx="2" fill="#238636" opacity="0.7"/>
  <rect class="p0" x="664" y="32" width="7" height="7" rx="2" fill="#238636" opacity="0.7"/>
  <rect class="p0" x="680" y="32" width="7" height="7" rx="2" fill="#238636" opacity="0.7"/>
  <rect class="p0" x="712" y="32" width="7" height="7" rx="2" fill="#238636" opacity="0.7"/>
  <rect class="p0" x="768" y="32" width="7" height="7" rx="2" fill="#238636" opacity="0.7"/>
  <rect class="p0" x="808" y="32" width="7" height="7" rx="2" fill="#238636" opacity="0.7"/>
  <rect class="p0" x="824" y="32" width="7" height="7" rx="2" fill="#238636" opacity="0.7"/>
  <rect class="p0" x="872" y="32" width="7" height="7" rx="2" fill="#238636" opacity="0.7"/>
  <rect class="p0" x="0" y="40" width="7" height="7" rx="2" fill="#238636" opacity="0.7"/>
  <rect class="p0" x="112" y="40" width="7" height="7" rx="2" fill="#238636" opacity="0.7"/>
  <rect class="p0" x="216" y="40" width="7" height="7" rx="2" fill="#238636" opacity="0.7"/>
  <rect class="p0" x="328" y="40" width="7" height="7" rx="2" fill="#238636" opacity="0.7"/>
  <rect class="p0" x="528" y="40" width="7" height="7" rx="2" fill="#238636" opacity="0.7"/>
  <rect class="p0" x="584" y="40" width="7" height="7" rx="2" fill="#238636" opacity="0.7"/>
  <rect class="p0" x="592" y="40" width="7" height="7" rx="2" fill="#238636" opacity="0.7"/>
  <rect class="p0" x="736" y="40" width="7" height="7" rx="2" fill="#238636" opacity="0.7"/>
  <rect class="p0" x="792" y="40" width="7" height="7" rx="2" fill="#238636" opacity="0.7"/>
  <rect class="p0" x="16" y="48" width="7" height="7" rx="2" fill="#238636" opacity="0.7"/>
  <rect class="p0" x="64" y="48" width="7" height="7" rx="2" fill="#238636" opacity="0.7"/>
  <rect class="p0" x="88" y="48" width="7" height="7" rx="2" fill="#238636" opacity="0.7"/>
  <rect class="p0" x="112" y="48" width="7" height="7" rx="2" fill="#238636" opacity="0.7"/>
  <rect class="p0" x="352" y="48" width="7" height="7" rx="2" fill="#238636" opacity="0.7"/>
  <rect class="p0" x="416" y="48" width="7" height="7" rx="2" fill="#238636" opacity="0.7"/>
  <rect class="p0" x="536" y="48" width="7" height="7" rx="2" fill="#238636" opacity="0.7"/>
  <rect class="p0" x="896" y="48" width="7" height="7" rx="2" fill="#238636" opacity="0.7"/>
  <rect class="p0" x="912" y="48" width="7" height="7" rx="2" fill="#238636" opacity="0.7"/>
  <rect class="p0" x="944" y="48" width="7" height="7" rx="2" fill="#238636" opacity="0.7"/>
  <rect class="p0" x="24" y="56" width="7" height="7" rx="2" fill="#238636" opacity="0.7"/>
  <rect class="p0" x="64" y="56" width="7" height="7" rx="2" fill="#238636" opacity="0.7"/>
  <rect class="p0" x="80" y="56" width="7" height="7" rx="2" fill="#238636" opacity="0.7"/>
  <rect class="p0" x="240" y="56" width="7" height="7" rx="2" fill="#238636" opacity="0.7"/>
  <rect class="p0" x="304" y="56" width="7" height="7" rx="2" fill="#238636" opacity="0.7"/>
  <rect class="p0" x="504" y="56" width="7" height="7" rx="2" fill="#238636" opacity="0.7"/>
  <rect class="p0" x="520" y="56" width="7" height="7" rx="2" fill="#238636" opacity="0.7"/>
  <rect class="p0" x="576" y="56" width="7" height="7" rx="2" fill="#238636" opacity="0.7"/>
  <rect class="p0" x="712" y="56" width="7" height="7" rx="2" fill="#238636" opacity="0.7"/>
  <rect class="p0" x="736" y="56" width="7" height="7" rx="2" fill="#238636" opacity="0.7"/>
  <rect class="p0" x="776" y="56" width="7" height="7" rx="2" fill="#238636" opacity="0.7"/>
  <rect class="p0" x="824" y="56" width="7" height="7" rx="2" fill="#238636" opacity="0.7"/>
  <rect class="p0" x="840" y="56" width="7" height="7" rx="2" fill="#238636" opacity="0.7"/>
  <rect class="p0" x="920" y="56" width="7" height="7" rx="2" fill="#238636" opacity="0.7"/>
  <rect class="p0" x="128" y="64" width="7" height="7" rx="2" fill="#238636" opacity="0.7"/>
  <rect class="p0" x="248" y="64" width="7" height="7" rx="2" fill="#238636" opacity="0.7"/>
  <rect class="p0" x="320" y="64" width="7" height="7" rx="2" fill="#238636" opacity="0.7"/>
  <rect class="p0" x="672" y="64" width="7" height="7" rx="2" fill="#238636" opacity="0.7"/>
  <rect class="p0" x="208" y="72" width="7" height="7" rx="2" fill="#238636" opacity="0.7"/>
  <rect class="p0" x="232" y="72" width="7" height="7" rx="2" fill="#238636" opacity="0.7"/>
  <rect class="p0" x="272" y="72" width="7" height="7" rx="2" fill="#238636" opacity="0.7"/>
  <rect class="p0" x="344" y="72" width="7" height="7" rx="2" fill="#238636" opacity="0.7"/>
  <rect class="p0" x="360" y="72" width="7" height="7" rx="2" fill="#238636" opacity="0.7"/>
  <rect class="p0" x="528" y="72" width="7" height="7" rx="2" fill="#238636" opacity="0.7"/>
  <rect class="p0" x="584" y="72" width="7" height="7" rx="2" fill="#238636" opacity="0.7"/>
  <rect class="p0" x="600" y="72" width="7" height="7" rx="2" fill="#238636" opacity="0.7"/>
  <rect class="p0" x="632" y="72" width="7" height="7" rx="2" fill="#238636" opacity="0.7"/>
  <rect class="p0" x="720" y="72" width="7" height="7" rx="2" fill="#238636" opacity="0.7"/>
  <rect class="p0" x="888" y="72" width="7" height="7" rx="2" fill="#238636" opacity="0.7"/>
  <rect class="p0" x="8" y="80" width="7" height="7" rx="2" fill="#238636" opacity="0.7"/>
  <rect class="p0" x="40" y="80" width="7" height="7" rx="2" fill="#238636" opacity="0.7"/>
  <rect class="p0" x="80" y="80" width="7" height="7" rx="2" fill="#238636" opacity="0.7"/>
  <rect class="p0" x="160" y="80" width="7" height="7" rx="2" fill="#238636" opacity="0.7"/>
  <rect class="p0" x="376" y="80" width="7" height="7" rx="2" fill="#238636" opacity="0.7"/>
  <rect class="p0" x="520" y="80" width="7" height="7" rx="2" fill="#238636" opacity="0.7"/>
  <rect class="p0" x="720" y="80" width="7" height="7" rx="2" fill="#238636" opacity="0.7"/>
  <rect class="p0" x="800" y="80" width="7" height="7" rx="2" fill="#238636" opacity="0.7"/>
  <rect class="p0" x="56" y="88" width="7" height="7" rx="2" fill="#238636" opacity="0.7"/>
  <rect class="p0" x="128" y="88" width="7" height="7" rx="2" fill="#238636" opacity="0.7"/>
  <rect class="p0" x="672" y="88" width="7" height="7" rx="2" fill="#238636" opacity="0.7"/>
  <rect class="p0" x="776" y="88" width="7" height="7" rx="2" fill="#238636" opacity="0.7"/>
  <rect class="p0" x="912" y="88" width="7" height="7" rx="2" fill="#238636" opacity="0.7"/>
  <rect class="p1" x="944" y="0" width="7" height="7" rx="2" fill="#238636" opacity="0.7"/>
  <rect class="p2" x="424" y="8" width="7" height="7" rx="2" fill="#238636" opacity="0.7"/>
  <rect class="p3" x="368" y="16" width="7" height="7" rx="2" fill="#238636" opacity="0.7"/>
  <rect class="p3" x="112" y="72" width="7" height="7" rx="2" fill="#238636" opacity="0.7"/>
  <rect class="p4" x="376" y="16" width="7" height="7" rx="2" fill="#238636" opacity="0.7"/>
  <rect class="p5" x="424" y="16" width="7" height="7" rx="2" fill="#238636" opacity="0.7"/>
  <rect class="p6" x="432" y="16" width="7" height="7" rx="2" fill="#238636" opacity="0.7"/>
  <rect class="p7" x="448" y="16" width="7" height="7" rx="2" fill="#238636" opacity="0.7"/>
  <rect class="p8" x="456" y="16" width="7" height="7" rx="2" fill="#238636" opacity="0.7"/>
  <rect class="p9" x="368" y="24" width="7" height="7" rx="2" fill="#238636" opacity="0.7"/>
  <rect class="p10" x="424" y="24" width="7" height="7" rx="2" fill="#238636" opacity="0.7"/>
  <rect class="p11" x="448" y="24" width="7" height="7" rx="2" fill="#238636" opacity="0.7"/>
  <rect class="p12" x="456" y="24" width="7" height="7" rx="2" fill="#238636" opacity="0.7"/>
  <rect class="p13" x="752" y="40" width="7" height="7" rx="2" fill="#238636" opacity="0.7"/>
  <rect class="p14" x="112" y="64" width="7" height="7" rx="2" fill="#238636" opacity="0.7"/>
  <rect class="p15" x="832" y="64" width="7" height="7" rx="2" fill="#238636" opacity="0.7"/>
  <rect class="p15" x="928" y="80" width="7" height="7" rx="2" fill="#238636" opacity="0.7"/>
  <rect class="p15" x="48" y="88" width="7" height="7" rx="2" fill="#238636" opacity="0.7"/>
  <rect class="p15" x="936" y="88" width="7" height="7" rx="2" fill="#238636" opacity="0.7"/>
  <rect class="p16" x="928" y="72" width="7" height="7" rx="2" fill="#238636" opacity="0.7"/>
  <rect class="p17" x="112" y="80" width="7" height="7" rx="2" fill="#238636" opacity="0.7"/>
  <rect class="p18" x="176" y="88" width="7" height="7" rx="2" fill="#238636" opacity="0.7"/>
  <rect class="p18" x="192" y="88" width="7" height="7" rx="2" fill="#238636" opacity="0.7"/>
  <rect class="p18" x="328" y="88" width="7" height="7" rx="2" fill="#238636" opacity="0.7"/>
  <rect class="p18" x="344" y="88" width="7" height="7" rx="2" fill="#238636" opacity="0.7"/>
  <rect class="p19" x="184" y="88" width="7" height="7" rx="2" fill="#238636" opacity="0.7"/>
  <rect class="p20" x="952" y="88" width="7" height="7" rx="2" fill="#238636" opacity="0.7"/>
  <rect class="p21" x="184" y="0" width="7" height="7" rx="2" fill="#238636" opacity="0.7"/>
  <rect class="p21" x="336" y="0" width="7" height="7" rx="2" fill="#238636" opacity="0.7"/>
  <rect class="p21" x="184" y="80" width="7" height="7" rx="2" fill="#238636" opacity="0.7"/>
  <rect class="p21" x="336" y="80" width="7" height="7" rx="2" fill="#238636" opacity="0.7"/>
  <rect class="p22" x="328" y="0" width="7" height="7" rx="2" fill="#238636" opacity="0.7"/>
  <rect class="p22" x="16" y="8" width="7" height="7" rx="2" fill="#238636" opacity="0.7"/>
  <rect class="p22" x="280" y="8" width="7" height="7" rx="2" fill="#238636" opacity="0.7"/>
  <rect class="p22" x="264" y="16" width="7" height="7" rx="2" fill="#238636" opacity="0.7"/>
  <rect class="p22" x="264" y="24" width="7" height="7" rx="2" fill="#238636" opacity="0.7"/>
  <rect class="p22" x="280" y="24" width="7" height="7" rx="2" fill="#238636" opacity="0.7"/>
  <rect class="p22" x="376" y="24" width="7" height="7" rx="2" fill="#238636" opacity="0.7"/>
  <rect class="p22" x="744" y="32" width="7" height="7" rx="2" fill="#238636" opacity="0.7"/>
  <rect class="p22" x="760" y="32" width="7" height="7" rx="2" fill="#238636" opacity="0.7"/>
  <rect class="p22" x="816" y="32" width="7" height="7" rx="2" fill="#238636" opacity="0.7"/>
  <rect class="p22" x="72" y="48" width="7" height="7" rx="2" fill="#238636" opacity="0.7"/>
  <rect class="p22" x="528" y="48" width="7" height="7" rx="2" fill="#238636" opacity="0.7"/>
  <rect class="p22" x="584" y="48" width="7" height="7" rx="2" fill="#238636" opacity="0.7"/>
  <rect class="p22" x="744" y="48" width="7" height="7" rx="2" fill="#238636" opacity="0.7"/>
  <rect class="p22" x="72" y="56" width="7" height="7" rx="2" fill="#238636" opacity="0.7"/>
  <rect class="p22" x="120" y="56" width="7" height="7" rx="2" fill="#238636" opacity="0.7"/>
  <rect class="p22" x="832" y="56" width="7" height="7" rx="2" fill="#238636" opacity="0.7"/>
  <rect class="p22" x="240" y="64" width="7" height="7" rx="2" fill="#238636" opacity="0.7"/>
  <rect class="p22" x="48" y="80" width="7" height="7" rx="2" fill="#238636" opacity="0.7"/>
  <rect class="p22" x="352" y="80" width="7" height="7" rx="2" fill="#238636" opacity="0.7"/>
  <rect class="p23" x="432" y="8" width="7" height="7" rx="2" fill="#238636" opacity="0.7"/>
  <rect class="p24" x="384" y="16" width="7" height="7" rx="2" fill="#238636" opacity="0.7"/>
  <rect class="p24" x="920" y="80" width="7" height="7" rx="2" fill="#238636" opacity="0.7"/>
  <rect class="p25" x="416" y="16" width="7" height="7" rx="2" fill="#238636" opacity="0.7"/>
  <rect class="p26" x="440" y="16" width="7" height="7" rx="2" fill="#238636" opacity="0.7"/>
  <rect class="p27" x="432" y="24" width="7" height="7" rx="2" fill="#238636" opacity="0.7"/>
  <rect class="p28" x="440" y="24" width="7" height="7" rx="2" fill="#238636" opacity="0.7"/>
  <rect class="p29" x="120" y="64" width="7" height="7" rx="2" fill="#238636" opacity="0.7"/>
  <rect class="p30" x="104" y="72" width="7" height="7" rx="2" fill="#238636" opacity="0.7"/>
  <rect class="p31" x="120" y="80" width="7" height="7" rx="2" fill="#238636" opacity="0.7"/>
  <rect class="p32" x="936" y="80" width="7" height="7" rx="2" fill="#238636" opacity="0.7"/>
  <rect class="p33" x="920" y="88" width="7" height="7" rx="2" fill="#238636" opacity="0.7"/>
  <rect class="p34" x="944" y="88" width="7" height="7" rx="2" fill="#238636" opacity="0.7"/>
  <rect class="p35" x="936" y="0" width="7" height="7" rx="2" fill="#238636" opacity="0.7"/>
  <rect class="p35" x="120" y="72" width="7" height="7" rx="2" fill="#238636" opacity="0.7"/>
  <rect class="p36" x="376" y="8" width="7" height="7" rx="2" fill="#238636" opacity="0.7"/>
  <rect class="p37" x="416" y="8" width="7" height="7" rx="2" fill="#238636" opacity="0.7"/>
  <rect class="p38" x="448" y="8" width="7" height="7" rx="2" fill="#238636" opacity="0.7"/>
  <rect class="p39" x="272" y="24" width="7" height="7" rx="2" fill="#238636" opacity="0.7"/>
  <rect class="p39" x="384" y="24" width="7" height="7" rx="2" fill="#238636" opacity="0.7"/>
  <rect class="p40" x="416" y="24" width="7" height="7" rx="2" fill="#238636" opacity="0.7"/>
  <rect class="p41" x="432" y="32" width="7" height="7" rx="2" fill="#238636" opacity="0.7"/>
  <rect class="p42" x="440" y="32" width="7" height="7" rx="2" fill="#238636" opacity="0.7"/>
  <rect class="p43" x="448" y="32" width="7" height="7" rx="2" fill="#238636" opacity="0.7"/>
  <rect class="p44" x="944" y="80" width="7" height="7" rx="2" fill="#238636" opacity="0.7"/>
  <rect class="p45" x="336" y="88" width="7" height="7" rx="2" fill="#238636" opacity="0.7"/>
  <rect class="p46" x="408" y="16" width="7" height="7" rx="2" fill="#238636" opacity="0.7"/>
  <rect class="p47" x="440" y="40" width="7" height="7" rx="2" fill="#238636" opacity="0.7"/>
  <rect class="p48" x="936" y="72" width="7" height="7" rx="2" fill="#238636" opacity="0.7"/>
  <rect class="p49" x="448" y="40" width="7" height="7" rx="2" fill="#238636" opacity="0.7"/>
  <rect class="p50" x="128" y="72" width="7" height="7" rx="2" fill="#238636" opacity="0.7"/>
  <rect class="p51" x="944" y="72" width="7" height="7" rx="2" fill="#238636" opacity="0.7"/>
  <rect class="p52" x="928" y="88" width="7" height="7" rx="2" fill="#238636" opacity="0.7"/>
  <rect class="p53" x="936" y="64" width="7" height="7" rx="2" fill="#238636" opacity="0.7"/>
  <rect class="p53" x="952" y="80" width="7" height="7" rx="2" fill="#238636" opacity="0.7"/>
  <rect class="p54" x="440" y="8" width="7" height="7" rx="2" fill="#238636" opacity="0.7"/>
  <rect class="p55" x="408" y="24" width="7" height="7" rx="2" fill="#238636" opacity="0.7"/>
  <rect class="p56" x="944" y="64" width="7" height="7" rx="2" fill="#238636" opacity="0.7"/>
  <rect class="p56" x="952" y="72" width="7" height="7" rx="2" fill="#238636" opacity="0.7"/>
  <rect class="p57" x="416" y="32" width="7" height="7" rx="2" fill="#238636" opacity="0.7"/>
  <rect class="p58" x="424" y="32" width="7" height="7" rx="2" fill="#238636" opacity="0.7"/>
  <rect class="p59" x="432" y="40" width="7" height="7" rx="2" fill="#238636" opacity="0.7"/>
  <rect class="p60" x="440" y="0" width="7" height="7" rx="2" fill="#238636" opacity="0.7"/>
  <rect class="p61" x="408" y="32" width="7" height="7" rx="2" fill="#238636" opacity="0.7"/>
  <rect class="p62" x="424" y="40" width="7" height="7" rx="2" fill="#238636" opacity="0.7"/>
  <rect class="p63" x="440" y="48" width="7" height="7" rx="2" fill="#238636" opacity="0.7"/>
  <rect class="p64" x="432" y="0" width="7" height="7" rx="2" fill="#238636" opacity="0.7"/>
  <rect class="p64" x="448" y="0" width="7" height="7" rx="2" fill="#238636" opacity="0.7"/>
  <rect class="p65" x="400" y="24" width="7" height="7" rx="2" fill="#238636" opacity="0.7"/>
  <rect class="p66" x="432" y="48" width="7" height="7" rx="2" fill="#238636" opacity="0.7"/>
  <rect class="p67" x="448" y="48" width="7" height="7" rx="2" fill="#238636" opacity="0.7"/>
  <rect class="p68" x="440" y="88" width="7" height="7" rx="2" fill="#238636" opacity="0.7"/>
  <rect class="p69" x="456" y="40" width="7" height="7" rx="2" fill="#238636" opacity="0.7"/>
  <rect class="p70" x="440" y="56" width="7" height="7" rx="2" fill="#238636" opacity="0.7"/>
  <rect class="p71" x="448" y="56" width="7" height="7" rx="2" fill="#238636" opacity="0.7"/>
  <rect class="p72" x="456" y="32" width="7" height="7" rx="2" fill="#238636" opacity="0.7"/>
  <rect class="p73" x="424" y="48" width="7" height="7" rx="2" fill="#238636" opacity="0.7"/>
  <rect class="p73" x="432" y="56" width="7" height="7" rx="2" fill="#238636" opacity="0.7"/>
  <rect class="p74" x="456" y="48" width="7" height="7" rx="2" fill="#238636" opacity="0.7"/>
  <rect class="p75" x="464" y="40" width="7" height="7" rx="2" fill="#238636" opacity="0.7"/>
  <rect class="p76" x="464" y="48" width="7" height="7" rx="2" fill="#238636" opacity="0.7"/>
  <rect class="p77" x="456" y="56" width="7" height="7" rx="2" fill="#238636" opacity="0.7"/>
  <rect class="p78" x="464" y="56" width="7" height="7" rx="2" fill="#238636" opacity="0.7"/>
  <rect class="p79" x="472" y="48" width="7" height="7" rx="2" fill="#238636" opacity="0.7"/>
  <rect class="p80" x="464" y="32" width="7" height="7" rx="2" fill="#238636" opacity="0.7"/>
  <rect class="p81" x="472" y="40" width="7" height="7" rx="2" fill="#238636" opacity="0.7"/>
  <rect class="p82" x="472" y="32" width="7" height="7" rx="2" fill="#238636" opacity="0.7"/>
  <rect class="p83" x="480" y="40" width="7" height="7" rx="2" fill="#238636" opacity="0.7"/>
</svg>